<svg width="40" height="39" viewBox="0 0 40 39" fill="none" xmlns="http://www.w3.org/2000/svg">
<path fill-rule="evenodd" clip-rule="evenodd" d="M37.792 0H2.208C0.988 0 0 0.955067 0 2.1344V36.5323C0 37.7116 0.988 38.6667 2.208 38.6667H21.364V23.693H16.152V17.8582H21.364V13.5527C21.364 8.55693 24.52 5.83867 29.13 5.83867C31.338 5.83867 33.234 5.9972 33.788 6.06873V11.2887H30.592C28.084 11.2887 27.6 12.441 27.6 14.1307V17.8563H33.578L32.798 23.6911H27.598V38.6667H37.792C39.012 38.6667 40 37.7116 40 36.5323V2.1344C40 0.955067 39.012 0 37.792 0Z" fill="white"/>
</svg>
