<svg width="36" height="34" viewBox="0 0 36 34" fill="none" xmlns="http://www.w3.org/2000/svg">
<path fill-rule="evenodd" clip-rule="evenodd" d="M33.9938 0H2.81457C1.74558 0 0.879883 0.835683 0.879883 1.8676V31.9657C0.879883 32.9977 1.74558 33.8333 2.81457 33.8333H19.5993V20.7314H15.0325V15.6259H19.5993V11.8586C19.5993 7.48732 22.3647 5.10883 26.404 5.10883C28.3387 5.10883 30 5.24755 30.4854 5.31014V9.87764H27.6851C25.4875 9.87764 25.0634 10.8859 25.0634 12.3644V15.6242H30.3014L29.618 20.7297H25.0617V33.8333H33.9938C35.0628 33.8333 35.9285 32.9977 35.9285 31.9657V1.8676C35.9285 0.835683 35.0628 0 33.9938 0Z" fill="white"/>
</svg>
