<svg width="39" height="39" viewBox="0 0 39 39" fill="none" xmlns="http://www.w3.org/2000/svg">
<path d="M19.3281 12.8861C15.7781 12.8861 12.8811 15.7833 12.8811 19.3333C12.8811 22.8834 15.7781 25.7805 19.3281 25.7805C22.8781 25.7805 25.7752 22.8834 25.7752 19.3333C25.7752 15.7833 22.8781 12.8861 19.3281 12.8861ZM38.6645 19.3333C38.6645 16.6635 38.6887 14.0179 38.5388 11.3529C38.3888 8.25752 37.6827 5.51033 35.4192 3.2468C33.1509 0.978432 30.4086 0.277125 27.3132 0.12719C24.6435 -0.0227445 21.9979 0.00143862 19.333 0.00143862C16.6632 0.00143862 14.0176 -0.0227445 11.3527 0.12719C8.25736 0.277125 5.51022 0.983268 3.24674 3.2468C0.978414 5.51516 0.27712 8.25752 0.127188 11.3529C-0.022744 14.0227 0.00143859 16.6684 0.00143859 19.3333C0.00143859 21.9983 -0.022744 24.6488 0.127188 27.3137C0.27712 30.4092 0.98325 33.1563 3.24674 35.4199C5.51506 37.6882 8.25736 38.3895 11.3527 38.5395C14.0225 38.6894 16.6681 38.6652 19.333 38.6652C22.0027 38.6652 24.6483 38.6894 27.3132 38.5395C30.4086 38.3895 33.1557 37.6834 35.4192 35.4199C37.6875 33.1515 38.3888 30.4092 38.5388 27.3137C38.6935 24.6488 38.6645 22.0031 38.6645 19.3333ZM19.3281 29.2532C13.8387 29.2532 9.40845 24.8229 9.40845 19.3333C9.40845 13.8438 13.8387 9.41346 19.3281 9.41346C24.8176 9.41346 29.2478 13.8438 29.2478 19.3333C29.2478 24.8229 24.8176 29.2532 19.3281 29.2532ZM29.6541 11.3239C28.3724 11.3239 27.3374 10.2889 27.3374 9.00719C27.3374 7.72549 28.3724 6.69046 29.6541 6.69046C30.9358 6.69046 31.9708 7.72549 31.9708 9.00719C31.9712 9.31153 31.9115 9.61297 31.7952 9.89422C31.6789 10.1755 31.5083 10.431 31.2931 10.6462C31.0779 10.8614 30.8223 11.0321 30.5411 11.1483C30.2599 11.2646 29.9584 11.3243 29.6541 11.3239Z" fill="white"/>
</svg>
