<svg width="40" height="40" viewBox="0 0 40 40" fill="none" xmlns="http://www.w3.org/2000/svg">
<rect width="40" height="40" rx="9" fill="white"/>
<path fill-rule="evenodd" clip-rule="evenodd" d="M11.0734 19.9949L11.0695 21.9157C10.9438 21.9155 10.8187 21.9029 10.696 21.8783C10.5725 21.8536 10.4514 21.8167 10.3346 21.768C10.1017 21.6709 9.89016 21.5289 9.71214 21.3501C9.71237 21.3504 9.71191 21.3499 9.71214 21.3501C9.53444 21.1715 9.39295 20.9589 9.29705 20.7259C9.24866 20.6083 9.21218 20.4865 9.18798 20.3622C9.16416 20.24 9.15223 20.1154 9.15253 19.9903L11.0734 19.9949ZM11.0775 19.9949L11.0776 21.9157C11.3293 21.9157 11.5774 21.8664 11.8081 21.7718C11.926 21.7234 12.0395 21.6633 12.1465 21.5918C12.356 21.4521 12.5349 21.2733 12.6743 21.0666C12.7456 20.9609 12.8065 20.8479 12.8559 20.729C12.9525 20.4966 13.0021 20.2488 13.0034 19.9995L11.0775 19.9949ZM11.0775 12.6357C10.1129 12.6381 9.1581 12.8305 8.26779 13.2019C7.37747 13.5733 6.56902 14.1164 5.8886 14.8002C5.20818 15.4841 4.66911 16.2952 4.30217 17.1874C3.93523 18.0795 3.74761 19.0352 3.75002 19.9999C3.74761 20.9646 3.93526 21.9204 4.30225 22.8126C4.66924 23.7048 5.20838 24.516 5.88889 25.1999C6.5694 25.8837 7.37795 26.4268 8.26836 26.7981C9.15878 27.1695 10.1136 27.3618 11.0784 27.3641C12.043 27.3617 12.9978 27.1693 13.8881 26.7979C14.7784 26.4265 15.5869 25.8834 16.2673 25.1996C16.9477 24.5157 17.4868 23.7046 17.8537 22.8124C18.2206 21.9203 18.4083 20.9646 18.4059 19.9999C18.4083 19.0352 18.2206 18.0794 17.8536 17.1872C17.4866 16.295 16.9475 15.4838 16.267 14.8C15.5865 14.1161 14.7779 13.573 13.8875 13.2017C12.9971 12.8303 12.0423 12.638 11.0775 12.6357Z" fill="#9A6EAB"/>
<path fill-rule="evenodd" clip-rule="evenodd" d="M25.2123 11.5142C25.2123 11.2634 25.0089 11.0601 24.7581 11.0601H20.9639C20.7131 11.0601 20.5098 11.2634 20.5098 11.5142V28.4867C20.5098 28.7376 20.7131 28.9409 20.9639 28.9409H24.7581C25.0089 28.9409 25.2123 28.7376 25.2123 28.4867V11.5142Z" fill="#9A6EAB"/>
<path fill-rule="evenodd" clip-rule="evenodd" d="M27.3169 15.5098V18.4948L28.7986 19.9824L28.8152 19.9989L27.3169 21.5048V24.4898H30.2869L31.7836 22.9839L33.2819 24.4898H36.2502V21.5048L34.7536 19.9989L36.2502 18.4948V15.5098H33.2819L31.7836 17.0156L30.2869 15.5098H27.3169Z" fill="#9A6EAB"/>
<path d="M13.0232 20.465C13.0232 21.4925 12.1902 22.3254 11.1627 22.3254C10.1352 22.3254 9.30225 21.4925 9.30225 20.465C9.30225 19.4375 10.1352 18.6045 11.1627 18.6045C12.1902 18.6045 13.0232 19.4375 13.0232 20.465Z" fill="white"/>
</svg>
