<svg width="36" height="35" viewBox="0 0 36 35" fill="none" xmlns="http://www.w3.org/2000/svg">
<path d="M11.3706 19.8089C11.5599 19.73 11.7375 19.6286 11.8999 19.5078C12.0009 19.4328 12.0961 19.3502 12.1846 19.2611C12.4126 19.0314 12.5963 18.7576 12.7218 18.4538C12.842 18.1628 12.9088 17.8441 12.9101 17.51L12.9102 17.5L12.9101 17.49C12.9088 17.1558 12.842 16.8372 12.7218 16.5462C12.5962 16.2423 12.4125 15.9685 12.1845 15.7388C12.096 15.6497 12.0009 15.5672 11.8999 15.4922C11.7374 15.3714 11.5598 15.2699 11.3704 15.191C11.0775 15.0691 10.7564 15.0013 10.4197 15L10.4102 15L10.4003 15C10.0636 15.0013 9.74259 15.0692 9.44975 15.1911C9.14262 15.319 8.86648 15.5064 8.63572 15.7389C8.40774 15.9686 8.22405 16.2424 8.09853 16.5462C7.97834 16.8372 7.91149 17.1559 7.91018 17.49L7.91016 17.5L7.91018 17.51C7.91149 17.8442 7.97835 18.1628 8.09856 18.4538C8.22409 18.7577 8.4078 19.0315 8.63582 19.2612C8.86661 19.4937 9.14279 19.6811 9.44995 19.809C9.74282 19.9309 10.0639 19.9987 10.4006 20L10.4102 20L10.42 20C10.7567 19.9987 11.0777 19.9308 11.3706 19.8089Z" fill="white"/>
<path fill-rule="evenodd" clip-rule="evenodd" d="M9.92871 0C4.95815 0 0.928711 4.02944 0.928711 9V26C0.928711 30.9706 4.95815 35 9.92871 35H26.9287C31.8993 35 35.9287 30.9706 35.9287 26V9C35.9287 4.02944 31.8993 0 26.9287 0H9.92871ZM32.6915 13.5713V16.1832L31.3889 17.4906L31.3803 17.4992L31.3896 17.5088L32.6915 18.8169V21.4288H30.0906L28.7778 20.1112L27.4664 21.4288H24.864V18.8169L26.1652 17.5109L26.1769 17.4993L26.166 17.4884L24.864 16.1832V13.5713H27.4664L28.7778 14.8889L30.0906 13.5713H32.6915ZM22.6224 25.3232H19.2979C19.0781 25.3232 18.8999 25.1453 18.8999 24.9258V10.0749C18.8999 9.85541 19.0781 9.67749 19.2979 9.67749H22.6224C22.8421 9.67749 23.0203 9.85541 23.0203 10.0749V24.9258C23.0203 25.1453 22.8421 25.3232 22.6224 25.3232ZM16.4203 15.0173C16.3055 14.7397 16.1718 14.471 16.0203 14.213C15.742 13.739 15.4038 13.3011 15.0129 12.9102C14.4093 12.3067 13.6921 11.8273 12.9023 11.4995C12.5767 11.3644 12.2415 11.2562 11.8999 11.1755C11.4129 11.0604 10.913 11.0012 10.4102 11C9.55448 11.0021 8.70723 11.1719 7.91751 11.4997C7.12778 11.8275 6.41067 12.3069 5.80713 12.9105C5.20358 13.5141 4.72542 14.2301 4.39994 15.0175C4.07446 15.805 3.90804 16.6485 3.91018 17.5C3.90804 18.3515 4.07449 19.1951 4.40001 19.9827C4.72554 20.7702 5.20376 21.4862 5.80739 22.0898C6.41101 22.6933 7.12821 23.1727 7.91802 23.5005C8.70772 23.8282 9.55454 23.9979 10.4102 24C10.9129 23.9988 11.413 23.9396 11.8999 23.8245C12.2417 23.7438 12.5771 23.6355 12.9028 23.5003C13.6925 23.1725 14.4096 22.6931 15.0132 22.0895C15.4039 21.6987 15.7421 21.2609 16.0203 20.787C16.1718 20.5289 16.3056 20.2602 16.4204 19.9825C16.7459 19.195 16.9123 18.3515 16.9101 17.5C16.9123 16.6485 16.7458 15.8049 16.4203 15.0173Z" fill="white"/>
</svg>
