<svg width="35" height="35" viewBox="0 0 35 35" fill="none" xmlns="http://www.w3.org/2000/svg">
<path d="M28.1766 8.11125C27.9549 7.99696 27.7393 7.87138 27.5305 7.735C26.9231 7.33387 26.3664 6.86086 25.8724 6.32625C24.6343 4.91021 24.172 3.47375 24.0028 2.46896H24.0087C23.8672 1.63333 23.9255 1.09375 23.9357 1.09375H18.2993V22.8856C18.3012 23.1773 18.2973 23.4665 18.2876 23.7533L18.2818 23.8598C18.2818 23.8753 18.2803 23.8914 18.2774 23.9079V23.921C18.2182 24.7027 17.9678 25.4579 17.5482 26.1201C17.1286 26.7823 16.5527 27.3312 15.8712 27.7185C15.1608 28.1247 14.3561 28.3369 13.5378 28.334C10.9128 28.334 8.78366 26.1931 8.78366 23.5492C8.78366 20.9052 10.9128 18.7629 13.5378 18.7629C14.0351 18.7629 14.5295 18.8417 15.002 18.9962L15.0093 13.2562C13.5743 13.0713 12.1166 13.1857 10.728 13.5924C9.33951 13.999 8.05031 14.6889 6.94178 15.6187C5.97069 16.4628 5.15398 17.4695 4.52824 18.5938C4.29053 19.0035 3.3922 20.6529 3.28428 23.3275C3.21574 24.8442 3.6722 26.4192 3.88949 27.0681V27.0827C4.02512 27.4648 4.55595 28.7715 5.41928 29.8725C6.11617 30.7556 6.93865 31.5319 7.86053 32.1767V32.1621L7.87366 32.1767C10.6007 34.0287 13.6268 33.9077 13.6268 33.9077C14.1503 33.8858 15.9047 33.9077 17.8968 32.9642C20.1062 31.9171 21.3632 30.3581 21.3632 30.3581C22.1676 29.4269 22.8069 28.365 23.2532 27.2183C23.7637 25.8767 23.9328 24.2696 23.9328 23.6279V12.0648C24.0014 12.1056 24.9128 12.7079 24.9128 12.7079C24.9128 12.7079 26.2253 13.5494 28.2714 14.0962C29.7385 14.4856 31.7174 14.5687 31.7174 14.5687V8.97312C31.0247 9.04896 29.6174 8.83021 28.1751 8.11271" fill="white"/>
</svg>
