<svg width="44" height="47" viewBox="0 0 44 47" fill="none" xmlns="http://www.w3.org/2000/svg">
<g filter="url(#filter0_d_904_15)">
<path fill-rule="evenodd" clip-rule="evenodd" d="M31.1484 0.996222C25.1232 -0.332074 18.875 -0.332074 12.8498 0.996222L12.2006 1.13788C10.5058 1.51158 8.94921 2.34134 7.70375 3.53497C6.4583 4.72861 5.57274 6.23939 5.14546 7.89949C3.61818 13.8348 3.61818 20.0524 5.14546 25.9878C5.55294 27.571 6.37763 29.0198 7.53592 30.1874C9.65003 32.3184 12.0625 34.5289 12.5651 37.4883L12.6315 37.8791C12.6599 38.0456 12.7331 38.2015 12.8434 38.3307C12.9537 38.4598 13.097 38.5574 13.2585 38.6134C13.4201 38.6693 13.5938 38.6815 13.7618 38.6487C13.9297 38.6159 14.0856 38.5393 14.2134 38.4269L16.6573 36.2707C18.4417 34.6965 20.7785 33.9386 23.1572 33.8737C25.8438 33.8004 28.5199 33.4725 31.1484 32.8929L31.7995 32.7513C33.4943 32.3776 35.0509 31.5478 36.2964 30.3542C37.5418 29.1605 38.4274 27.6497 38.8547 25.9896C40.3818 20.0543 40.3818 13.8367 38.8547 7.90138C38.4272 6.24104 37.5414 4.73009 36.2956 3.53643C35.0498 2.34278 33.4928 1.51316 31.7976 1.13976L31.1484 0.996222ZM14.4644 7.74563C14.4647 7.74579 14.4645 7.74628 14.4642 7.74623C14.1133 7.69631 13.7558 7.76464 13.4494 7.93997C13.4418 7.94435 13.4331 7.94671 13.4243 7.94671C13.4155 7.94671 13.4069 7.94901 13.3994 7.95341C12.6858 8.36785 12.0425 8.88871 11.4939 9.50112C11.0343 10.0243 10.7854 10.5531 10.7203 11.0631C10.6828 11.3586 10.7076 11.6577 10.7929 11.941C10.7966 11.9534 10.8051 11.9637 10.8164 11.9699C10.8272 11.9758 10.8355 11.9856 10.8395 11.9973C11.3558 13.4885 12.0277 14.9235 12.8479 16.2741C13.9057 18.1717 15.2066 19.9272 16.7184 21.4976C16.7298 21.5093 16.7403 21.5219 16.7498 21.5353L16.7509 21.5368C16.7712 21.5651 16.7958 21.5899 16.824 21.6104C16.8441 21.625 16.8625 21.6419 16.8787 21.6607L16.8805 21.6627C16.8923 21.6765 16.9053 21.6892 16.9191 21.701L16.9519 21.7287C18.5543 23.2314 20.3447 24.5262 22.2797 25.5817C24.4867 26.7671 25.8281 27.3281 26.6349 27.5633C26.6382 27.5642 26.6403 27.5672 26.6403 27.5705C26.6403 27.5739 26.6425 27.5768 26.6457 27.5778C26.8791 27.6484 27.092 27.68 27.3067 27.68C27.9934 27.63 28.6433 27.3547 29.1529 26.8981C29.7736 26.3557 30.299 25.7174 30.7083 25.0077C30.7106 25.0039 30.7117 24.9995 30.7117 24.995C30.7117 24.9908 30.7128 24.9866 30.7148 24.9829C31.096 24.2673 30.965 23.5935 30.4111 23.1358C29.2955 22.1745 28.0893 21.3207 26.8088 20.586C25.9509 20.1271 25.0795 20.4047 24.7271 20.8693L23.9745 21.8061C23.6141 22.239 22.981 22.2128 22.8962 22.2072C22.8899 22.2068 22.8838 22.2083 22.8783 22.2115C22.8714 22.2156 22.8631 22.2167 22.8553 22.2148C18.8391 21.198 17.0878 17.877 16.4936 16.3993C16.3035 15.9265 16.1526 15.3888 16.3862 14.9359C16.4486 14.8151 16.5366 14.6993 16.6608 14.6063L17.603 13.8584C18.055 13.4958 18.3691 12.6383 17.8846 11.7921C17.1446 10.5281 16.2806 9.33884 15.3049 8.24135C15.0926 7.98364 14.7951 7.80794 14.4646 7.74504C14.4642 7.74498 14.464 7.74547 14.4644 7.74563ZM23.3023 5.47626C23.0484 5.47626 22.8048 5.57576 22.6252 5.75286C22.4457 5.92996 22.3448 6.17016 22.3448 6.42062C22.3448 6.67108 22.4457 6.91128 22.6252 7.08839C22.8048 7.26549 23.0484 7.36498 23.3023 7.36498C25.7249 7.36498 27.7357 8.14502 29.3271 9.64089C30.1449 10.4587 30.7826 11.4276 31.2001 12.4891C31.6195 13.5524 31.811 14.6875 31.7612 15.8246C31.7559 15.9486 31.7755 16.0724 31.8187 16.189C31.8619 16.3055 31.928 16.4126 32.0132 16.5039C32.1853 16.6885 32.4246 16.7981 32.6785 16.8086C32.9325 16.8191 33.1803 16.7297 33.3674 16.56C33.5545 16.3904 33.6656 16.1543 33.6763 15.9039C33.7357 14.5053 33.5003 13.1097 32.9849 11.8054C32.4674 10.4948 31.6826 9.30303 30.6792 8.30368L30.66 8.28479C28.6856 6.4244 26.1864 5.47626 23.3023 5.47626ZM23.2372 8.58132C22.9832 8.58132 22.7397 8.68081 22.5601 8.85792C22.3805 9.03502 22.2797 9.27522 22.2797 9.52568C22.2797 9.77614 22.3805 10.0163 22.5601 10.1934C22.7397 10.3705 22.9832 10.47 23.2372 10.47H23.2698C25.0163 10.5928 26.2879 11.167 27.1784 12.1094C28.0919 13.0802 28.5649 14.2871 28.5286 15.7792C28.5227 16.0297 28.618 16.2722 28.7934 16.4534C28.9689 16.6345 29.2101 16.7395 29.4641 16.7453C29.718 16.7511 29.9639 16.6571 30.1476 16.4841C30.3313 16.311 30.4378 16.0731 30.4436 15.8227C30.4896 13.8647 29.8504 12.1748 28.5835 10.8265C28.5826 10.8256 28.5822 10.8244 28.5822 10.8232C28.5822 10.822 28.5817 10.8208 28.5809 10.82C27.2845 9.44964 25.5058 8.72481 23.3655 8.58321L23.333 8.57943L23.2372 8.58132ZM23.2008 11.7449C23.0727 11.7338 22.9436 11.7482 22.8212 11.7873C22.6988 11.8265 22.5857 11.8896 22.4886 11.9728C22.3915 12.056 22.3124 12.1576 22.256 12.2717C22.1996 12.3857 22.1671 12.5098 22.1604 12.6365C22.1537 12.7632 22.173 12.8899 22.217 13.0091C22.2611 13.1283 22.3291 13.2375 22.4169 13.3302C22.5047 13.423 22.6106 13.4973 22.7281 13.5488C22.8457 13.6002 22.9726 13.6278 23.1012 13.6299C23.9017 13.6714 24.4131 13.9094 24.7348 14.2286C25.0584 14.5497 25.2997 15.0653 25.3438 15.8718C25.3462 15.9985 25.3744 16.1235 25.4268 16.2392C25.4792 16.3549 25.5547 16.4591 25.6488 16.5455C25.7428 16.6318 25.8536 16.6986 25.9744 16.7419C26.0952 16.7851 26.2236 16.804 26.3519 16.7972C26.4803 16.7905 26.6059 16.7584 26.7214 16.7028C26.8369 16.6471 26.9398 16.5691 27.0241 16.4734C27.1084 16.3777 27.1723 16.2663 27.2119 16.1457C27.2516 16.0251 27.2663 15.8979 27.255 15.7717C27.1937 14.6384 26.8337 13.6374 26.0964 12.9008C25.3553 12.1642 24.346 11.8054 23.2008 11.7449Z" fill="white"/>
</g>
<defs>
<filter id="filter0_d_904_15" x="0" y="0" width="44" height="46.6665" filterUnits="userSpaceOnUse" color-interpolation-filters="sRGB">
<feFlood flood-opacity="0" result="BackgroundImageFix"/>
<feColorMatrix in="SourceAlpha" type="matrix" values="0 0 0 0 0 0 0 0 0 0 0 0 0 0 0 0 0 0 127 0" result="hardAlpha"/>
<feOffset dy="4"/>
<feGaussianBlur stdDeviation="2"/>
<feComposite in2="hardAlpha" operator="out"/>
<feColorMatrix type="matrix" values="0 0 0 0 0 0 0 0 0 0 0 0 0 0 0 0 0 0 0.25 0"/>
<feBlend mode="normal" in2="BackgroundImageFix" result="effect1_dropShadow_904_15"/>
<feBlend mode="normal" in="SourceGraphic" in2="effect1_dropShadow_904_15" result="shape"/>
</filter>
</defs>
</svg>
