<svg width="68" height="46" viewBox="0 0 68 46" fill="none" xmlns="http://www.w3.org/2000/svg">
<path d="M55.2369 45.4777C54.5359 45.919 53.6097 45.7086 53.1683 45.0075L45.9755 33.5833C45.5341 32.8823 45.7446 31.9561 46.4456 31.5147C47.1467 31.0733 48.0728 31.2838 48.5142 31.9849L54.9078 42.1397L65.0627 35.7461C65.7637 35.3047 66.6899 35.5152 67.1313 36.2162C67.5727 36.9173 67.3622 37.8434 66.6611 38.2848L55.2369 45.4777ZM0.606613 3.4591C11.8027 0.416777 28.1588 -1.32533 40.5053 3.70065C46.7384 6.23801 51.9998 10.525 54.9762 17.2531C57.9388 23.9499 58.5523 32.873 55.9004 44.5407L52.975 43.8759C55.5384 32.5976 54.8496 24.3822 52.2327 18.4668C49.6296 12.5826 45.0345 8.78342 39.3742 6.47924C27.9338 1.82213 12.3558 3.37527 1.39328 6.35413L0.606613 3.4591Z" fill="black"/>
</svg>
