<svg width="26" height="26" viewBox="0 0 26 26" fill="none" xmlns="http://www.w3.org/2000/svg">
<path d="M12.9999 21.2062C12.8555 21.2062 12.7201 21.1839 12.5937 21.1391C12.4673 21.0943 12.3499 21.0174 12.2416 20.9083L5.0916 13.7583C4.87493 13.5417 4.7666 13.2846 4.7666 12.987C4.7666 12.6894 4.87493 12.432 5.0916 12.2146C5.30827 11.9979 5.56105 11.8896 5.84994 11.8896C6.13882 11.8896 6.3916 11.9979 6.60827 12.2146L11.9166 17.5229V5.38958C11.9166 5.08263 12.0206 4.82986 12.2286 4.63125C12.4366 4.43263 12.6937 4.33333 12.9999 4.33333C13.3069 4.33333 13.5644 4.43733 13.7724 4.64533C13.9804 4.85333 14.084 5.11044 14.0833 5.41666V17.5229L19.3916 12.2146C19.6083 11.9979 19.861 11.8896 20.1499 11.8896C20.4388 11.8896 20.6916 11.9979 20.9083 12.2146C21.1249 12.4312 21.2333 12.6887 21.2333 12.987C21.2333 13.2853 21.1249 13.5424 20.9083 13.7583L13.7583 20.9083C13.6499 21.0167 13.5326 21.0936 13.4062 21.1391C13.2798 21.1846 13.1444 21.207 12.9999 21.2062Z" fill="white"/>
</svg>
