<svg width="264" height="84" viewBox="0 0 264 84" fill="none" xmlns="http://www.w3.org/2000/svg">
<path d="M263.285 1.35933C263.281 1.08324 263.053 0.863378 262.777 0.86826L258.277 0.947851C258.001 0.952733 257.781 1.18052 257.786 1.45661C257.791 1.73272 258.019 1.95258 258.295 1.9477L262.294 1.87695L262.365 5.87632C262.37 6.15243 262.598 6.37229 262.874 6.36739C263.15 6.36251 263.37 6.13473 263.365 5.85863L263.285 1.35933ZM0.491274 57.1198C42.118 86.344 152.82 116.014 263.145 1.71543L262.426 1.02094C152.474 114.932 42.3285 85.2699 1.06587 56.3014L0.491274 57.1198Z" fill="black"/>
</svg>
