<svg width="266" height="86" viewBox="0 0 266 86" fill="none" xmlns="http://www.w3.org/2000/svg">
<path d="M265.285 2.34165C265.271 1.51335 264.587 0.853766 263.759 0.868411L250.261 1.1072C249.433 1.12185 248.773 1.80519 248.788 2.63349C248.803 3.46179 249.486 4.12137 250.314 4.10672L262.312 3.89448L262.525 15.8926C262.539 16.7209 263.223 17.3805 264.051 17.3658C264.879 17.3512 265.539 16.6678 265.524 15.8395L265.285 2.34165ZM0.916686 58.9383C42.9076 88.4181 154.165 118.096 264.865 3.40992L262.706 1.32645C153.129 114.85 43.5389 85.1958 2.64045 56.483L0.916686 58.9383Z" fill="black"/>
</svg>
