<svg width="70" height="47" viewBox="0 0 70 47" fill="none" xmlns="http://www.w3.org/2000/svg">
<path d="M65.051 46.7085C64.8029 46.8297 64.5034 46.7269 64.3822 46.4788L62.4064 42.4358C62.2851 42.1877 62.388 41.8883 62.6361 41.767C62.8842 41.6458 63.1836 41.7486 63.3048 41.9967L65.0611 45.5905L68.6549 43.8342C68.903 43.713 69.2024 43.8158 69.3237 44.0639C69.4449 44.312 69.3421 44.6114 69.094 44.7327L65.051 46.7085ZM0.843921 6.45771C8.13526 4.06239 16.9575 1.92035 25.8017 0.907486C34.6397 -0.104674 43.5351 0.00656267 50.9539 2.14641C58.3839 4.28947 64.3728 8.48235 67.2854 15.6457C70.189 22.7865 69.9914 32.7749 65.3043 46.4217L64.3585 46.0969C69.0086 32.5578 69.1329 22.8441 66.3591 16.0223C63.5944 9.22301 57.9067 5.19261 50.6768 3.10724C43.4357 1.01867 34.6879 0.896348 25.9155 1.90099C17.1492 2.90494 8.39374 5.03006 1.15603 7.40776L0.843921 6.45771Z" fill="black"/>
</svg>
