<svg width="169" height="76" viewBox="0 0 169 76" fill="none" xmlns="http://www.w3.org/2000/svg">
<path d="M64.543 11.5241L63.0537 11.3458L64.543 11.5241ZM70.9466 50.6446L70.307 52.0013L70.9466 50.6446ZM168.136 64.4209C168.677 63.7937 168.607 62.8465 167.98 62.3053L157.759 53.4859C157.132 52.9447 156.185 53.0144 155.643 53.6416C155.102 54.2688 155.172 55.216 155.799 55.7572L164.884 63.5967L157.045 72.682C156.504 73.3092 156.573 74.2564 157.201 74.7976C157.828 75.3388 158.775 75.2691 159.316 74.6419L168.136 64.4209ZM1.2235 6.42637C12.0974 4.7879 28.2785 3.15578 41.5056 3.56321C48.1425 3.76765 53.896 4.48315 57.8461 5.89309C59.8218 6.5983 61.2151 7.43227 62.0594 8.34564C62.8548 9.20613 63.1953 10.1633 63.0537 11.3458L66.0324 11.7025C66.2848 9.59447 65.6175 7.77525 64.2624 6.30925C62.9561 4.89613 61.0561 3.85349 58.8546 3.06769C54.4503 1.49561 48.3141 0.771513 41.598 0.564636C28.1189 0.149442 11.7404 1.80783 0.776504 3.45986L1.2235 6.42637ZM63.0537 11.3458C62.61 15.0506 60.6892 18.2137 58.3897 21.2568C57.1907 22.8434 56.0883 24.1505 54.9045 25.6851C53.7891 27.131 52.7344 28.6178 51.9876 30.1546C51.2347 31.7041 50.7626 33.369 50.886 35.1565C51.0102 36.9557 51.7273 38.7313 53.1042 40.5133C55.8 44.0024 61.165 47.6916 70.307 52.0013L71.5862 49.2878C62.5026 45.0056 57.7082 41.5654 55.4782 38.6791C54.3921 37.2735 53.9548 36.05 53.8789 34.9499C53.8021 33.8383 54.0843 32.704 54.686 31.4657C55.2938 30.2147 56.194 28.9251 57.2799 27.5175C58.2973 26.1986 59.6424 24.5751 60.7832 23.0655C63.1631 19.916 65.4909 16.2239 66.0324 11.7025L63.0537 11.3458ZM70.307 52.0013C85.1213 58.9851 104.372 62.5705 122.319 64.2398C140.291 65.9115 157.098 65.6739 167.11 64.9369L166.89 61.945C157.035 62.6705 140.395 62.9082 122.597 61.2527C104.775 59.5951 85.9327 56.051 71.5862 49.2878L70.307 52.0013Z" fill="#161616"/>
</svg>
