<svg width="79" height="49" viewBox="0 0 79 49" fill="none" xmlns="http://www.w3.org/2000/svg">
<path d="M65.49 48.607C64.7457 48.9707 63.8475 48.6622 63.4837 47.9179L57.5563 35.7888C57.1925 35.0445 57.501 34.1462 58.2453 33.7825C58.9896 33.4188 59.8879 33.7273 60.2516 34.4716L65.5205 45.253L76.3019 39.9841C77.0462 39.6204 77.9445 39.9289 78.3082 40.6732C78.6719 41.4175 78.3634 42.3157 77.6191 42.6795L65.49 48.607ZM0.531816 6.50767C7.87679 4.09473 16.7659 1.93576 25.6879 0.91398C34.5916 -0.105694 43.6344 -0.00554394 51.2311 2.18558C58.861 4.38633 65.1511 8.74167 68.2118 16.269C71.2451 23.7289 70.9741 33.9921 66.2501 47.7465L63.4128 46.772C68.0259 33.3406 68.0768 23.9018 65.4327 17.399C62.8161 10.9637 57.4296 7.09575 50.3996 5.06807C43.3364 3.03078 34.7361 2.89737 26.0293 3.8945C17.3408 4.88952 8.65222 6.99772 1.46813 9.35781L0.531816 6.50767Z" fill="black"/>
</svg>
