<svg width="59" height="44" viewBox="0 0 59 44" fill="none" xmlns="http://www.w3.org/2000/svg">
<path d="M54.7041 43.6314C54.4704 43.7786 54.1617 43.7084 54.0146 43.4747L51.617 39.6666C51.4698 39.433 51.54 39.1242 51.7737 38.9771C52.0074 38.83 52.3161 38.9001 52.4632 39.1338L54.5944 42.5188L57.9794 40.3876C58.213 40.2404 58.5218 40.3106 58.6689 40.5443C58.816 40.778 58.7459 41.0867 58.5122 41.2338L54.7041 43.6314ZM0.868833 3.42411C11.9871 0.402942 28.0838 -1.27618 40.1282 3.62684C46.1704 6.08648 51.2098 10.2109 54.0617 16.6576C56.9091 23.094 57.5476 31.7812 54.9253 43.3191L53.9501 43.0975C56.543 31.6894 55.8793 23.2381 53.1472 17.0622C50.4197 10.8967 45.6025 6.93495 39.7512 4.55304C28.0088 -0.227026 12.1714 1.38911 1.13106 4.38912L0.868833 3.42411Z" fill="black"/>
</svg>
