<svg width="133" height="79" viewBox="0 0 133 79" fill="none" xmlns="http://www.w3.org/2000/svg">
<path d="M104.753 78.6423C103.925 78.669 103.232 78.0195 103.205 77.1915L102.77 63.6985C102.743 62.8705 103.392 62.1776 104.22 62.1509C105.048 62.1241 105.741 62.7737 105.768 63.6017L106.155 75.5954L118.149 75.2082C118.977 75.1815 119.67 75.831 119.697 76.659C119.723 77.487 119.074 78.1799 118.246 78.2067L104.753 78.6423ZM0.839773 5.61867C17.5855 2.85414 37.312 0.690121 56.2818 0.294129C75.2238 -0.101285 93.5321 1.26255 107.377 5.62473C121.172 9.97104 131.073 17.4967 132.02 29.734C132.486 35.7572 130.746 42.7132 126.517 50.7005C122.286 58.6917 115.519 67.8001 105.799 78.1689L103.61 76.1172C113.222 65.8644 119.801 56.9733 123.866 49.2967C127.932 41.6163 129.437 35.2366 129.029 29.9655C128.227 19.6142 119.907 12.7177 106.476 8.48607C93.0953 4.27031 75.1722 2.90045 56.3444 3.29347C37.5443 3.68593 17.9625 5.8325 1.32842 8.5786L0.839773 5.61867Z" fill="black"/>
</svg>
