<svg width="131" height="77" viewBox="0 0 131 77" fill="none" xmlns="http://www.w3.org/2000/svg">
<path d="M103.721 76.6428C103.445 76.6517 103.214 76.4352 103.205 76.1592L103.06 71.6616C103.051 71.3855 103.267 71.1546 103.543 71.1457C103.819 71.1368 104.05 71.3533 104.059 71.6293L104.188 75.6272L108.186 75.4981C108.462 75.4892 108.693 75.7057 108.702 75.9817C108.711 76.2577 108.494 76.4887 108.218 76.4976L103.721 76.6428ZM0.00265118 5.60531C16.7112 2.84692 36.3895 0.688723 55.3027 0.293911C74.2066 -0.100709 92.3865 1.26514 106.077 5.57851C119.751 9.88659 129.124 17.2025 130.023 28.8111C130.469 34.5836 128.808 41.3476 124.633 49.2326C120.458 57.1189 113.753 66.1549 104.069 76.485L103.34 75.8011C112.987 65.5096 119.63 56.5461 123.75 48.7647C127.87 40.982 129.453 34.4101 129.026 28.8883C128.176 17.9084 119.329 10.8021 105.776 6.53229C92.2409 2.26772 74.1894 0.89987 55.3235 1.29369C36.4669 1.68732 16.8368 3.83971 0.165537 6.59196L0.00265118 5.60531Z" fill="black"/>
</svg>
