<svg width="25" height="28" viewBox="0 0 25 28" fill="none" xmlns="http://www.w3.org/2000/svg">
<g clip-path="url(#clip0_966_29)">
<path d="M12.25 0C12.9774 0 13.5625 0.585156 13.5625 1.3125V3.83359L14.8203 2.57578C15.3344 2.06172 16.1656 2.06172 16.6742 2.57578C17.1828 3.08984 17.1883 3.92109 16.6742 4.42969L13.557 7.54688V11.7305L17.1774 9.64141L18.3203 5.38672C18.5063 4.68672 19.2281 4.27109 19.9281 4.45703C20.6281 4.64297 21.0438 5.36484 20.8578 6.06484L20.3984 7.77656L22.4274 6.60625C23.0563 6.24531 23.8602 6.45859 24.2211 7.0875C24.582 7.71641 24.3688 8.52031 23.7399 8.88125L21.7109 10.0516L23.4336 10.5109C24.1336 10.6969 24.5492 11.4188 24.3633 12.1188C24.1774 12.8188 23.4555 13.2344 22.7555 13.0484L18.5008 11.9055L14.875 14L18.4953 16.0891L22.75 14.9461C23.45 14.7602 24.1719 15.1758 24.3578 15.8758C24.5438 16.5758 24.1281 17.2977 23.4281 17.4836L21.7109 17.9484L23.7399 19.1187C24.3688 19.4797 24.582 20.2836 24.2211 20.9125C23.8602 21.5414 23.0563 21.7547 22.4274 21.3938L20.3984 20.2234L20.8578 21.9461C21.0438 22.6461 20.6281 23.368 19.9281 23.5539C19.2281 23.7398 18.5063 23.3242 18.3203 22.6242L17.1774 18.3695L13.5625 16.275V20.4586L16.6797 23.5758C17.1938 24.0898 17.1938 24.9211 16.6797 25.4297C16.1656 25.9383 15.3344 25.9438 14.8258 25.4297L13.568 24.1719V26.6875C13.568 27.4148 12.9828 28 12.2555 28C11.5281 28 10.943 27.4148 10.943 26.6875V24.1664L9.68517 25.4242C9.1711 25.9383 8.33985 25.9383 7.83126 25.4242C7.32267 24.9102 7.3172 24.0789 7.83126 23.5703L10.9484 20.4531V16.275L7.32814 18.3641L6.18517 22.6187C5.99923 23.3188 5.27735 23.7344 4.57735 23.5484C3.87735 23.3625 3.46173 22.6406 3.64767 21.9406L4.10157 20.2234L2.07267 21.3938C1.44376 21.7547 0.639854 21.5414 0.278917 20.9125C-0.0820208 20.2836 0.13126 19.4797 0.760167 19.1187L2.78907 17.9484L1.06642 17.4891C0.366417 17.3031 -0.0492083 16.5812 0.136729 15.8812C0.322667 15.1812 1.04454 14.7656 1.74454 14.9516L5.99923 16.0945L9.62501 14L6.0047 11.9109L1.74454 13.0484C1.04454 13.2344 0.322667 12.8188 0.136729 12.1188C-0.0492083 11.4188 0.366417 10.6969 1.06642 10.5109L2.78907 10.0516L0.760167 8.88125C0.13126 8.52031 -0.0820208 7.71641 0.278917 7.0875C0.639854 6.45859 1.44376 6.24531 2.07267 6.60625L4.10157 7.77656L3.6422 6.05391C3.45626 5.35391 3.87189 4.63203 4.57189 4.44609C5.27189 4.26016 5.99376 4.67578 6.1797 5.37578L7.32267 9.63047L10.9375 11.725V7.54141L7.82032 4.42969C7.30626 3.91563 7.30626 3.08437 7.82032 2.57578C8.33439 2.06719 9.16564 2.06172 9.67423 2.57578L10.932 3.83359V1.3125C10.932 0.585156 11.5172 0 12.2445 0H12.25Z" fill="white"/>
</g>
<defs>
<clipPath id="clip0_966_29">
<rect width="24.5" height="28" fill="white"/>
</clipPath>
</defs>
</svg>
