<svg width="9" height="12" viewBox="0 0 9 12" fill="none" xmlns="http://www.w3.org/2000/svg">
<g clip-path="url(#clip0_252_19)">
<path d="M8.31818 10.0483L8.61648 11.4034C8.63352 11.4716 8.625 11.5355 8.59091 11.5952C8.55682 11.6548 8.50852 11.696 8.44602 11.7188L8.40341 11.7273C8.38068 11.7386 8.35085 11.7486 8.31392 11.7571C8.27699 11.7656 8.23153 11.7784 8.17756 11.7955C8.12358 11.8125 8.0625 11.8281 7.99432 11.8423C7.92614 11.8565 7.85369 11.8707 7.77699 11.8849C7.70028 11.8991 7.61506 11.9134 7.52131 11.9276C7.42756 11.9418 7.33239 11.9545 7.2358 11.9659C7.1392 11.9773 7.03551 11.9858 6.92472 11.9915C6.81392 11.9972 6.70455 12 6.59659 12C5.26705 12 4.10511 11.6293 3.1108 10.8878C2.11648 10.1463 1.44034 9.14773 1.08239 7.89205H0.272727C0.198864 7.89205 0.134943 7.86506 0.0809659 7.81108C0.0269886 7.7571 0 7.69318 0 7.61932V6.65625C0 6.58239 0.0269886 6.51847 0.0809659 6.46449C0.134943 6.41051 0.198864 6.38352 0.272727 6.38352H0.835227C0.823864 6.05966 0.826705 5.76136 0.84375 5.48864H0.272727C0.193182 5.48864 0.127841 5.46307 0.0767045 5.41193C0.0255682 5.3608 0 5.29545 0 5.21591V4.24432C0 4.16477 0.0255682 4.09943 0.0767045 4.0483C0.127841 3.99716 0.193182 3.97159 0.272727 3.97159H1.10795C1.48864 2.77841 2.1804 1.81818 3.18324 1.09091C4.18608 0.363636 5.32386 0 6.59659 0C7.17614 0 7.72727 0.0653409 8.25 0.196023C8.3125 0.213068 8.36932 0.255682 8.42045 0.323864C8.45455 0.386364 8.46307 0.454545 8.44602 0.528409L8.07955 1.88352C8.0625 1.95739 8.02273 2.01278 7.96023 2.04972C7.89773 2.08665 7.82955 2.09375 7.75568 2.07102L7.72159 2.0625C7.69886 2.05682 7.66619 2.04972 7.62358 2.04119L7.47443 2.01136L7.28267 1.98153L7.06108 1.95597L6.81392 1.93466L6.5625 1.92614C5.84659 1.92614 5.20455 2.10795 4.63636 2.47159C4.06818 2.83523 3.64205 3.33523 3.35795 3.97159H7.34659C7.4375 3.97159 7.50852 4.00568 7.55966 4.07386C7.61648 4.14205 7.63636 4.21591 7.61932 4.29545L7.41477 5.26705C7.38636 5.41477 7.29545 5.48864 7.14205 5.48864H2.98295C2.96591 5.69886 2.96591 5.99716 2.98295 6.38352H6.89489C6.98011 6.38352 7.05114 6.41761 7.10795 6.4858C7.15909 6.55398 7.17614 6.63068 7.15909 6.71591L6.95455 7.67045C6.94318 7.73295 6.91193 7.78551 6.8608 7.82812C6.80966 7.87074 6.75284 7.89205 6.69034 7.89205H3.39205C3.66477 8.55682 4.08949 9.08381 4.66619 9.47301C5.2429 9.86222 5.89205 10.0568 6.61364 10.0568C6.71591 10.0568 6.81818 10.0526 6.92045 10.044C7.02273 10.0355 7.1179 10.0256 7.20597 10.0142C7.29403 10.0028 7.37784 9.99006 7.45739 9.97585C7.53693 9.96165 7.60653 9.94744 7.66619 9.93324C7.72585 9.91903 7.77841 9.90625 7.82386 9.89489L7.92614 9.86932L7.96875 9.85227C8.04261 9.82386 8.11648 9.82955 8.19034 9.86932C8.25852 9.90909 8.30114 9.96875 8.31818 10.0483Z" fill="#30AF30"/>
</g>
<defs>
<clipPath id="clip0_252_19">
<rect width="8.72727" height="12" fill="white"/>
</clipPath>
</defs>
</svg>
