<svg width="45" height="45" viewBox="0 0 45 45" fill="none" xmlns="http://www.w3.org/2000/svg">
<g clip-path="url(#clip0_1802_403)">
<path d="M40 6.25H5C3.67392 6.25 2.40215 6.77678 1.46447 7.71447C0.526784 8.65215 0 9.92392 0 11.25L0 22.5H45V11.25C45 9.92392 44.4732 8.65215 43.5355 7.71447C42.5979 6.77678 41.3261 6.25 40 6.25Z" fill="#005BBB"/>
<path d="M45 33.75C45 35.0761 44.4732 36.3479 43.5355 37.2855C42.5979 38.2232 41.3261 38.75 40 38.75H5C3.67392 38.75 2.40215 38.2232 1.46447 37.2855C0.526784 36.3479 0 35.0761 0 33.75V22.5H45V33.75Z" fill="#FFD500"/>
</g>
<defs>
<clipPath id="clip0_1802_403">
<rect width="45" height="45" fill="white"/>
</clipPath>
</defs>
</svg>
