<svg width="25" height="18" viewBox="0 0 25 18" fill="none" xmlns="http://www.w3.org/2000/svg">
<path d="M0 5.46924H24.9231V12.5308H0V5.46924Z" fill="#EEEEEE"/>
<path d="M24.9231 15.2307C24.9231 16.76 23.6832 17.9999 22.1538 17.9999H2.76923C1.23992 17.9999 0 16.76 0 15.2307V12.4614H24.9231V15.2307Z" fill="#171796"/>
<path d="M22.1538 0H2.76923C1.23992 0 0 1.23992 0 2.76923V5.53846H24.9231V2.76923C24.9231 1.23992 23.6832 0 22.1538 0Z" fill="#D52B1E"/>
<path d="M7.89844 1.68652V9.6716C7.89844 12.1916 9.94144 14.2346 12.4614 14.2346C14.9814 14.2346 17.0244 12.1916 17.0244 9.6716V1.68652H7.89844Z" fill="#D52B1E"/>
<path d="M9.86532 9.00011H11.5961V10.7309H9.86532V9.00011ZM11.5961 10.7309H13.3269V12.4617H11.5961V10.7309ZM11.5961 7.26934H13.3269V9.00011H11.5961V7.26934ZM13.3269 9.00011H15.0576V10.7309H13.3269V9.00011ZM13.3269 5.53857H15.0576V7.26934H13.3269V5.53857ZM15.0576 7.26934H16.6783V9.00011H15.0576V7.26934ZM9.86532 5.53857H11.5961V7.26934H9.86532V5.53857ZM15.0576 12.4617H15.6149C16.0483 11.9722 16.3689 11.3823 16.5385 10.7309H15.0576V12.4617ZM13.3269 12.4617V13.7985C13.97 13.6635 14.5578 13.3797 15.0576 12.9878V12.4617H13.3269ZM9.86532 12.4617V10.7309H8.38447C8.55409 11.3823 8.87394 11.9722 9.30801 12.4617H9.86532ZM8.24463 7.26934H9.86532V9.00011H8.24463V7.26934ZM9.86532 12.4617V12.9878C10.3652 13.3797 10.9529 13.6635 11.5961 13.7985V12.4617H9.86532Z" fill="white"/>
<path d="M17.1395 2.1746L15.7563 2.72221L14.8369 1.55775L13.5707 2.33729L12.4616 1.34937L11.3518 2.33798L10.0877 1.55706L9.16622 2.7229L7.78507 2.1739L7.0083 3.6139L7.92976 5.59529L8.05161 5.53852C8.59161 5.28721 9.16138 5.08021 9.74292 4.92375L9.77061 4.91613C10.3618 4.75898 10.9489 4.65444 11.5173 4.6039L11.5616 4.59975C12.0497 4.55821 12.8742 4.55821 13.3623 4.59975L13.4025 4.60321C13.9729 4.65444 14.5641 4.75967 15.1581 4.91683L15.181 4.92306C15.7598 5.07883 16.3288 5.28583 16.8709 5.53852L16.9921 5.59529L17.9135 3.6146L17.1395 2.1746Z" fill="#171796"/>
<path d="M11.5187 2.54851L11.6717 4.32289C11.9002 4.30489 12.1764 4.28759 12.4616 4.28759C12.7469 4.28759 13.0231 4.30489 13.2516 4.32289L13.4046 2.54851L12.4616 1.70874L11.5187 2.54851ZM17.0163 2.51182L15.8408 2.97774L15.3783 4.70089C15.8844 4.84351 16.3822 5.02489 16.8626 5.2402L17.6145 3.62297L17.0163 2.51182ZM7.90764 2.51043L7.30811 3.62228L8.06064 5.23951C8.53834 5.02489 9.03611 4.84351 9.54495 4.7002L9.08111 2.97636L7.90764 2.51043Z" fill="#0193DD"/>
</svg>
