<svg width="45" height="45" viewBox="0 0 45 45" fill="none" xmlns="http://www.w3.org/2000/svg">
<path d="M40 6.25H18.75V20H45V11.25C45 9.92392 44.4732 8.65215 43.5355 7.71447C42.5979 6.77678 41.3261 6.25 40 6.25ZM18.75 38.75H40C42.7613 38.75 45 36.5113 45 33.125V25H18.75V38.75ZM0 25V33.125C0 36.5113 2.23875 38.75 5 38.75H13.75V25H0ZM13.75 6.25H5C3.67392 6.25 2.40215 6.77678 1.46447 7.71447C0.526784 8.65215 0 9.92392 0 11.25L0 20H13.75V6.25Z" fill="#C60C30"/>
<path d="M18.75 6.25H13.75V20H0V25H13.75V38.75H18.75V25H45V20H18.75V6.25Z" fill="#EEEEEE"/>
</svg>
