<svg width="27" height="26" viewBox="0 0 27 26" fill="none" xmlns="http://www.w3.org/2000/svg">
<g clip-path="url(#clip0_966_22)">
<path d="M19.2313 0.0610171C19.4861 0.167658 19.6696 0.396173 19.7206 0.665314L20.7348 6.14461L26.2341 7.15008C26.5042 7.20086 26.7335 7.38367 26.8406 7.63758C26.9476 7.89149 26.917 8.18094 26.759 8.40945L23.5838 13.0001L26.759 17.5856C26.917 17.8141 26.9476 18.1036 26.8406 18.3575C26.7335 18.6114 26.5042 18.7942 26.2341 18.845L20.7348 19.8555L19.7206 25.3348C19.6696 25.604 19.4861 25.8325 19.2313 25.9391C18.9765 26.0458 18.686 26.0153 18.4566 25.8579L13.8544 22.6942L9.25211 25.8579C9.02276 26.0153 8.73225 26.0458 8.47742 25.9391C8.22259 25.8325 8.03911 25.604 7.98814 25.3348L6.97392 19.8555L1.47466 18.845C1.20454 18.7942 0.97519 18.6114 0.868161 18.3575C0.761132 18.1036 0.791712 17.8141 0.949707 17.5856L4.1249 13.0001L0.949707 8.41453C0.791712 8.18602 0.761132 7.89656 0.868161 7.64266C0.97519 7.38875 1.20454 7.20594 1.47466 7.15516L6.97392 6.14461L7.98814 0.665314C8.03911 0.396173 8.22259 0.167658 8.47742 0.0610171C8.73225 -0.0456235 9.02276 -0.0151548 9.25211 0.142267L13.8544 3.30594L18.4566 0.142267C18.686 -0.0151548 18.9765 -0.0456235 19.2313 0.0610171ZM8.9616 13.0001C8.9616 11.7071 9.47709 10.4672 10.3947 9.55293C11.3122 8.63869 12.5567 8.12508 13.8544 8.12508C15.152 8.12508 16.3965 8.63869 17.3141 9.55293C18.2316 10.4672 18.7471 11.7071 18.7471 13.0001C18.7471 14.293 18.2316 15.533 17.3141 16.4472C16.3965 17.3615 15.152 17.8751 13.8544 17.8751C12.5567 17.8751 11.3122 17.3615 10.3947 16.4472C9.47709 15.533 8.9616 14.293 8.9616 13.0001ZM20.378 13.0001C20.378 11.2762 19.6907 9.62287 18.4673 8.40388C17.2439 7.1849 15.5845 6.50008 13.8544 6.50008C12.1242 6.50008 10.4648 7.1849 9.24142 8.40388C8.01799 9.62287 7.33068 11.2762 7.33068 13.0001C7.33068 14.724 8.01799 16.3773 9.24142 17.5963C10.4648 18.8153 12.1242 19.5001 13.8544 19.5001C15.5845 19.5001 17.2439 18.8153 18.4673 17.5963C19.6907 16.3773 20.378 14.724 20.378 13.0001Z" fill="white"/>
</g>
<defs>
<clipPath id="clip0_966_22">
<rect width="26.0947" height="26" fill="white" transform="translate(0.806915)"/>
</clipPath>
</defs>
</svg>
