<svg width="25" height="27" viewBox="0 0 25 27" fill="none" xmlns="http://www.w3.org/2000/svg">
<path id="Vector" fill-rule="evenodd" clip-rule="evenodd" d="M18.3252 0.67245C14.2582 -0.22415 10.0406 -0.22415 5.97363 0.67245L5.53541 0.768067C4.39141 1.02032 3.34071 1.5804 2.50003 2.38611C1.65935 3.19181 1.0616 4.21159 0.773186 5.33216C-0.257729 9.33852 -0.257729 13.5354 0.773186 17.5417C1.04824 18.6104 1.6049 19.5884 2.38675 20.3765C3.81377 21.8149 5.44218 23.307 5.78146 25.3046L5.82626 25.5684C5.84545 25.6808 5.89484 25.786 5.96928 25.8732C6.04372 25.9604 6.14049 26.0263 6.24952 26.064C6.35855 26.1018 6.47584 26.11 6.58919 26.0879C6.70254 26.0657 6.80781 26.014 6.89401 25.9381L7.6382 25.2816C9.42257 23.7073 11.7633 22.9713 14.1371 22.8064C15.5447 22.7087 16.9447 22.5071 18.3252 22.2027L18.7647 22.1071C19.9087 21.8548 20.9594 21.2948 21.8 20.4891C22.6407 19.6834 23.2385 18.6636 23.5269 17.543C24.5577 13.5366 24.5577 9.3398 23.5269 5.33343C23.2384 4.2127 22.6404 3.19281 21.7995 2.38709C20.9586 1.58137 19.9076 1.02138 18.7634 0.769341L18.3252 0.67245ZM7.06345 5.2283C7.06367 5.22841 7.06357 5.22874 7.06333 5.2287C6.82651 5.19501 6.58517 5.24113 6.37835 5.35948C6.37318 5.36244 6.36734 5.36403 6.3614 5.36403C6.35549 5.36403 6.34969 5.36558 6.34458 5.36855C5.86294 5.64829 5.4287 5.99988 5.05841 6.41326C4.74817 6.7664 4.58012 7.12337 4.53617 7.46759C4.51089 7.66706 4.52763 7.86896 4.5852 8.06019C4.58771 8.06852 4.59343 8.07549 4.60106 8.07967C4.60838 8.08369 4.61395 8.09028 4.61668 8.09817C4.96514 9.10476 5.41873 10.0733 5.97233 10.985C6.68638 12.2659 7.56445 13.4509 8.58495 14.5108C8.59262 14.5188 8.5997 14.5273 8.60613 14.5363L8.60686 14.5373C8.62053 14.5564 8.63718 14.5732 8.65617 14.587C8.66975 14.5969 8.68216 14.6083 8.69314 14.621L8.69432 14.6223C8.70232 14.6316 8.71105 14.6402 8.7204 14.6481L8.74254 14.6669C9.82416 15.6812 11.0327 16.5552 12.3388 17.2676C13.8285 18.0678 14.734 18.4465 15.2786 18.6052C15.2808 18.6058 15.2822 18.6078 15.2822 18.6101C15.2822 18.6124 15.2837 18.6144 15.2858 18.615C15.4434 18.6627 15.5871 18.684 15.732 18.684C16.1955 18.6502 16.6342 18.4644 16.9782 18.1562C17.3971 17.7901 17.7518 17.3593 18.0281 16.8802C18.0296 16.8776 18.0304 16.8747 18.0304 16.8716C18.0304 16.8688 18.0312 16.866 18.0325 16.8635C18.2898 16.3804 18.2014 15.9256 17.8275 15.6167C17.0745 14.9678 16.2603 14.3915 15.396 13.8956C14.8168 13.5858 14.2287 13.7732 13.9908 14.0868L13.4828 14.7191C13.2395 15.0113 12.8122 14.9937 12.755 14.9899C12.7507 14.9896 12.7466 14.9906 12.7429 14.9928C12.7382 14.9955 12.7326 14.9963 12.7273 14.995C10.2088 14.3574 9.00974 12.3773 8.53066 11.2997C8.3236 10.834 8.12708 10.2198 8.51248 9.88631C8.52321 9.87702 8.5344 9.868 8.54606 9.85927L9.18205 9.35442C9.48712 9.10964 9.69912 8.53084 9.37208 7.95969C8.87259 7.10649 8.28938 6.30371 7.63084 5.56291C7.48753 5.38896 7.28669 5.27036 7.06359 5.2279C7.06334 5.22786 7.06323 5.22819 7.06345 5.2283ZM13.0291 3.69648C12.8576 3.69648 12.6932 3.76364 12.572 3.88318C12.4508 4.00272 12.3827 4.16486 12.3827 4.33392C12.3827 4.50298 12.4508 4.66512 12.572 4.78466C12.6932 4.9042 12.8576 4.97136 13.0291 4.97136C14.6643 4.97136 16.0216 5.49789 17.0958 6.5076C17.6478 7.05962 18.0783 7.71364 18.3601 8.43013C18.6432 9.14789 18.7724 9.91409 18.7388 10.6816C18.7353 10.7653 18.7484 10.8489 18.7776 10.9275C18.8068 11.0062 18.8514 11.0785 18.9089 11.1402C19.0251 11.2647 19.1866 11.3387 19.358 11.3458C19.5294 11.3529 19.6967 11.2925 19.823 11.178C19.9493 11.0635 20.0243 10.9042 20.0315 10.7351C20.0716 9.79105 19.9127 8.84904 19.5648 7.96862C19.2155 7.08402 18.6858 6.27955 18.0085 5.60498L17.9955 5.59223C16.6628 4.33647 14.9758 3.69648 13.0291 3.69648ZM12.9851 5.79239C12.8137 5.79239 12.6493 5.85955 12.5281 5.97909C12.4069 6.09864 12.3388 6.26077 12.3388 6.42983C12.3388 6.59889 12.4069 6.76103 12.5281 6.88057C12.6493 7.00011 12.8137 7.06727 12.9851 7.06727H13.0071C14.186 7.15014 15.0443 7.53771 15.6454 8.17387C16.262 8.82917 16.5813 9.64382 16.5568 10.651C16.5528 10.82 16.6171 10.9837 16.7356 11.106C16.854 11.2283 17.0168 11.2992 17.1882 11.3031C17.3597 11.307 17.5256 11.2435 17.6496 11.1267C17.7736 11.01 17.8455 10.8494 17.8495 10.6803C17.8805 9.35869 17.449 8.218 16.5938 7.30788C16.5933 7.30729 16.593 7.3065 16.593 7.30568C16.593 7.30486 16.5927 7.30407 16.5921 7.30347C15.717 6.37851 14.5164 5.88925 13.0717 5.79366L13.0497 5.79111L12.9851 5.79239ZM12.9605 7.92782C12.8741 7.92029 12.7869 7.93003 12.7043 7.95646C12.6217 7.98288 12.5454 8.02545 12.4798 8.08162C12.4143 8.13779 12.3609 8.20641 12.3228 8.28338C12.2847 8.36036 12.2628 8.44411 12.2583 8.52963C12.2538 8.61515 12.2668 8.7007 12.2965 8.78115C12.3262 8.86161 12.3721 8.93533 12.4314 8.99792C12.4907 9.0605 12.5621 9.11066 12.6415 9.14541C12.7209 9.18016 12.8065 9.19878 12.8933 9.20016C13.4337 9.2282 13.7788 9.38884 13.996 9.6043C14.2144 9.82103 14.3773 10.1691 14.4071 10.7134C14.4087 10.799 14.4277 10.8833 14.4631 10.9615C14.4985 11.0396 14.5494 11.1099 14.6129 11.1682C14.6764 11.2265 14.7512 11.2716 14.8327 11.3008C14.9143 11.33 15.0009 11.3427 15.0876 11.3381C15.1742 11.3336 15.259 11.3119 15.337 11.2744C15.4149 11.2368 15.4844 11.1842 15.5413 11.1196C15.5982 11.055 15.6413 10.9797 15.6681 10.8984C15.6948 10.817 15.7047 10.7311 15.6971 10.6459C15.6558 9.88095 15.4128 9.20526 14.9151 8.70805C14.4148 8.21085 13.7336 7.96862 12.9605 7.92782Z" fill="white"/>
</svg>
