<svg width="27" height="27" viewBox="0 0 27 27" fill="none" xmlns="http://www.w3.org/2000/svg">
<g id="arcticons:olxro">
<rect width="27" height="27" rx="9" fill="white"/>
<g id="Vector">
<mask id="path-2-inside-1_268_85" fill="white">
<path d="M12.424 13.5001C12.4256 14.1513 12.2989 14.7964 12.0513 15.3986C11.8036 16.0008 11.4397 16.5483 10.9804 17.0099C10.5211 17.4715 9.97543 17.8381 9.37446 18.0888C8.7735 18.3394 8.12904 18.4693 7.47789 18.4709C6.82669 18.4694 6.18217 18.3396 5.58115 18.0889C4.98012 17.8383 4.43435 17.4717 3.975 17.0101C3.51566 16.5485 3.15174 16.0009 2.90402 15.3987C2.6563 14.7965 2.52964 14.1513 2.53127 13.5001C2.52964 12.849 2.65628 12.2039 2.90396 11.6017C3.15165 10.9994 3.51552 10.4519 3.9748 9.99034C4.43409 9.52875 4.97979 9.16215 5.58076 8.91147C6.18172 8.66078 6.82618 8.53092 7.47733 8.5293C8.12853 8.53085 8.77304 8.66065 9.37407 8.91131C9.9751 9.16196 10.5209 9.52855 10.9802 9.99014C11.4396 10.4517 11.8035 10.9993 12.0512 11.6015C12.2989 12.2038 12.4256 12.8489 12.424 13.5001ZM8.87739 13.5001C8.87606 13.7767 8.79281 14.0467 8.63816 14.2761C8.48351 14.5054 8.26439 14.6838 8.00845 14.7888C7.75251 14.8937 7.47121 14.9205 7.20008 14.8657C6.92894 14.8109 6.6801 14.677 6.48497 14.481C6.28984 14.2849 6.15717 14.0354 6.10369 13.764C6.05022 13.4926 6.07833 13.2115 6.1845 12.956C6.29066 12.7006 6.47011 12.4823 6.7002 12.3288C6.93029 12.1752 7.20071 12.0933 7.47733 12.0933C7.66168 12.0937 7.84415 12.1304 8.01432 12.2013C8.18448 12.2722 8.33902 12.3759 8.46908 12.5065C8.59915 12.6372 8.70221 12.7922 8.77236 12.9626C8.84252 13.1331 8.8784 13.3158 8.87795 13.5001H8.87739Z"/>
</mask>
<path d="M12.424 13.5001L8.42396 13.4901C8.42395 13.4968 8.42395 13.5034 8.42396 13.5101L12.424 13.5001ZM7.47789 18.4709L7.46837 22.4709C7.47487 22.4709 7.48137 22.4709 7.48786 22.4709L7.47789 18.4709ZM2.53127 13.5001L6.53125 13.5101C6.53127 13.5034 6.53127 13.4968 6.53125 13.4901L2.53127 13.5001ZM7.47733 8.5293L7.48685 4.52931C7.48035 4.52929 7.47385 4.52929 7.46736 4.52931L7.47733 8.5293ZM8.87739 13.5001V9.50011C6.67578 9.50011 4.88805 11.2792 4.87744 13.4808L8.87739 13.5001ZM7.47733 12.0933L7.48533 8.0933L7.47728 8.0933L7.47733 12.0933ZM8.87795 13.5001V17.5001C11.0833 17.5001 12.8726 15.7151 12.8779 13.5097L8.87795 13.5001ZM8.42396 13.5101C8.42428 13.636 8.3998 13.7607 8.35192 13.8771L15.7506 16.9201C16.1981 15.8321 16.4269 14.6666 16.4239 13.4901L8.42396 13.5101ZM8.35192 13.8771C8.30405 13.9935 8.23372 14.0993 8.14494 14.1885L13.8159 19.8312C14.6457 18.9973 15.3031 18.0081 15.7506 16.9201L8.35192 13.8771ZM8.14494 14.1885C8.05616 14.2777 7.95068 14.3486 7.83452 14.3971L10.9144 21.7804C12.0002 21.3275 12.9861 20.6652 13.8159 19.8312L8.14494 14.1885ZM7.83452 14.3971C7.71835 14.4455 7.59378 14.4706 7.46792 14.4709L7.48786 22.4709C8.66431 22.468 9.82865 22.2334 10.9144 21.7804L7.83452 14.3971ZM7.48741 14.4709C7.36154 14.4706 7.23696 14.4455 7.12078 14.3971L4.04151 21.7807C5.12739 22.2336 6.29184 22.4681 7.46837 22.4709L7.48741 14.4709ZM7.12078 14.3971C7.0046 14.3486 6.89911 14.2778 6.81032 14.1886L1.13969 19.8316C1.96959 20.6656 2.95563 21.3279 4.04151 21.7807L7.12078 14.3971ZM6.81032 14.1886C6.72153 14.0993 6.65119 13.9935 6.6033 13.8771L-0.795268 16.9203C-0.347715 18.0084 0.309784 18.9976 1.13969 19.8316L6.81032 14.1886ZM6.6033 13.8771C6.55542 13.7607 6.53094 13.636 6.53125 13.5101L-1.46872 13.4901C-1.47166 14.6666 -1.24282 15.8322 -0.795268 16.9203L6.6033 13.8771ZM6.53125 13.4901C6.53094 13.3643 6.55542 13.2396 6.60329 13.1232L-0.795365 10.0802C-1.24285 11.1682 -1.47166 12.3337 -1.46872 13.5101L6.53125 13.4901ZM6.60329 13.1232C6.65117 13.0067 6.7215 12.9009 6.81028 12.8117L1.13933 7.16898C0.309533 8.00292 -0.347876 8.99214 -0.795365 10.0802L6.60329 13.1232ZM6.81028 12.8117C6.89906 12.7225 7.00454 12.6516 7.1207 12.6032L4.04081 5.21978C2.95504 5.67269 1.96912 6.33503 1.13933 7.16898L6.81028 12.8117ZM7.1207 12.6032C7.23687 12.5547 7.36144 12.5296 7.4873 12.5293L7.46736 4.52931C6.29092 4.53224 5.12657 4.76686 4.04081 5.21978L7.1207 12.6032ZM7.46781 12.5293C7.59369 12.5296 7.71827 12.5547 7.83444 12.6031L10.9137 5.21949C9.82782 4.76663 8.66337 4.53211 7.48685 4.52931L7.46781 12.5293ZM7.83444 12.6031C7.95061 12.6516 8.05611 12.7224 8.1449 12.8117L13.8155 7.16862C12.9856 6.33466 11.9996 5.67234 10.9137 5.21949L7.83444 12.6031ZM8.1449 12.8117C8.23369 12.9009 8.30403 13.0067 8.35191 13.1231L15.7505 10.0799C15.3029 8.99184 14.6454 8.00258 13.8155 7.16862L8.1449 12.8117ZM8.35191 13.1231C8.3998 13.2395 8.42428 13.3642 8.42396 13.4901L16.4239 13.5101C16.4269 12.3336 16.198 11.168 15.7505 10.0799L8.35191 13.1231ZM4.87744 13.4808C4.87991 12.9671 5.0345 12.4657 5.32169 12.0398L11.9546 16.5124C12.5511 15.6278 12.8722 14.5863 12.8773 13.5194L4.87744 13.4808ZM5.32169 12.0398C5.60887 11.6139 6.01579 11.2826 6.49108 11.0878L9.52582 18.4898C10.513 18.0851 11.3582 17.397 11.9546 16.5124L5.32169 12.0398ZM6.49108 11.0878C6.96637 10.8929 7.48873 10.8432 7.99224 10.9449L6.40791 18.7865C7.4537 18.9978 8.53864 18.8945 9.52582 18.4898L6.49108 11.0878ZM7.99224 10.9449C8.49574 11.0466 8.95783 11.2952 9.32019 11.6594L3.64975 17.3026C4.40237 18.0588 5.36213 18.5752 6.40791 18.7865L7.99224 10.9449ZM9.32019 11.6594C9.68255 12.0235 9.92893 12.4867 10.0282 12.9907L2.17915 14.5373C2.38541 15.5841 2.89714 16.5463 3.64975 17.3026L9.32019 11.6594ZM10.0282 12.9907C10.1275 13.4947 10.0753 14.0168 9.87818 14.4912L2.49081 11.4209C2.08134 12.4061 1.97289 13.4905 2.17915 14.5373L10.0282 12.9907ZM9.87818 14.4912C9.68103 14.9655 9.34779 15.3709 8.92051 15.656L4.47989 9.0016C3.59243 9.59382 2.90029 10.4357 2.49081 11.4209L9.87818 14.4912ZM8.92051 15.656C8.49323 15.9411 7.99106 16.0933 7.47737 16.0933L7.47728 8.0933C6.41036 8.09331 5.36735 8.40937 4.47989 9.0016L8.92051 15.656ZM7.46932 16.0933C7.12826 16.0926 6.79066 16.0247 6.47582 15.8935L9.55282 8.50896C8.89764 8.23596 8.1951 8.09473 7.48533 8.09331L7.46932 16.0933ZM6.47582 15.8935C6.16098 15.7624 5.87507 15.5704 5.63443 15.3287L11.3037 9.68435C10.803 9.18136 10.208 8.78196 9.55282 8.50896L6.47582 15.8935ZM5.63443 15.3287C5.39379 15.087 5.20312 14.8003 5.07332 14.4849L12.4714 11.4404C12.2013 10.7841 11.8045 10.1873 11.3037 9.68435L5.63443 15.3287ZM5.07332 14.4849C4.94353 14.1694 4.87714 13.8316 4.87796 13.4905L12.8779 13.5097C12.8797 12.8 12.7415 12.0968 12.4714 11.4404L5.07332 14.4849ZM8.87795 9.50011H8.87739V17.5001H8.87795V9.50011Z" fill="#9A6EAB" mask="url(#path-2-inside-1_268_85)"/>
</g>
<g id="Vector_2">
<mask id="path-4-inside-2_268_85" fill="white">
<path d="M16.7119 7.46533H14.1508C13.9815 7.46533 13.8442 7.60258 13.8442 7.77189V19.2283C13.8442 19.3976 13.9815 19.5349 14.1508 19.5349H16.7119C16.8812 19.5349 17.0184 19.3976 17.0184 19.2283V7.77189C17.0184 7.60258 16.8812 7.46533 16.7119 7.46533Z"/>
</mask>
<path d="M14.1508 12.4653H16.7119V2.46533H14.1508V12.4653ZM16.7119 12.4653C14.1197 12.4653 12.0184 10.364 12.0184 7.77189H22.0184C22.0184 4.84116 19.6426 2.46533 16.7119 2.46533V12.4653ZM12.0184 7.77189V19.2283H22.0184V7.77189H12.0184ZM12.0184 19.2283C12.0184 16.6362 14.1197 14.5349 16.7119 14.5349V24.5349C19.6426 24.5349 22.0184 22.159 22.0184 19.2283H12.0184ZM16.7119 14.5349H14.1508V24.5349H16.7119V14.5349ZM14.1508 14.5349C16.7429 14.5349 18.8442 16.6362 18.8442 19.2283H8.84424C8.84424 22.159 11.22 24.5349 14.1508 24.5349V14.5349ZM18.8442 19.2283V7.77189H8.84424V19.2283H18.8442ZM18.8442 7.77189C18.8442 10.364 16.7429 12.4653 14.1508 12.4653V2.46533C11.2201 2.46533 8.84424 4.84116 8.84424 7.77189H18.8442Z" fill="#9A6EAB" mask="url(#path-4-inside-2_268_85)"/>
</g>
<g id="Vector_3">
<mask id="path-6-inside-3_268_85" fill="white">
<path d="M18.439 10.4692V12.4841L19.4503 13.4994L18.439 14.5159V16.5307H20.4437L21.454 15.5143L22.4653 16.5307H24.469V14.5159L23.4587 13.4994L24.469 12.4841V10.4692H22.4653L21.454 11.4857L20.4437 10.4692H18.439Z"/>
</mask>
<path d="M18.439 10.4692V3.46924C14.573 3.46924 11.439 6.60325 11.439 10.4692L18.439 10.4692ZM18.439 12.4841H11.439C11.439 14.3359 12.1727 16.1123 13.4796 17.4242L18.439 12.4841ZM19.4503 13.4994L24.4124 18.4368C27.1307 15.7049 27.1295 11.2897 24.4097 8.5593L19.4503 13.4994ZM18.439 14.5159L13.4769 9.57849C12.1717 10.8902 11.439 12.6654 11.439 14.5159H18.439ZM18.439 16.5307H11.439C11.439 20.3967 14.573 23.5307 18.439 23.5307V16.5307ZM20.4437 16.5307V23.5307C22.3076 23.5307 24.0946 22.7874 25.4086 21.4653L20.4437 16.5307ZM21.454 15.5143L26.4161 10.5769C25.1018 9.25613 23.3153 8.51378 21.452 8.5143C19.5888 8.51482 17.8026 9.25816 16.4891 10.5797L21.454 15.5143ZM22.4653 16.5307L17.5033 21.4681C18.817 22.7884 20.6028 23.5307 22.4653 23.5307V16.5307ZM24.469 16.5307V23.5307C28.335 23.5307 31.469 20.3967 31.469 16.5307H24.469ZM24.469 14.5159H31.469C31.469 12.6668 30.7373 10.8928 29.4338 9.58125L24.469 14.5159ZM23.4587 13.4994L18.4966 8.56206C15.7805 11.2918 15.7793 15.7028 18.4939 18.434L23.4587 13.4994ZM24.469 12.4841L29.4311 17.4215C30.7363 16.1097 31.469 14.3346 31.469 12.4841H24.469ZM24.469 10.4692H31.469C31.469 6.60325 28.335 3.46924 24.469 3.46924V10.4692ZM22.4653 10.4692V3.46924C20.6028 3.46924 18.817 4.21154 17.5033 5.53186L22.4653 10.4692ZM21.454 11.4857L16.4891 16.4203C17.8026 17.7418 19.5888 18.4852 21.452 18.4857C23.3153 18.4862 25.1018 17.7439 26.4161 16.4231L21.454 11.4857ZM20.4437 10.4692L25.4086 5.53463C24.0946 4.21262 22.3076 3.46924 20.4437 3.46924V10.4692ZM11.439 10.4692V12.4841H25.439V10.4692H11.439ZM13.4796 17.4242L14.491 18.4395L24.4097 8.5593L23.3983 7.54399L13.4796 17.4242ZM14.4883 8.56205L13.4769 9.57849L23.4011 19.4532L24.4124 18.4368L14.4883 8.56205ZM11.439 14.5159V16.5307H25.439V14.5159H11.439ZM18.439 23.5307H20.4437V9.53074H18.439V23.5307ZM25.4086 21.4653L26.4188 20.4489L16.4891 10.5797L15.4789 11.5961L25.4086 21.4653ZM16.4919 20.4517L17.5033 21.4681L27.4274 11.5934L26.4161 10.5769L16.4919 20.4517ZM22.4653 23.5307H24.469V9.53074H22.4653V23.5307ZM31.469 16.5307V14.5159H17.469V16.5307H31.469ZM29.4338 9.58125L28.4235 8.56481L18.4939 18.434L19.5041 19.4505L29.4338 9.58125ZM28.4208 18.4368L29.4311 17.4215L19.5069 7.54675L18.4966 8.56206L28.4208 18.4368ZM31.469 12.4841V10.4692H17.469V12.4841H31.469ZM24.469 3.46924H22.4653V17.4692H24.469V3.46924ZM17.5033 5.53186L16.4919 6.5483L26.4161 16.4231L27.4274 15.4066L17.5033 5.53186ZM26.4188 6.55107L25.4086 5.53463L15.4789 15.4038L16.4891 16.4203L26.4188 6.55107ZM20.4437 3.46924H18.439V17.4692H20.4437V3.46924Z" fill="#9A6EAB" mask="url(#path-6-inside-3_268_85)"/>
</g>
<ellipse id="Ellipse 3" cx="7.53511" cy="13.8139" rx="1.25581" ry="1.25581" fill="white"/>
</g>
</svg>
