<svg width="27" height="27" viewBox="0 0 27 27" fill="none" xmlns="http://www.w3.org/2000/svg">
<g id="uiw:facebook">
<g clip-path="url(#clip0_268_83)">
<path id="Vector" fill-rule="evenodd" clip-rule="evenodd" d="M25.5096 0H1.4904C0.6669 0 0 0.64467 0 1.44072V24.6593C0 25.4553 0.6669 26.1 1.4904 26.1H14.4207V15.9928H10.9026V12.0543H14.4207V9.14805C14.4207 5.77593 16.551 3.9411 19.6628 3.9411C21.1532 3.9411 22.4329 4.04811 22.8069 4.0964V7.6199H20.6496C18.9567 7.6199 18.63 8.39768 18.63 9.53825V12.053H22.6651L22.1387 15.9915H18.6287V26.1H25.5096C26.3331 26.1 27 25.4553 27 24.6593V1.44072C27 0.64467 26.3331 0 25.5096 0Z" fill="white"/>
</g>
</g>
<defs>
<clipPath id="clip0_268_83">
<rect width="27" height="26.1" rx="9" fill="white"/>
</clipPath>
</defs>
</svg>
