<svg width="27" height="27" viewBox="0 0 27 27" fill="none" xmlns="http://www.w3.org/2000/svg">
<path id="Vector" d="M13.3463 8.69815C10.95 8.69815 8.99453 10.6537 8.99453 13.05C8.99453 15.4463 10.95 17.4019 13.3463 17.4019C15.7425 17.4019 17.6981 15.4463 17.6981 13.05C17.6981 10.6537 15.7425 8.69815 13.3463 8.69815ZM26.3983 13.05C26.3983 11.2479 26.4147 9.46209 26.3135 7.66324C26.2123 5.57382 25.7356 3.71947 24.2078 2.19159C22.6767 0.660441 20.8256 0.187059 18.7362 0.0858534C16.9341 -0.0153525 15.1484 0.000971068 13.3496 0.000971068C11.5475 0.000971068 9.76172 -0.0153525 7.9629 0.0858534C5.87353 0.187059 4.01921 0.663706 2.49135 2.19159C0.960234 3.72274 0.48686 5.57382 0.385656 7.66324C0.284452 9.46535 0.300776 11.2511 0.300776 13.05C0.300776 14.8489 0.284452 16.6379 0.385656 18.4368C0.48686 20.5262 0.963499 22.3805 2.49135 23.9084C4.02247 25.4396 5.87353 25.9129 7.9629 26.0141C9.76498 26.1154 11.5507 26.099 13.3496 26.099C15.1516 26.099 16.9374 26.1154 18.7362 26.0141C20.8256 25.9129 22.6799 25.4363 24.2078 23.9084C25.7389 22.3773 26.2123 20.5262 26.3135 18.4368C26.4179 16.6379 26.3983 14.8521 26.3983 13.05ZM13.3463 19.7459C9.64093 19.7459 6.65051 16.7554 6.65051 13.05C6.65051 9.34456 9.64093 6.35409 13.3463 6.35409C17.0517 6.35409 20.0421 9.34456 20.0421 13.05C20.0421 16.7554 17.0517 19.7459 13.3463 19.7459ZM20.3163 7.64365C19.4512 7.64365 18.7526 6.945 18.7526 6.07985C18.7526 5.21471 19.4512 4.51606 20.3163 4.51606C21.1814 4.51606 21.8801 5.21471 21.8801 6.07985C21.8803 6.28529 21.8401 6.48875 21.7616 6.6786C21.6831 6.86844 21.5679 7.04093 21.4226 7.1862C21.2774 7.33146 21.1049 7.44664 20.915 7.52514C20.7252 7.60363 20.5217 7.6439 20.3163 7.64365Z" fill="white"/>
</svg>
