<svg width="30" height="30" viewBox="0 0 30 30" fill="none" xmlns="http://www.w3.org/2000/svg">
<path d="M27.5 27.5H2.5V25H27.5V27.5ZM27.5 7.5H2.5V3.75H27.5V7.5ZM25 8.75V23.75H21.25V13.75C21.25 13.75 18.125 12.5 15 12.5C11.875 12.5 8.75 13.75 8.75 13.75V23.75H5V8.75H25ZM18.125 18.3375H18.0875L18.5125 19.025L18.5875 19.175C19.1125 20.4375 18.75 21.875 17.7625 22.8C16.875 23.625 15.625 23.8375 14.475 23.6875C13.3875 23.55 12.375 22.8625 11.8125 21.9125C11.625 21.625 11.4875 21.2875 11.4125 20.9625L11.25 20.1375C11.2 18.9375 11.675 17.675 12.575 16.925C12.1625 17.825 12.2625 18.95 12.875 19.7375L12.95 19.8375C13.05 19.925 13.1875 19.9625 13.3 19.9C13.4125 19.8625 13.5 19.75 13.5 19.625L13.45 19.45C12.7875 17.7125 13.35 15.6875 14.7375 14.5375C15.125 14.225 15.625 13.9375 16.0875 13.8125C15.575 14.8375 15.7625 16.1625 16.5625 16.9625L17.675 17.875L18.125 18.3375ZM16.3875 21.8C16.7125 21.5 16.9125 21 16.875 20.55V20.3125C16.725 19.5625 16.0625 19.325 15.625 18.75L15.325 18.1875C15.1625 18.5625 15.15 18.9125 15.2125 19.325C15.2875 19.75 15.4625 20.1125 15.3625 20.55C15.25 21.0375 14.875 21.525 14.2125 21.6875C14.5875 22.05 15.1875 22.3375 15.8 22.1375L16.3875 21.8Z" fill="white"/>
</svg>
