<?xml version="1.0" encoding="utf-8"?>
<!-- Generator: Adobe Illustrator 22.0.1, SVG Export Plug-In . SVG Version: 6.00 Build 0)  -->
<svg version="1.1" id="Слой_1" xmlns="http://www.w3.org/2000/svg" xmlns:xlink="http://www.w3.org/1999/xlink" x="0px" y="0px"
	 viewBox="0 0 1656.2 504.1" style="enable-background:new 0 0 1656.2 504.1;" xml:space="preserve">
<style type="text/css">
	.st0{fill:#2A2C30;}
	.st1{fill:#FFFFFF;}
	.st2{fill:url(#SVGID_1_);}
</style>
<rect y="0" class="st0" width="1656.2" height="504.1"/>
<g>
	<path class="st1" d="M1595.4,370.5l-7.2,0.1l-23.7,63.3h9l6-17.3h23.7l5.9,17.3h8.8L1595.4,370.5z M1582,409.9l9.7-27.7l9.5,27.7
		H1582z"/>
	<path class="st1" d="M1098.9,370.6l-23.7,63.3h9l6-17.3h23.7l5.9,17.3h8.8l-22.7-63.5L1098.9,370.6z M1092.6,409.9l9.7-27.7
		l9.5,27.7H1092.6z"/>
	<polygon class="st1" points="1521.8,422.8 1510.2,390 1516.3,370.7 1508.3,370.7 1493,422 1475,370.7 1467.3,370.7 1489.5,433.9 
		1496.5,433.9 1506.7,401.3 1518.3,433.9 1525.3,433.9 1545.5,370.7 1538,370.7 	"/>
	<polygon class="st1" points="896,422.8 884.5,390 890.5,370.7 882.5,370.7 867.3,422 849.3,370.7 841.5,370.7 863.8,433.9 
		870.8,433.9 881,401.3 892.5,433.9 899.5,433.9 919.8,370.7 912.3,370.7 	"/>
	<rect x="1427.5" y="370.6" class="st1" width="6.8" height="63.3"/>
	<rect x="1035.9" y="370.6" class="st1" width="6.8" height="63.3"/>
	<polygon class="st1" points="993,421.7 959.1,370.6 952.3,370.6 952.3,433.9 959.1,433.9 959.1,382.5 993,433.9 999.7,433.9 
		999.7,370.6 993,370.6 	"/>
	<path class="st1" d="M1361.2,424v-53.5h-6.8V424c-0.8,11,9.3,9.9,9.3,9.9h29.5v-6.6h-29.5C1361.2,427.3,1361.2,424,1361.2,424z"/>
	<path class="st1" d="M705.1,424v-53.5h-6.8V424c-0.8,11,9.3,9.9,9.3,9.9h29.5v-6.6h-29.5C705.1,427.3,705.1,424,705.1,424z"/>
	<path class="st1" d="M1281.4,378.4v47.5c0,0-0.3,8.2,7.8,8l31-0.9v-5.1h-31c0,0-1,0-1-2v-20l28.3-0.7v-5.3l-28.3-0.7v-20.8
		c0,0,0-1.3,1.4-1.3h30.6v-5.6l-30.6-0.9C1289.5,370.7,1281.4,370.2,1281.4,378.4z"/>
	<path class="st1" d="M770.8,378.4v47.5c0,0-0.3,8.2,7.8,8l31-0.9v-5.1h-31c0,0-1,0-1-2v-20l28.3-0.7v-5.3l-28.3-0.7v-20.8
		c0,0,0-1.3,1.4-1.3h30.6v-5.6l-30.6-0.9C778.9,370.7,770.8,370.2,770.8,378.4z"/>
	<polygon class="st1" points="1204.2,377 1238.3,377 1203.5,427.7 1203.5,433.9 1246.9,433.9 1246.9,427.7 1212.8,427.7 1246.9,377 
		1246.9,370.7 1204.2,370.7 	"/>
	<rect x="1221.3" y="356" class="st1" width="8.4" height="8.4"/>
	<path class="st1" d="M645.3,370.7h-21.7H622h-5.7v63.2h5.7l0,0h23.3c1.9,0,18-3.3,18-31.9C663.2,373,649.7,370.7,645.3,370.7z
		 M644.6,427.1c-0.2,0-0.4,0.1-0.6,0.1h-20.3v-49.9h21.7c3.1,0.7,11.1,3.4,11.1,25.1C656.5,417.6,650.7,426,644.6,427.1z"/>
	<path class="st1" d="M581.4,398.9c0-0.9,0-3.3-0.1-7.5c-0.3-11.7-5.3-21-16.5-21.3c-4.4-0.1-6.8-0.1-7.9-0.1c-1.1,0-3.5,0-7.9,0.1
		c-11.2,0.3-16.2,9.6-16.5,21.3c-0.1,3.2-0.1,5.3-0.1,6.5l0,0c0,0,0,0.4,0,1.1c0,0.2,0,0.3,0,0.3l0,0c0,2.9,0,9.3,0.1,13.6
		c0.3,11.7,5.3,21,16.5,21.3c4.4,0.1,6.8,0.1,7.9,0.1c1.1,0,3.5,0,7.9-0.1c11.2-0.3,16.2-9.6,16.5-21.3c0.1-4.9,0.1-11.8,0.1-13.6
		l0,0c0,0,0,0,0-0.1C581.4,399,581.4,398.9,581.4,398.9L581.4,398.9z M574.4,413c-0.2,5.8-2.8,14.2-9.6,14.3
		c-4.4,0.1-11.4,0.1-15.8,0c-6.9-0.1-9.5-8.4-9.6-14.3c-0.1-3.1-0.1-18.5,0-21.7c0.2-5.8,2.8-14.2,9.6-14.3c4.4-0.1,11.4-0.1,15.8,0
		c6.9,0.1,9.5,8.4,9.6,14.3C574.5,394.8,574.5,409.6,574.4,413z"/>
</g>
<g>
	<polygon class="st1" points="1472.8,100 1472.8,140 1522.8,140 1522.8,297 1565.5,297 1565.5,140 1617,140 1617,100 	"/>
	<path class="st1" d="M1377.5,100.1h-0.5l0,0c-16.2-0.4-28.9,0.5-37.2,5.2c-21.6,12.4-18.6,45.5-18.6,45.5V247c0,0-3,34,18.6,45.5
		c8.4,4.5,21,5.6,37.2,5.2c2-0.1,4-0.1,5.7-0.3l69.3-3.3v-38h-75c0,0-9.8,0.8-11.8-9.2V220l74-2.2v-37.1l-74-2.1v-27.9
		c2-10,11.8-9.2,11.8-9.2l0,0h75v-38l-69.6-3.3C1380.9,100.2,1379.2,100.1,1377.5,100.1z"/>
	<polygon class="st1" points="1269.1,100 1244.9,100 1226.3,100 1202.4,214.9 1178.6,100 1162,100 1135.7,100 1119.1,100 
		1099.6,297.2 1142.4,297.2 1153.5,185.6 1176.7,297.2 1185.3,297.2 1219.5,297.2 1228.2,297.2 1252.7,179.2 1264.4,297.2 
		1307.3,297.2 1287.7,100 	"/>
	<polygon class="st1" points="1018.5,241.3 990,147.7 1000.6,100 955.6,100 926.2,239.7 887.7,100 842.6,100 900.6,297.2 
		914.1,297.2 942,297.2 956.9,297.2 971.9,229.4 993,297.2 1006.7,297.2 1035.6,297.2 1043.2,297.2 1093.2,100 1048.3,100 	"/>
	<path class="st1" d="M793.2,100H762h-9.2l-63.5,197.2h46.8l11.6-40.2h58l11.2,40.2h46.8L802.4,100H793.2z M758.7,219l19.3-63.2
		l17.2,63.2H758.7z"/>
	<polygon class="st1" points="630.5,100.1 586.7,179.7 573.3,179.7 573.3,100.1 532.6,100.1 532.6,297 573.3,297 573.3,218.4 
		586.1,218.4 630,297 680.7,297 624.6,198.2 680.7,100.1 	"/>
</g>
<path class="st1" d="M113.3,313.8c-9.6-19.8-15-41.9-15-65.4c0-82.9,67.2-150,150-150s150,67.2,150,150c0,23.1-5.2,44.9-14.5,64.4
	l63,40.4c16.6-31.3,26-67,26-104.9c0-124-100.5-224.5-224.5-224.5S23.9,124.4,23.9,248.4c0,38.4,9.7,74.6,26.7,106.2L113.3,313.8z"
	/>
<linearGradient id="SVGID_1_" gradientUnits="userSpaceOnUse" x1="66.8" y1="105.09" x2="430.5" y2="105.09" gradientTransform="matrix(1 0 0 -1 0 506.39)">
	<stop  offset="0" style="stop-color:#FEAB4B"/>
	<stop  offset="1" style="stop-color:#F65332"/>
</linearGradient>
<path class="st2" d="M356.2,329.8c-24.7,32.6-63.7,53.6-107.8,53.6c-43.3,0-81.9-20.4-106.6-52.1l-75,49.1
	c40.8,56,106.9,92.4,181.6,92.4c75,0,141.4-36.8,182.1-93.2L356.2,329.8z"/>
<polygon class="st1" points="291.7,176.3 250.5,176.3 207.5,249.7 207.4,249.7 207.4,249.7 207.4,249.7 207.5,249.7 250.5,323.1 
	291.7,323.1 248.7,249.7 "/>
</svg>
