<svg width="697" height="30" viewBox="0 0 697 30" fill="none" xmlns="http://www.w3.org/2000/svg">
<path d="M11.5312 30L0 0H9.39583L20.5 30H11.5312Z" fill="#CACACA"/>
<path d="M35.0312 30L23.5 0H32.8958L44 30H35.0312Z" fill="#CACACA"/>
<path d="M58.5312 30L47 0H56.3958L67.5 30H58.5312Z" fill="#CACACA"/>
<path d="M82.0312 30L70.5 0H79.8958L91 30H82.0312Z" fill="#CACACA"/>
<path d="M105.531 30L94 0H103.396L114.5 30H105.531Z" fill="#CACACA"/>
<path d="M129.031 30L117.5 0H126.896L138 30H129.031Z" fill="#CACACA"/>
<path d="M152.531 30L141 0H150.396L161.5 30H152.531Z" fill="#CACACA"/>
<path d="M176.031 30L164.5 0H173.896L185 30H176.031Z" fill="#CACACA"/>
<path d="M199.531 30L188 0H197.396L208.5 30H199.531Z" fill="#CACACA"/>
<path d="M223.031 30L211.5 0H220.896L232 30H223.031Z" fill="#CACACA"/>
<path d="M246.531 30L235 0H244.396L255.5 30H246.531Z" fill="#CACACA"/>
<path d="M270.031 30L258.5 0H267.896L279 30H270.031Z" fill="#CACACA"/>
<path d="M293.531 30L282 0H291.396L302.5 30H293.531Z" fill="#CACACA"/>
<path d="M317.031 30L305.5 0H314.896L326 30H317.031Z" fill="#CACACA"/>
<path d="M340.531 30L329 0H338.396L349.5 30H340.531Z" fill="#CACACA"/>
<path d="M364.031 30L352.5 0H361.896L373 30H364.031Z" fill="#CACACA"/>
<path d="M387.531 30L376 0H385.396L396.5 30H387.531Z" fill="#CACACA"/>
<path d="M411.031 30L399.5 0H408.896L420 30H411.031Z" fill="#CACACA"/>
<path d="M434.531 30L423 0H432.396L443.5 30H434.531Z" fill="#CACACA"/>
<path d="M457.531 30L446 0H455.396L466.5 30H457.531Z" fill="#CACACA"/>
<path d="M480.531 30L469 0H478.396L489.5 30H480.531Z" fill="#CACACA"/>
<path d="M503.531 30L492 0H501.396L512.5 30H503.531Z" fill="#CACACA"/>
<path d="M526.531 30L515 0H524.396L535.5 30H526.531Z" fill="#CACACA"/>
<path d="M549.531 30L538 0H547.396L558.5 30H549.531Z" fill="#CACACA"/>
<path d="M572.531 30L561 0H570.396L581.5 30H572.531Z" fill="#CACACA"/>
<path d="M595.531 30L584 0H593.396L604.5 30H595.531Z" fill="#CACACA"/>
<path d="M618.531 30L607 0H616.396L627.5 30H618.531Z" fill="#CACACA"/>
<path d="M641.531 30L630 0H639.396L650.5 30H641.531Z" fill="#CACACA"/>
<path d="M664.531 30L653 0H662.396L673.5 30H664.531Z" fill="#CACACA"/>
<path d="M687.531 30L676 0H685.396L696.5 30H687.531Z" fill="#CACACA"/>
</svg>
