<svg width="311" height="80" viewBox="0 0 311 80" fill="none" xmlns="http://www.w3.org/2000/svg">
<path d="M7.58016 23.669V78.9123H0V23.669H7.58016ZM42.1033 23.669L18.3416 49.4315L4.98798 62.825L3.73117 55.009L13.7857 44.3094L32.9914 23.669H42.1033ZM34.7981 78.9123L13.6286 51.9736L18.1453 46.1685L43.8314 78.9123H34.7981Z" fill="black"/>
<path d="M75.6995 28.5635L56.7688 78.9123H49.0315L70.8294 23.669H75.8174L75.6995 28.5635ZM91.5668 78.9123L72.5968 28.5635L72.4789 23.669H77.4669L99.3434 78.9123H91.5668ZM90.5849 58.4617V64.4565H58.4576V58.4617H90.5849Z" fill="black"/>
<path d="M113.42 23.669H120.764L139.499 68.706L158.194 23.669H165.577L142.326 78.9123H136.592L113.42 23.669ZM111.024 23.669H117.504L118.565 57.3614V78.9123H111.024V23.669ZM161.454 23.669H167.934V78.9123H160.393V57.3614L161.454 23.669Z" fill="black"/>
<path d="M193.4 23.669V78.9123H185.82V23.669H193.4Z" fill="black"/>
<path d="M255.196 23.669V78.9123H247.577L218.788 36.3037V78.9123H211.208V23.669H218.788L247.695 66.3915V23.669H255.196Z" fill="black"/>
<path d="M303.128 64.9497C303.128 63.6597 302.919 62.5215 302.5 61.535C302.107 60.5232 301.4 59.6126 300.379 58.8032C299.384 57.9937 297.996 57.2223 296.216 56.4887C294.461 55.7552 292.236 55.009 289.539 54.2501C286.711 53.4407 284.158 52.5428 281.88 51.5563C279.602 50.5445 277.651 49.3936 276.028 48.1036C274.405 46.8135 273.161 45.3338 272.297 43.6644C271.433 41.9949 271.001 40.0852 271.001 37.9352C271.001 35.7851 271.459 33.7995 272.375 31.9783C273.292 30.1571 274.601 28.5762 276.303 27.2356C278.031 25.8697 280.086 24.8073 282.469 24.0484C284.852 23.2896 287.509 22.9102 290.442 22.9102C294.736 22.9102 298.376 23.707 301.361 25.3005C304.372 26.8688 306.663 28.9303 308.234 31.485C309.805 34.0145 310.59 36.721 310.59 39.6046H303.049C303.049 37.5304 302.591 35.6966 301.675 34.103C300.758 32.4842 299.371 31.2194 297.512 30.3088C295.653 29.3729 293.296 28.905 290.442 28.905C287.745 28.905 285.52 29.2971 283.765 30.0812C282.011 30.8653 280.702 31.9277 279.838 33.2683C279 34.6089 278.581 36.1392 278.581 37.8593C278.581 39.0228 278.83 40.0852 279.327 41.0464C279.851 41.9823 280.649 42.8549 281.723 43.6644C282.823 44.4738 284.21 45.22 285.886 45.9029C287.588 46.5859 289.617 47.2436 291.974 47.8759C295.221 48.7612 298.022 49.7477 300.379 50.8354C302.735 51.923 304.673 53.1498 306.191 54.5157C307.736 55.8563 308.875 57.3867 309.608 59.1067C310.368 60.8014 310.747 62.7238 310.747 64.8739C310.747 67.1251 310.276 69.1613 309.334 70.9825C308.391 72.8037 307.042 74.3593 305.288 75.6493C303.534 76.9394 301.426 77.9385 298.965 78.6468C296.53 79.3297 293.807 79.6712 290.796 79.6712C288.151 79.6712 285.546 79.3171 282.98 78.6088C280.44 77.9006 278.123 76.8382 276.028 75.4217C273.959 74.0052 272.297 72.2599 271.04 70.1857C269.809 68.0863 269.194 65.658 269.194 62.9009H276.735C276.735 64.798 277.115 66.4295 277.874 67.7954C278.633 69.136 279.667 70.249 280.977 71.1343C282.312 72.0196 283.818 72.6772 285.493 73.1072C287.195 73.512 288.963 73.7143 290.796 73.7143C293.44 73.7143 295.679 73.3602 297.512 72.6519C299.344 71.9437 300.732 70.9319 301.675 69.6166C302.644 68.3013 303.128 66.7457 303.128 64.9497Z" fill="black"/>
<path d="M192.178 21.9726L186.065 20.5993L187.352 17.6239C187.459 17.3187 187.554 17.0227 187.635 16.7358C187.715 16.4505 187.754 16.1361 187.754 15.7928C187.754 15.1443 187.647 14.5431 187.432 13.9892C187.218 13.4369 186.869 12.8937 186.387 12.3596C185.529 11.4822 184.872 10.5377 184.418 9.52604C183.961 8.51591 183.732 7.45772 183.732 6.35146C183.732 5.77926 183.786 5.20705 183.893 4.63485C184.001 4.06265 184.188 3.50952 184.456 2.97546L185.743 0L191.856 1.37329L190.569 4.34875C190.409 4.69207 190.301 5.04455 190.248 5.40618C190.194 5.76934 190.167 6.08443 190.167 6.35146C190.167 7.07625 190.289 7.69652 190.531 8.21227C190.771 8.72649 191.106 9.1934 191.535 9.61302C192.446 10.5285 193.117 11.5112 193.546 12.561C193.975 13.6093 194.189 14.6866 194.189 15.7928C194.189 16.3269 194.135 16.8609 194.028 17.395C193.921 17.929 193.733 18.4631 193.465 18.9972L192.178 21.9726Z" fill="#E15B19"/>
<path d="M73.9342 29.9585L86.1247 62.0118H61.7438L73.9342 29.9585Z" fill="black"/>
<path d="M76.0427 59.5835L75.2434 58.4616C75.6792 57.9107 75.8785 57.2187 75.7999 56.5295C75.7212 55.8403 75.3707 55.2069 74.8211 54.7609C73.8972 54.015 73.2641 52.9872 73.0263 51.847C70.6736 55.096 71.8952 56.8881 73.0263 58.4762L72.1968 59.5835C70.6217 59.2967 69.2072 58.469 68.2147 57.2531C67.2222 56.0372 66.7188 54.5154 66.7976 52.9688C66.7976 52.9688 66.4808 49.8218 70.2362 46.7476C70.2362 46.7476 74.4893 42.9449 73.0113 40.1329L74.0821 39.1859C75.7157 40.2925 76.9655 41.8498 77.6678 43.6539C78.3702 45.458 78.4924 47.4249 78.0184 49.2973C78.376 48.9602 78.6628 48.5594 78.863 48.1171L80.1751 48.0151C80.2807 48.19 82.9501 52.284 81.5174 55.7371C81.0071 56.7668 80.2394 57.6576 79.2836 58.3292C78.3278 59.0007 77.214 59.4317 76.0427 59.5835ZM73.0263 49.4575L74.3385 50.0257C74.2685 50.6904 74.3572 51.3617 74.5977 51.9881C74.8383 52.6145 75.2242 53.1792 75.726 53.639C76.3724 54.094 76.8621 54.7265 77.1311 55.4542C77.4001 56.1818 77.436 56.9709 77.2342 57.7185C77.8575 57.5076 78.4301 57.1767 78.9175 56.746C79.4048 56.3153 79.7967 55.7937 80.0695 55.2125C80.5816 53.4389 80.3599 51.5424 79.4512 49.9238C79.1655 50.3713 78.7506 50.7284 78.2576 50.951C77.7645 51.1737 77.2148 51.2521 76.6761 51.1768L76.1483 50.186C76.8089 48.8059 77.0339 47.2684 76.7952 45.7654C76.5564 44.2625 75.8646 42.8609 74.806 41.7356C74.5948 44.8244 71.3221 47.68 71.2165 47.8403C68.0946 50.4046 68.3057 52.7794 68.3057 52.8814C68.2468 53.7813 68.4381 54.6799 68.8598 55.4843C69.2814 56.2887 69.9181 56.9696 70.7037 57.4563C69.8139 55.4165 69.8139 52.9688 73.0716 49.4575H73.0263Z" fill="#E15B19"/>
<circle cx="75.6293" cy="48.1489" r="2.60785" fill="#E15B19"/>
<circle cx="73.0214" cy="48.1489" r="2.60785" fill="#E15B19"/>
<path d="M73.0215 48.1489L74.3254 42.9332L75.6293 45.541V48.1489H73.0215Z" stroke="#E15B19"/>
<path d="M75.9962 50.7567C75.9962 50.8909 76.1241 51.2884 76.2633 51.368C76.7935 51.6709 75.0244 51.0482 74.5927 50.6164C74.5086 50.5323 74.4292 50.4588 74.4523 50.6436C74.5215 51.1968 74.8838 51.789 75.1405 52.2735C75.4652 52.8863 75.7808 53.4372 76.4354 53.7223C76.7882 53.8759 77.0395 54.1358 77.359 54.3403C77.4182 54.3782 77.6294 54.5335 77.7076 54.4467C77.9501 54.1772 77.8298 53.4666 77.8298 53.145C77.8298 52.8837 77.9209 52.4331 77.8208 52.1829C77.7889 52.1033 77.7787 52.0268 77.7913 51.9384C77.8288 51.6759 78.4173 51.4718 78.6154 51.3431C78.8907 51.1641 79.1145 51.0437 79.1338 50.716C79.1377 50.6486 79.2687 50.6752 79.3171 50.6752C79.4964 50.6752 79.5624 51.0277 79.591 51.1506C79.7625 51.8873 79.8649 52.6516 79.702 53.385C79.6822 53.474 79.6211 53.537 79.591 53.6181C79.5258 53.7941 79.4998 53.9679 79.419 54.1411C79.0847 54.8574 78.6553 55.5227 78.1151 56.0947C78.0228 56.1924 77.9975 56.3333 77.9204 56.4297C77.8683 56.4948 77.7874 56.6277 77.7483 56.7059" stroke="#E15B19" stroke-linecap="round"/>
<path d="M71.5545 48.1896C71.3575 48.1896 71.2399 48.4057 71.138 48.5518C70.9252 48.8568 70.7762 49.1928 70.5811 49.5071C70.4387 49.7366 70.24 50.037 70.2098 50.3085C70.2064 50.3398 70.1193 50.4968 70.2189 50.4625C70.5123 50.3613 70.8032 50.2311 71.0995 50.1274C71.2382 50.0789 71.2284 50.128 71.1652 50.2315C71.024 50.4625 70.8663 50.68 70.7396 50.9197C70.6923 51.0092 70.4953 51.3618 70.3728 51.368C70.2048 51.3764 70.0923 51.1872 69.9269 51.1665C69.7819 51.1484 69.5008 51.1217 69.3858 51.2367C69.2145 51.4079 69.2825 51.7576 69.1708 51.9588C68.9955 52.2742 69.686 52.18 69.8024 52.3255C69.894 52.44 69.8742 52.7508 69.7707 52.8439C69.604 52.9939 69.3283 52.8626 69.1323 52.9186C69.031 52.9476 69.1416 53.4072 69.1504 53.4868C69.1703 53.6655 69.3161 53.8304 69.3541 53.9826C69.4418 54.3334 69.5787 54.7576 69.5986 55.1167C69.6086 55.297 69.7623 55.4559 69.8001 55.6261C69.8634 55.9108 70.0386 56.1107 70.1283 56.3799" stroke="#E15B19" stroke-linecap="round"/>
<path d="M70.4571 49.0721C70.3581 49.3791 70.2041 49.6725 70.0464 49.9532C69.9574 50.1115 69.8587 50.3036 69.7289 50.4334C69.4999 50.6624 69.4017 50.9729 69.2516 51.25C69.103 51.5244 69.0635 51.8524 69.0115 52.1559C68.9468 52.5333 68.8836 52.9272 68.8686 53.3109C68.8572 53.6021 68.9526 53.8214 69.068 54.0908C69.1974 54.3926 69.2411 54.7461 69.2774 55.073C69.2862 55.1521 69.2946 55.4481 69.4123 55.4481C69.4717 55.4481 69.5787 54.8292 69.5999 54.7506C69.6425 54.5922 69.6556 54.4275 69.6991 54.2694C69.7452 54.1016 69.7888 53.9426 69.8142 53.7693C69.8771 53.339 69.9035 52.9189 69.9035 52.4834C69.9035 52.2444 69.8796 51.9908 69.9253 51.7551C69.9458 51.6493 69.9651 51.4966 70.0325 51.4068C70.1875 51.2001 70.3614 51.0145 70.5544 50.8422C70.7138 50.7 70.8637 50.5383 71.0366 50.4126C71.1143 50.3561 71.1947 50.3046 71.2688 50.2439C71.3553 50.1732 71.1668 50.4553 71.1537 50.4791C71.0123 50.7363 70.91 51.011 70.7687 51.2679C70.7055 51.3828 70.6239 51.5009 70.5822 51.6261" stroke="#E15B19" stroke-width="2" stroke-linecap="round"/>
<path d="M69.8677 56.859C69.876 56.9342 69.9479 56.9481 69.9748 57.0019" stroke="#E15B19" stroke-width="2" stroke-linecap="round"/>
<path d="M74.5112 46.3931C74.5223 46.3433 74.6372 46.2964 74.672 46.2602C74.8326 46.0927 74.8426 45.8176 74.8684 45.6013C74.9226 45.1469 74.9581 44.691 75.0252 44.238C75.064 43.9757 75.1185 43.7275 75.1185 43.4621C75.1185 43.2528 75.1185 43.0434 75.1185 42.8341C75.1185 42.7937 75.1233 42.7525 75.1095 42.714C75.0915 42.6636 75.0827 42.6076 75.0827 42.5542C75.0827 42.4651 75.0717 42.4851 75.1304 42.5949C75.4437 43.1809 75.7691 43.7642 76.0611 44.3611C76.162 44.5674 76.2626 44.7858 76.3012 45.014C76.3186 45.1172 76.3496 45.2326 76.332 45.3384C76.3269 45.3686 76.3025 45.3424 76.2923 45.3305C76.1575 45.1733 76.0702 44.9344 75.9916 44.751C75.7923 44.2859 75.6366 43.8077 75.4925 43.3232C75.4184 43.0739 75.3431 42.8238 75.2296 42.589C75.1772 42.4805 75.0908 42.3072 74.9756 42.2496" stroke="#E15B19" stroke-width="2" stroke-linecap="round"/>
<path d="M79.798 50.4295C79.798 50.3688 79.7846 50.2799 79.7266 50.2509" stroke="#E15B19" stroke-width="2" stroke-linecap="round"/>
<path d="M77.0297 52.144C77.0485 52.2942 77.0655 51.8429 77.0655 51.6916C77.0655 51.5239 77.1328 51.5725 76.9613 51.5725C76.8267 51.5725 76.7017 51.5618 76.5693 51.5408C76.5504 51.5378 76.4803 51.5084 76.4622 51.5229C76.4426 51.5386 76.5662 51.5585 76.6011 51.5685C76.7845 51.6216 76.9683 51.6967 77.1488 51.762C77.3468 51.8336 77.4565 51.9975 77.6132 52.1272C77.7317 52.2252 77.8578 52.3221 77.9942 52.3941C78.1029 52.4515 78.1727 52.5385 78.3057 52.5508C78.6971 52.5871 79.1381 52.3915 79.3039 52.02C79.4292 51.7394 79.2876 51.5654 79.0241 51.4822C78.2595 51.2408 77.4751 51.1945 76.6785 51.1975C76.3639 51.1986 76.0489 51.2462 75.7438 51.3225C75.6181 51.3539 75.3851 51.3708 75.3072 51.4931C75.2161 51.6363 76.9169 52.5841 77.1032 52.6858C77.3597 52.8259 77.5976 52.9811 77.7967 53.1968C77.8724 53.2787 77.9308 53.3704 78.0021 53.4548C78.0362 53.4951 78.0865 53.5202 78.1232 53.5609C78.2807 53.736 78.3966 53.9562 78.4645 54.1811C78.5876 54.5886 78.5555 55.0982 78.4625 55.5116C78.4496 55.5689 78.4808 55.5499 78.4982 55.5077C78.5654 55.3447 78.56 55.1376 78.5399 54.9659C78.4924 54.5614 78.1223 54.1951 77.7372 54.0838C77.5559 54.0314 77.402 54.0292 77.3353 54.2366C77.2322 54.5574 77.2812 54.9039 77.5298 55.1306C77.7446 55.3265 78.0798 55.5467 78.1232 55.8589C78.1494 56.0478 78.1133 56.1921 78.0289 56.361C77.9016 56.6155 77.77 56.8656 77.6032 57.0972C77.5778 57.1326 77.5534 57.1814 77.6052 57.119C77.729 56.97 77.8424 56.8049 77.9446 56.6408C78.3172 56.042 78.5624 55.3929 78.8475 54.7516C78.982 54.4488 79.1008 54.1444 79.2176 53.8348C79.269 53.6985 79.3077 53.4569 79.4488 53.3764C79.503 53.3453 79.4939 53.2365 79.5123 53.3764C79.5652 53.779 79.6086 54.1925 79.5976 54.5988C79.5929 54.7696 79.5924 55.0181 79.4666 55.1544C79.419 55.206 79.3178 55.2267 79.2841 55.2874C79.2544 55.3408 79.217 55.3957 79.1908 55.4481" stroke="#E15B19" stroke-width="2" stroke-linecap="round"/>
</svg>
