<svg width="126" height="33" viewBox="0 0 126 33" fill="none" xmlns="http://www.w3.org/2000/svg">
<path d="M3.05714 10.0589V32.339H0V10.0589H3.05714ZM16.9806 10.0589L7.39732 20.4491L2.01169 25.8508L1.50481 22.6986L5.55987 18.3833L13.3057 10.0589H16.9806ZM14.0343 32.339L5.49651 21.4744L7.31812 19.1331L17.6775 32.339H14.0343Z" fill="white"/>
<path d="M30.5302 12.0329L22.8953 32.339H19.7748L28.566 10.0589H30.5777L30.5302 12.0329ZM36.9296 32.339L29.2788 12.0329L29.2313 10.0589H31.243L40.0659 32.339H36.9296ZM36.5336 24.0911V26.5088H23.5764V24.0911H36.5336Z" fill="white"/>
<path d="M45.743 10.0589H48.7051L56.2608 28.2227L63.8007 10.0589H66.7786L57.4013 32.339H55.0887L45.743 10.0589ZM44.7768 10.0589H47.3904L47.8181 23.6473V32.339H44.7768V10.0589ZM65.1154 10.0589H67.7291V32.339H64.6878V23.6473L65.1154 10.0589Z" fill="white"/>
<path d="M77.9998 10.0589V32.339H74.9426V10.0589H77.9998Z" fill="white"/>
<path d="M102.923 10.0589V32.339H99.8496L88.2388 15.1546V32.339H85.1817V10.0589H88.2388L99.8971 27.2892V10.0589H102.923Z" fill="white"/>
<path d="M122.254 26.7077C122.254 26.1875 122.169 25.7284 122 25.3305C121.842 24.9225 121.557 24.5552 121.145 24.2288C120.744 23.9023 120.184 23.5912 119.466 23.2953C118.758 22.9995 117.861 22.6986 116.773 22.3925C115.633 22.0661 114.603 21.7039 113.684 21.3061C112.766 20.898 111.979 20.4338 111.324 19.9136C110.669 19.3933 110.168 18.7965 109.819 18.1232C109.471 17.4499 109.297 16.6797 109.297 15.8126C109.297 14.9454 109.481 14.1446 109.851 13.4101C110.221 12.6756 110.749 12.038 111.435 11.4973C112.132 10.9464 112.961 10.518 113.922 10.2119C114.883 9.90589 115.955 9.75287 117.137 9.75287C118.869 9.75287 120.337 10.0742 121.541 10.7169C122.755 11.3494 123.679 12.1808 124.313 13.2112C124.947 14.2313 125.263 15.3229 125.263 16.4859H122.222C122.222 15.6493 122.037 14.9097 121.668 14.267C121.298 13.6141 120.738 13.1041 119.989 12.7368C119.239 12.3593 118.289 12.1706 117.137 12.1706C116.05 12.1706 115.152 12.3287 114.445 12.645C113.737 12.9612 113.209 13.3897 112.861 13.9304C112.523 14.4711 112.354 15.0882 112.354 15.7819C112.354 16.2512 112.454 16.6797 112.655 17.0673C112.866 17.4448 113.188 17.7967 113.621 18.1232C114.064 18.4496 114.624 18.7506 115.3 19.026C115.986 19.3015 116.805 19.5667 117.755 19.8217C119.065 20.1788 120.195 20.5766 121.145 21.0153C122.095 21.454 122.877 21.9487 123.489 22.4996C124.112 23.0403 124.572 23.6575 124.867 24.3512C125.174 25.0347 125.327 25.81 125.327 26.6771C125.327 27.5851 125.137 28.4063 124.757 29.1408C124.376 29.8753 123.833 30.5027 123.125 31.023C122.417 31.5432 121.567 31.9462 120.575 32.2318C119.593 32.5073 118.494 32.645 117.28 32.645C116.213 32.645 115.163 32.5022 114.128 32.2165C113.104 31.9309 112.169 31.5024 111.324 30.9312C110.49 30.3599 109.819 29.656 109.312 28.8194C108.816 27.9727 108.568 26.9934 108.568 25.8814H111.609C111.609 26.6465 111.762 27.3045 112.069 27.8554C112.375 28.3961 112.792 28.845 113.32 29.202C113.859 29.5591 114.466 29.8243 115.142 29.9977C115.828 30.1609 116.541 30.2426 117.28 30.2426C118.347 30.2426 119.249 30.0997 119.989 29.8141C120.728 29.5285 121.288 29.1204 121.668 28.5899C122.058 28.0594 122.254 27.432 122.254 26.7077Z" fill="white"/>
<path d="M77.4063 8.86038L74.9408 8.30661L75.4598 7.10677C75.5031 6.98371 75.5411 6.86434 75.574 6.74866C75.606 6.6336 75.622 6.50685 75.622 6.3684C75.622 6.1069 75.5788 5.86447 75.4923 5.64111C75.4058 5.41837 75.2652 5.19932 75.0705 4.98397C74.7245 4.63017 74.4598 4.24929 74.2764 3.84135C74.0921 3.43401 74 3.0073 74 2.56121C74 2.33047 74.0216 2.09973 74.0649 1.86899C74.1081 1.63825 74.1838 1.4152 74.292 1.19984L74.811 0L77.2765 0.553774L76.7574 1.75362C76.6926 1.89206 76.6493 2.0342 76.6277 2.18002C76.6061 2.32647 76.5952 2.45353 76.5952 2.56121C76.5952 2.85348 76.6441 3.1036 76.7419 3.31157C76.8388 3.51893 76.9737 3.70721 77.1467 3.87642C77.5144 4.2456 77.7847 4.64186 77.9577 5.06519C78.1308 5.4879 78.2173 5.92231 78.2173 6.3684C78.2173 6.58376 78.1956 6.79911 78.1524 7.01447C78.1091 7.22983 78.0334 7.44519 77.9253 7.66054L77.4063 8.86038Z" fill="white"/>
<path d="M29.8182 12.5955L34.7347 25.5228H24.9017L29.8182 12.5955Z" fill="white"/>
<path d="M30.6689 24.5434L30.3465 24.091C30.5223 23.8688 30.6027 23.5897 30.5709 23.3117C30.5392 23.0338 30.3978 22.7783 30.1762 22.5985C29.8036 22.2976 29.5483 21.8831 29.4524 21.4232C28.5035 22.7336 28.9962 23.4564 29.4524 24.0969L29.1178 24.5434C28.4825 24.4278 27.9121 24.094 27.5118 23.6036C27.1115 23.1132 26.9085 22.4994 26.9402 21.8757C26.9402 21.8757 26.8125 20.6065 28.3271 19.3666C28.3271 19.3666 30.0424 17.833 29.4463 16.6989L29.8781 16.317C30.537 16.7633 31.041 17.3913 31.3243 18.1189C31.6076 18.8465 31.6568 19.6398 31.4657 20.3949C31.6099 20.259 31.7256 20.0974 31.8063 19.919L32.3355 19.8778C32.3781 19.9484 33.4547 21.5995 32.8769 22.9922C32.671 23.4075 32.3614 23.7667 31.976 24.0376C31.5905 24.3084 31.1413 24.4822 30.6689 24.5434ZM29.4524 20.4596L29.9815 20.6887C29.9533 20.9568 29.9891 21.2275 30.0861 21.4802C30.1831 21.7328 30.3388 21.9606 30.5411 22.146C30.8019 22.3295 30.9993 22.5846 31.1078 22.8781C31.2163 23.1715 31.2308 23.4898 31.1494 23.7913C31.4008 23.7062 31.6318 23.5728 31.8283 23.3991C32.0248 23.2254 32.1829 23.015 32.2929 22.7806C32.4994 22.0653 32.41 21.3004 32.0435 20.6476C31.9283 20.8281 31.761 20.9721 31.5621 21.0619C31.3633 21.1517 31.1416 21.1834 30.9243 21.153L30.7115 20.7534C30.9779 20.1968 31.0686 19.5767 30.9724 18.9705C30.8761 18.3644 30.597 17.7991 30.1701 17.3453C30.0849 18.591 28.765 19.7427 28.7224 19.8073C27.4633 20.8415 27.5485 21.7993 27.5485 21.8404C27.5247 22.2034 27.6019 22.5658 27.7719 22.8902C27.942 23.2147 28.1988 23.4892 28.5156 23.6855C28.1568 22.8629 28.1568 21.8757 29.4706 20.4596H29.4524Z" fill="#E15B19" fill-opacity="0.55"/>
<ellipse cx="30.502" cy="19.9318" rx="1.05177" ry="1.05177" fill="#E15B19" fill-opacity="0.55"/>
<ellipse cx="29.4502" cy="19.9318" rx="1.05177" ry="1.05177" fill="#E15B19" fill-opacity="0.55"/>
<path d="M29.4502 19.9318L29.9761 17.8283L30.502 18.8801V19.9318H29.4502Z" stroke="#E15B19" stroke-opacity="0.55"/>
<path d="M30.6497 20.9836C30.6497 21.0377 30.7013 21.198 30.7574 21.2301C30.9712 21.3523 30.2578 21.1011 30.0836 20.927C30.0497 20.893 30.0177 20.8634 30.027 20.9379C30.0549 21.161 30.201 21.3999 30.3046 21.5953C30.4355 21.8424 30.5628 22.0646 30.8268 22.1796C30.9691 22.2416 31.0705 22.3464 31.1993 22.4288C31.2232 22.4441 31.3084 22.5067 31.3399 22.4717C31.4377 22.3631 31.3892 22.0765 31.3892 21.9468C31.3892 21.8414 31.4259 21.6597 31.3856 21.5587C31.3727 21.5266 31.3686 21.4958 31.3737 21.4601C31.3888 21.3543 31.6261 21.2719 31.706 21.22C31.817 21.1478 31.9073 21.0993 31.9151 20.9671C31.9167 20.9399 31.9695 20.9507 31.989 20.9507C32.0613 20.9507 32.088 21.0928 32.0995 21.1424C32.1687 21.4395 32.21 21.7478 32.1443 22.0435C32.1363 22.0794 32.1116 22.1049 32.0995 22.1376C32.0732 22.2086 32.0627 22.2786 32.0301 22.3485C31.8953 22.6374 31.7221 22.9057 31.5042 23.1364C31.467 23.1758 31.4568 23.2326 31.4257 23.2715C31.4047 23.2978 31.3721 23.3514 31.3563 23.3829" stroke="#E15B19" stroke-opacity="0.55" stroke-linecap="round"/>
<path d="M28.8588 19.9482C28.7793 19.9482 28.7319 20.0354 28.6908 20.0943C28.605 20.2173 28.5449 20.3528 28.4662 20.4796C28.4087 20.5721 28.3286 20.6933 28.3165 20.8028C28.3151 20.8154 28.2799 20.8787 28.3201 20.8649C28.4384 20.8241 28.5558 20.7716 28.6753 20.7298C28.7312 20.7102 28.7272 20.73 28.7017 20.7718C28.6448 20.8649 28.5812 20.9526 28.5301 21.0493C28.511 21.0854 28.4316 21.2276 28.3822 21.2301C28.3144 21.2335 28.2691 21.1572 28.2023 21.1488C28.1439 21.1415 28.0305 21.1308 27.9841 21.1771C27.915 21.2462 27.9425 21.3872 27.8974 21.4684C27.8267 21.5956 28.1052 21.5576 28.1521 21.6163C28.1891 21.6625 28.1811 21.7878 28.1393 21.8254C28.0721 21.8859 27.9609 21.8329 27.8819 21.8555C27.841 21.8671 27.8856 22.0525 27.8892 22.0846C27.8972 22.1567 27.956 22.2232 27.9713 22.2846C28.0067 22.4261 28.0619 22.5972 28.0699 22.742C28.074 22.8147 28.1359 22.8788 28.1512 22.9474C28.1767 23.0622 28.2474 23.1429 28.2836 23.2514" stroke="#E15B19" stroke-opacity="0.55" stroke-linecap="round"/>
<path d="M30.2031 19.4297C30.2031 19.3466 30.2208 19.2661 30.2305 19.1837C30.2417 19.0873 30.2426 18.9851 30.2622 18.8903C30.2803 18.8022 30.3047 18.7154 30.3047 18.6251" stroke="#E15B19" stroke-opacity="0.55" stroke-width="2" stroke-linecap="round"/>
<path d="M29.9062 20.2735C29.9867 20.3539 30.082 20.4304 30.1901 20.4714C30.2683 20.5011 30.3078 20.5881 30.375 20.6329" stroke="#E15B19" stroke-opacity="0.55" stroke-width="2" stroke-linecap="round"/>
<path d="M31.5859 21.6329C31.599 21.628 31.6175 21.4906 31.625 21.474C31.665 21.3855 31.7295 21.3114 31.77 21.2223C31.7859 21.1873 31.7991 21.1527 31.8199 21.1216C31.8321 21.1032 31.8278 21.165 31.8316 21.1867C31.8367 21.2156 31.84 21.2504 31.8342 21.2796C31.8297 21.3022 31.8164 21.3191 31.8047 21.3377C31.7761 21.3831 31.7544 21.4334 31.727 21.4797C31.7202 21.4912 31.7088 21.5267 31.6984 21.5348C31.6731 21.5544 31.5906 21.5391 31.5625 21.5391" stroke="#E15B19" stroke-opacity="0.55" stroke-width="2" stroke-linecap="round"/>
<path d="M30.414 21.3751C30.3781 21.379 30.4362 21.4773 30.4422 21.4888C30.4776 21.5568 30.5199 21.6224 30.5858 21.6641C30.6518 21.7058 30.7217 21.7408 30.7838 21.7883C30.8277 21.8219 30.8723 21.8503 30.9218 21.8751" stroke="#E15B19" stroke-opacity="0.55" stroke-width="2" stroke-linecap="round"/>
<path d="M31.4768 22.5235C31.4768 22.6104 31.4768 22.6974 31.4768 22.7843C31.4768 22.811 31.4702 22.8322 31.4573 22.8555C31.4388 22.8888 31.5213 22.8704 31.5315 22.8638C31.582 22.831 31.6202 22.7661 31.6409 22.711" stroke="#E15B19" stroke-opacity="0.55" stroke-width="2" stroke-linecap="round"/>
<path d="M31.9844 22.3985C31.9967 22.2995 31.9922 22.1898 31.9922 22.086" stroke="#E15B19" stroke-opacity="0.55" stroke-width="2" stroke-linecap="round"/>
<path d="M28.4998 21.1329C28.4998 21.1264 28.4846 21.1803 28.482 21.1871C28.4317 21.3191 28.3594 21.4467 28.294 21.5717C28.2633 21.6305 28.239 21.6959 28.2046 21.7527C28.1943 21.7697 28.1964 21.7519 28.1986 21.7431C28.2085 21.7032 28.2237 21.6638 28.2394 21.6259C28.3433 21.3736 28.4839 21.1372 28.5853 20.8837C28.6118 20.8174 28.6477 20.747 28.6873 20.6876" stroke="#E15B19" stroke-opacity="0.55" stroke-width="2" stroke-linecap="round"/>
<path d="M30.3516 18.5547C30.3734 18.5493 30.3594 18.3991 30.3594 18.3829C30.3594 18.3074 30.3594 18.2318 30.3594 18.1563" stroke="#E15B19" stroke-opacity="0.55" stroke-width="2" stroke-linecap="round"/>
</svg>
