<svg width="174" height="46" viewBox="0 0 174 46" fill="none" xmlns="http://www.w3.org/2000/svg">
<path d="M107.25 12.2605L103.838 11.4942L104.556 9.83393C104.616 9.66364 104.669 9.49847 104.714 9.3384C104.758 9.17918 104.781 9.00379 104.781 8.81222C104.781 8.45037 104.721 8.11491 104.601 7.80584C104.481 7.49763 104.287 7.19452 104.017 6.89652C103.539 6.40695 103.172 5.87992 102.919 5.31543C102.664 4.75179 102.536 4.16133 102.536 3.54405C102.536 3.22476 102.566 2.90548 102.626 2.5862C102.686 2.26691 102.791 1.95827 102.94 1.66027L103.658 0L107.07 0.766281L106.352 2.42655C106.262 2.61812 106.202 2.8148 106.172 3.01659C106.142 3.21923 106.127 3.39505 106.127 3.54405C106.127 3.94847 106.195 4.29457 106.33 4.58236C106.464 4.86928 106.651 5.12982 106.89 5.36396C107.399 5.87481 107.773 6.42313 108.013 7.00891C108.252 7.59384 108.372 8.19494 108.372 8.81222C108.372 9.11022 108.342 9.40822 108.282 9.70621C108.222 10.0042 108.117 10.3022 107.968 10.6002L107.25 12.2605Z" fill="white"/>
<path fill-rule="evenodd" clip-rule="evenodd" d="M48.0643 35.8014L41.2612 17.9133L34.458 35.8014H48.0643ZM42.4376 34.4462L41.9915 33.8201C42.2347 33.5127 42.346 33.1265 42.3021 32.7418C42.2582 32.3572 42.0626 32.0037 41.7558 31.7548C41.2403 31.3386 40.887 30.765 40.7542 30.1287C39.4412 31.9419 40.123 32.942 40.7542 33.8282L40.2913 34.4462C39.7401 34.3458 39.2241 34.1268 38.7794 33.81C38.7489 33.7904 38.7197 33.7689 38.692 33.7458C38.462 33.5717 38.2526 33.3706 38.069 33.1457C37.5151 32.4671 37.2342 31.6178 37.2781 30.7547C37.2781 30.7547 37.1014 28.9985 39.1971 27.2828C39.1971 27.2828 41.5707 25.1606 40.7458 23.5914L41.3434 23.0629C42.2551 23.6804 42.9526 24.5495 43.3445 25.5563C43.7365 26.5632 43.8047 27.6608 43.5402 28.7057C43.7398 28.5176 43.8998 28.294 44.0115 28.0471L44.7438 27.9902L44.7531 28.0053C44.8918 28.2274 46.268 30.4316 45.4929 32.2996C45.2081 32.8743 44.7797 33.3714 44.2463 33.7462C43.7129 34.1209 43.0913 34.3615 42.4376 34.4462ZM40.8635 26.6137L40.9009 26.5611C40.9089 26.581 40.9173 26.6005 40.926 26.6198C40.9053 26.6174 40.8844 26.6153 40.8635 26.6137Z" fill="white"/>
<path fill-rule="evenodd" clip-rule="evenodd" d="M168.817 35.5353C169.051 36.0859 169.168 36.7211 169.168 37.441C169.168 38.4433 168.897 39.3114 168.357 40.0455C167.831 40.7795 167.056 41.3441 166.033 41.7394C165.01 42.1347 163.761 42.3323 162.285 42.3323C161.262 42.3323 160.276 42.2194 159.326 41.9935C158.391 41.7535 157.551 41.3865 156.806 40.8924C156.075 40.3984 155.498 39.7772 155.074 39.0291C154.65 38.2668 154.438 37.3563 154.438 36.2976H150.23C150.23 37.8363 150.573 39.1914 151.26 40.3631C151.962 41.5206 152.889 42.4946 154.044 43.2851C155.213 44.0756 156.506 44.6685 157.923 45.0638C159.355 45.459 160.809 45.6567 162.285 45.6567C163.966 45.6567 165.485 45.4661 166.844 45.0849C168.218 44.6897 169.394 44.1321 170.373 43.4122C171.352 42.6922 172.105 41.8241 172.631 40.8077C173.157 39.7914 173.42 38.655 173.42 37.3987C173.42 36.1988 173.208 35.126 172.784 34.1802C172.375 33.2203 171.739 32.3662 170.877 31.6181C170.03 30.8558 168.948 30.1712 167.633 29.5642C166.318 28.9572 164.755 28.4066 162.943 27.9126C161.628 27.5597 160.495 27.1926 159.545 26.8115C158.61 26.4304 157.836 26.0139 157.222 25.5622C156.623 25.1105 156.177 24.6235 155.885 24.1012C155.607 23.5648 155.469 22.9719 155.469 22.3225C155.469 21.3626 155.702 20.5086 156.17 19.7604C156.652 19.0123 157.383 18.4194 158.362 17.9818C159.341 17.5442 160.583 17.3254 162.088 17.3254C163.681 17.3254 164.996 17.5866 166.033 18.1089C167.071 18.617 167.845 19.3228 168.357 20.2263C168.868 21.1156 169.124 22.139 169.124 23.2966H173.332C173.332 21.6873 172.894 20.1769 172.017 18.7653C171.14 17.3395 169.862 16.189 168.181 15.3138C166.515 14.4245 164.484 13.9799 162.088 13.9799C160.451 13.9799 158.968 14.1916 157.638 14.6151C156.309 15.0386 155.162 15.6315 154.197 16.3937C153.247 17.1419 152.517 18.0242 152.005 19.0405C151.494 20.0569 151.238 21.165 151.238 22.3649C151.238 23.5648 151.479 24.6305 151.962 25.5622C152.444 26.4939 153.138 27.3197 154.044 28.0396C154.95 28.7595 156.038 29.4018 157.31 29.9665C158.581 30.517 160.006 31.0181 161.584 31.4699C163.089 31.8933 164.331 32.3098 165.31 32.7191C166.304 33.1285 167.078 33.5591 167.633 34.0108C168.203 34.4625 168.598 34.9707 168.817 35.5353ZM4.23029 29.6075V14.4033H0V45.2332H4.23029V34.8043L8.14163 30.8813L19.4199 45.2332H24.4611L10.9487 28.008L23.4967 14.4033H18.4116L7.69342 25.9222L4.23029 29.6075ZM42.3116 14.4033H43.2322L55.4409 45.2332H51.101L48.0614 37.1657H34.7144L31.6811 45.2332H27.3632L39.528 14.4033H40.4486H42.3116ZM44.2813 33.8202H46.8009L45.8155 31.2048C45.8602 29.673 44.9532 28.2202 44.842 28.0421L44.8327 28.0271L44.6243 28.0432L41.381 19.4351L35.9723 33.8202H38.8293C38.842 33.8294 38.855 33.8383 38.8683 33.8469C39.313 34.1636 39.829 34.3827 40.3802 34.483L40.8432 33.8651C40.8325 33.8501 40.8219 33.8352 40.8112 33.8202H42.1086C42.0994 33.8326 42.09 33.8448 42.0804 33.8569L42.5265 34.483C43.1583 34.4012 43.7601 34.1737 44.2813 33.8202ZM65.576 14.4033H67.3953L77.8504 39.5373L88.2837 14.4033H90.1029H92.4044H93.7195V45.2332H89.5111V33.2061L89.9169 20.3134L79.4286 45.2332H76.2285L65.7609 20.2786L66.1678 33.2061V45.2332H61.9595V14.4033H63.2965H65.576ZM107.931 45.2332V14.4033H103.701V45.2332H107.931ZM142.418 14.4033V45.2332H138.166L122.1 21.4544V45.2332H117.869V14.4033H122.1L138.232 38.2456V14.4033H142.418Z" fill="white"/>
</svg>
