<svg width="221" height="68" viewBox="0 0 221 68" fill="none" xmlns="http://www.w3.org/2000/svg">
<path d="M6.2579 28.3572V67.4678H0.904297V28.3572H6.2579ZM30.6404 28.3572L13.8583 46.5963L4.42713 56.0785L3.53949 50.5449L10.6406 42.9699L24.2049 28.3572H30.6404ZM25.4809 67.4678L10.5297 48.396L13.7197 44.2862L31.8609 67.4678H25.4809Z" fill="white"/>
<path d="M54.3682 31.8223L40.998 67.4678H35.5335L50.9286 28.3572H54.4514L54.3682 31.8223ZM65.5747 67.4678L52.1768 31.8223L52.0936 28.3572H55.6164L71.067 67.4678H65.5747ZM64.8812 52.9894V57.2335H42.1908V52.9894H64.8812Z" fill="white"/>
<path d="M81.0086 28.3572H86.1957L99.4272 60.242L112.631 28.3572H117.846L101.424 67.4678H97.3745L81.0086 28.3572ZM79.3165 28.3572H83.8934L84.6424 52.2104V67.4678H79.3165V28.3572ZM114.933 28.3572H119.51V67.4678H114.184V52.2104L114.933 28.3572Z" fill="white"/>
<path d="M137.496 28.3572V67.4678H132.142V28.3572H137.496Z" fill="white"/>
<path d="M181.14 28.3572V67.4678H175.759L155.426 37.3021V67.4678H150.073V28.3572H155.426L175.842 58.6035V28.3572H181.14Z" fill="white"/>
<path d="M214.993 57.5827C214.993 56.6694 214.845 55.8636 214.549 55.1652C214.272 54.4488 213.772 53.8042 213.051 53.2311C212.348 52.6581 211.368 52.1119 210.111 51.5926C208.872 51.0732 207.3 50.5449 205.395 50.0077C203.398 49.4347 201.595 48.7989 199.986 48.1005C198.377 47.3842 197 46.5694 195.853 45.6561C194.706 44.7428 193.828 43.6952 193.218 42.5133C192.608 41.3314 192.302 39.9793 192.302 38.4572C192.302 36.935 192.626 35.5293 193.273 34.2399C193.921 32.9505 194.845 31.8313 196.047 30.8822C197.268 29.9152 198.719 29.163 200.402 28.6258C202.085 28.0886 203.962 27.8199 206.033 27.8199C209.066 27.8199 211.636 28.384 213.745 29.5122C215.871 30.6225 217.489 32.082 218.599 33.8907C219.708 35.6815 220.263 37.5976 220.263 39.6391H214.937C214.937 38.1707 214.614 36.8723 213.966 35.7441C213.319 34.598 212.339 33.7027 211.026 33.058C209.713 32.3954 208.049 32.0641 206.033 32.0641C204.128 32.0641 202.557 32.3417 201.318 32.8968C200.079 33.452 199.154 34.2041 198.544 35.1532C197.952 36.1023 197.656 37.1857 197.656 38.4035C197.656 39.2272 197.832 39.9793 198.183 40.6598C198.553 41.3224 199.117 41.9402 199.875 42.5133C200.652 43.0863 201.632 43.6146 202.815 44.0981C204.017 44.5816 205.451 45.0473 207.115 45.4949C209.408 46.1217 211.387 46.8201 213.051 47.5902C214.715 48.3602 216.084 49.2287 217.156 50.1957C218.248 51.1449 219.052 52.2283 219.57 53.446C220.106 54.6458 220.374 56.0068 220.374 57.529C220.374 59.1228 220.041 60.5644 219.376 61.8537C218.71 63.1431 217.757 64.2444 216.518 65.1577C215.279 66.071 213.791 66.7784 212.053 67.2798C210.333 67.7633 208.409 68.0051 206.283 68.0051C204.415 68.0051 202.575 67.7543 200.763 67.2529C198.969 66.7515 197.332 65.9994 195.853 64.9965C194.392 63.9937 193.218 62.7581 192.33 61.2896C191.461 59.8033 191.026 58.0841 191.026 56.1322H196.352C196.352 57.4753 196.62 58.6303 197.157 59.5973C197.693 60.5465 198.423 61.3344 199.348 61.9612C200.291 62.5879 201.355 63.0535 202.538 63.358C203.74 63.6445 204.988 63.7878 206.283 63.7878C208.151 63.7878 209.732 63.5371 211.026 63.0356C212.321 62.5342 213.301 61.8179 213.966 60.8867C214.651 59.9555 214.993 58.8542 214.993 57.5827Z" fill="white"/>
<path d="M136.149 24.7429L132.054 23.2069L132.916 19.8789C132.988 19.5376 133.051 19.2065 133.106 18.8856C133.159 18.5665 133.185 18.2149 133.185 17.8309C133.185 17.1056 133.113 16.4332 132.97 15.8137C132.826 15.1959 132.593 14.5883 132.269 13.991C131.695 13.0097 131.255 11.9532 130.95 10.8217C130.644 9.69193 130.491 8.50837 130.491 7.27104C130.491 6.63105 130.527 5.99106 130.599 5.35106C130.671 4.71107 130.797 4.09241 130.976 3.49508L131.838 0.167114L135.933 1.7031L135.071 5.03107C134.963 5.41506 134.892 5.8093 134.856 6.21378C134.82 6.61996 134.802 6.97238 134.802 7.27104C134.802 8.0817 134.883 8.77546 135.045 9.3523C135.206 9.92744 135.43 10.4497 135.718 10.919C136.328 11.943 136.777 13.0421 137.065 14.2163C137.352 15.3887 137.496 16.5936 137.496 17.8309C137.496 18.4283 137.46 19.0256 137.388 19.6229C137.316 20.2202 137.191 20.8176 137.011 21.4149L136.149 24.7429Z" fill="white"/>
<path d="M53.1214 32.8098L61.7311 55.5026H44.5117L53.1214 32.8098Z" fill="white"/>
<path d="M54.6104 53.7834L54.0458 52.9891C54.3536 52.5991 54.4944 52.1092 54.4389 51.6213C54.3833 51.1333 54.1357 50.6849 53.7476 50.3692C53.0951 49.8411 52.648 49.1134 52.48 48.3062C50.8183 50.6064 51.6811 51.8751 52.48 52.9995L51.8942 53.7834C50.7817 53.5804 49.7827 52.9944 49.0817 52.1336C48.3808 51.2727 48.0253 50.1953 48.0809 49.1004C48.0809 49.1004 47.8572 46.8724 50.5094 44.696C50.5094 44.696 53.5132 42.0038 52.4694 40.013L53.2256 39.3425C54.3794 40.126 55.2621 41.2285 55.7581 42.5057C56.2542 43.783 56.3405 45.1755 56.0057 46.5011C56.2583 46.2624 56.4609 45.9787 56.6022 45.6656L57.5289 45.5934C57.6035 45.7171 59.4888 48.6156 58.4769 51.0603C58.1165 51.7893 57.5743 52.42 56.8993 52.8954C56.2243 53.3708 55.4376 53.676 54.6104 53.7834ZM52.48 46.6145L53.4067 47.0168C53.3573 47.4874 53.42 47.9626 53.5898 48.4061C53.7597 48.8496 54.0323 49.2494 54.3867 49.5749C54.8432 49.897 55.189 50.3448 55.379 50.86C55.569 51.3751 55.5944 51.9338 55.4518 52.4631C55.8921 52.3137 56.2965 52.0795 56.6407 51.7746C56.9849 51.4696 57.2617 51.1003 57.4544 50.6889C57.816 49.4332 57.6594 48.0906 57.0176 46.9446C56.8159 47.2615 56.5229 47.5143 56.1746 47.6719C55.8264 47.8295 55.4382 47.8851 55.0577 47.8317L54.6849 47.1303C55.1515 46.1532 55.3104 45.0647 55.1418 44.0006C54.9732 42.9366 54.4846 41.9443 53.7369 41.1476C53.5878 43.3344 51.2764 45.3561 51.2018 45.4696C48.9969 47.285 49.146 48.9663 49.146 49.0385C49.1044 49.6756 49.2395 50.3118 49.5373 50.8813C49.8351 51.4508 50.2848 51.9328 50.8397 52.2774C50.2112 50.8333 50.2112 49.1004 52.512 46.6145H52.48Z" fill="#E15B19" fill-opacity="0.55"/>
<path d="M56.1602 45.6881C56.1602 46.7078 55.3356 47.5344 54.3184 47.5344C53.3012 47.5344 52.4766 46.7078 52.4766 45.6881C52.4766 44.6684 53.3012 43.8418 54.3184 43.8418C55.3356 43.8418 56.1602 44.6684 56.1602 45.6881Z" fill="#E15B19" fill-opacity="0.55"/>
<path d="M54.3184 45.6881C54.3184 46.7078 53.4938 47.5344 52.4766 47.5344C51.4594 47.5344 50.6348 46.7078 50.6348 45.6881C50.6348 44.6684 51.4594 43.8418 52.4766 43.8418C53.4938 43.8418 54.3184 44.6684 54.3184 45.6881Z" fill="#E15B19" fill-opacity="0.55"/>
<path fill-rule="evenodd" clip-rule="evenodd" d="M53.2406 40.5599L54.8188 43.724V46.188H51.8369L53.2406 40.5599ZM53.5551 43.431L53.1169 45.188H53.8188V43.9595L53.5551 43.431Z" fill="#E15B19" fill-opacity="0.55"/>
<path fill-rule="evenodd" clip-rule="evenodd" d="M53.9395 47.081L53.9404 47.0818C53.9404 47.0818 53.9418 47.0833 53.9452 47.0862C53.9486 47.0892 53.9535 47.0932 53.96 47.0982C53.9731 47.1084 53.9908 47.121 54.0134 47.1357C54.0579 47.1648 54.114 47.1973 54.1795 47.2319C54.2708 47.1118 54.4152 47.0343 54.5776 47.0343C54.8443 47.0343 55.0622 47.2431 55.0769 47.5061L55.0788 47.5145C55.0835 47.5336 55.0912 47.5587 55.1008 47.5832C55.1016 47.5851 55.1023 47.587 55.103 47.5888C55.1078 47.5922 55.1127 47.5957 55.1174 47.5993C55.1341 47.6117 55.1642 47.6352 55.1954 47.6685C55.1958 47.6689 55.1962 47.6693 55.1968 47.6699C55.2138 47.6878 55.3088 47.7879 55.331 47.9506C55.3457 48.058 55.3272 48.1876 55.2472 48.304C55.1743 48.41 55.0805 48.4613 55.0233 48.4848C54.9225 48.5264 54.8335 48.5242 54.8114 48.5236C54.7493 48.5221 54.6941 48.51 54.6706 48.5046C54.6095 48.4905 54.5322 48.4665 54.4487 48.4371C54.6649 48.8402 54.8175 49.0575 55.0879 49.1756C55.1965 49.223 55.2922 49.279 55.376 49.3346C55.374 49.297 55.3727 49.2593 55.3727 49.2251C55.3727 49.1553 55.3785 49.0812 55.3834 49.0238C55.3846 49.0097 55.3857 48.9962 55.3868 48.9831C55.3908 48.9362 55.3944 48.895 55.3968 48.8527C55.3999 48.7997 55.4001 48.7609 55.3983 48.733C55.3977 48.7249 55.3971 48.7193 55.3966 48.7157C55.3467 48.5845 55.3297 48.4467 55.3505 48.3004C55.3812 48.0849 55.5119 47.9425 55.5902 47.8708C55.676 47.7922 55.7726 47.7321 55.8472 47.6898C55.9192 47.6489 55.9934 47.6122 56.0482 47.585C56.0519 47.5832 56.0556 47.5814 56.0592 47.5796C56.0893 47.5647 56.112 47.5533 56.1308 47.5435C56.1483 47.5343 56.1549 47.5302 56.1549 47.5302C56.1549 47.5302 56.1551 47.5301 56.1549 47.5302L56.2261 47.4841C56.2476 47.4702 56.2647 47.4589 56.2795 47.4486C56.287 47.4434 56.2932 47.4389 56.2985 47.435C56.3093 47.3562 56.3383 47.2753 56.3903 47.2018C56.4493 47.1184 56.5218 47.0669 56.5814 47.0362C56.6881 46.9813 56.7882 46.9753 56.8241 46.9736C56.8701 46.9716 56.9104 46.9746 56.9266 46.9758C56.9327 46.9763 56.9371 46.9766 56.94 46.9768C57.1465 46.9825 57.2922 47.0907 57.3739 47.1807C57.4525 47.2672 57.4974 47.3617 57.5224 47.4227C57.5668 47.531 57.5931 47.652 57.6015 47.6903C57.6024 47.6947 57.6031 47.698 57.6036 47.7001C57.7299 48.2442 57.8226 48.8736 57.683 49.5032C57.6585 49.6139 57.6106 49.6966 57.5914 49.7297C57.5855 49.7399 57.5819 49.7461 57.5798 49.7496C57.5712 49.7748 57.5638 49.801 57.5527 49.8408C57.5492 49.8532 57.5453 49.8669 57.541 49.8824C57.5221 49.9488 57.4945 50.0421 57.4483 50.1413C57.1975 50.6801 56.8726 51.1895 56.4591 51.6338C56.458 51.6361 56.4568 51.6387 56.4554 51.6417C56.4546 51.6435 56.4535 51.6458 56.4523 51.6486C56.4448 51.6649 56.4308 51.6957 56.4161 51.724C56.3975 51.7601 56.369 51.8104 56.3274 51.8625C56.3278 51.862 56.3274 51.8625 56.3274 51.8625C56.3274 51.8625 56.3253 51.8653 56.3199 51.8734C56.3136 51.8826 56.3061 51.8943 56.298 51.9074C56.2806 51.9355 56.2676 51.9592 56.2626 51.9693C56.1393 52.2164 55.8391 52.3168 55.5919 52.1936C55.3448 52.0703 55.2444 51.7701 55.3677 51.523C55.4033 51.4517 55.4704 51.3378 55.5316 51.257C55.5333 51.2535 55.5354 51.2488 55.5388 51.2416C55.541 51.2367 55.5438 51.2307 55.5473 51.223C55.5479 51.2217 55.5486 51.2203 55.5492 51.2188C55.5694 51.175 55.6187 51.0677 55.7102 50.9705C55.8243 50.8494 55.9311 50.7211 56.0309 50.5863C55.9029 50.6628 55.7686 50.6703 55.6842 50.6625C55.5776 50.6525 55.4915 50.6162 55.4461 50.5949C55.3569 50.5531 55.2606 50.4861 55.2701 50.4922C55.1674 50.4262 55.0654 50.3481 54.9865 50.2876C54.9631 50.2697 54.9418 50.2533 54.9231 50.2393C54.8284 50.1684 54.7586 50.123 54.6878 50.0921C54.0473 49.8125 53.7555 49.266 53.5312 48.8418C53.5095 48.8005 53.4843 48.7542 53.4572 48.7043C53.3855 48.5721 53.3002 48.415 53.2284 48.2627C53.1273 48.0483 53.0252 47.7895 52.9911 47.516C52.9862 47.4769 52.9719 47.3625 53.0098 47.24C53.0315 47.1697 53.0868 47.0443 53.2236 46.9555C53.369 46.8611 53.5186 46.8643 53.6118 46.884C53.75 46.9132 53.8447 46.9941 53.863 47.0098C53.8638 47.0104 53.8645 47.011 53.865 47.0114C53.8969 47.0382 53.9256 47.067 53.9395 47.081ZM56.3557 50.0828C56.4219 49.9649 56.4839 49.8436 56.5418 49.7193C56.5527 49.6959 56.5628 49.6664 56.5789 49.6095C56.581 49.6021 56.5833 49.5938 56.5859 49.5846C56.5999 49.5344 56.6207 49.4594 56.6475 49.3868C56.6644 49.3411 56.6834 49.304 56.6972 49.2789C56.704 49.2664 56.7104 49.2554 56.715 49.2475C56.7697 48.9716 56.7614 48.6758 56.7139 48.3596C56.7091 48.3627 56.7046 48.3656 56.7004 48.3683C56.6388 48.4085 56.5614 48.4468 56.5113 48.4716C56.5086 48.4729 56.5059 48.4743 56.5033 48.4756L56.4996 48.4774C56.4555 48.4992 56.4165 48.5186 56.3805 48.5377C56.4064 48.6844 56.4002 48.8242 56.3952 48.9105C56.3918 48.9681 56.3868 49.027 56.3826 49.0754C56.3816 49.0867 56.3807 49.0974 56.3799 49.1073C56.3748 49.1672 56.3727 49.2025 56.3727 49.2251C56.3727 49.2582 56.3757 49.3044 56.3807 49.382C56.3812 49.3898 56.3817 49.3978 56.3822 49.4062C56.3876 49.4888 56.3938 49.5933 56.3937 49.7002C56.3936 49.8053 56.3876 49.9312 56.3616 50.056C56.3598 50.0647 56.3579 50.0736 56.3557 50.0828ZM54.895 47.5301C54.8946 47.53 54.8941 47.5299 54.8936 47.5298ZM53.984 47.3967C53.9838 47.3952 53.9836 47.3938 53.9834 47.3923C53.9823 47.3833 53.9833 47.3857 53.984 47.3967Z" fill="#E15B19" fill-opacity="0.55"/>
<path fill-rule="evenodd" clip-rule="evenodd" d="M50.9009 45.4675C50.9893 45.3716 51.1686 45.2169 51.4409 45.2169C51.717 45.2169 51.9409 45.4408 51.9409 45.7169C51.9409 45.936 51.8 46.1221 51.6039 46.1897C51.5997 46.196 51.5951 46.2029 51.5897 46.2109L51.5884 46.2128C51.5798 46.2258 51.5685 46.2425 51.5571 46.259C51.4986 46.343 51.4456 46.436 51.3843 46.5484C51.3752 46.5652 51.3658 46.5826 51.356 46.6005C51.3552 46.6021 51.3543 46.6038 51.3534 46.6054C51.3679 46.6105 51.3827 46.6164 51.3977 46.6234C51.5167 46.678 51.6171 46.7794 51.6662 46.9146C51.7084 47.0308 51.6982 47.1319 51.6894 47.183C51.6799 47.2379 51.6637 47.2813 51.6532 47.3067C51.6324 47.3568 51.6069 47.3997 51.5928 47.4228C51.5398 47.5097 51.4964 47.5762 51.4579 47.6351C51.4019 47.7207 51.3565 47.7902 51.3076 47.883C51.2866 47.9227 51.2322 48.0221 51.1649 48.1179C51.1323 48.1644 51.0851 48.2267 51.027 48.2831C50.9978 48.3115 50.9552 48.3489 50.9001 48.3823C50.8543 48.4101 50.7765 48.4495 50.674 48.4626C50.7031 48.5253 50.7187 48.5841 50.7277 48.6287C50.7441 48.7105 50.7475 48.7918 50.7429 48.8651C50.7384 48.9381 50.7251 49.019 50.6979 49.099C50.6736 49.1707 50.6231 49.2866 50.5159 49.3833C50.4472 49.4453 50.3741 49.4866 50.3032 49.514C50.3037 49.515 50.3041 49.516 50.3046 49.517C50.3247 49.5582 50.3531 49.6214 50.372 49.6972C50.3814 49.7351 50.3937 49.7805 50.4075 49.8313C50.4607 50.0283 50.5361 50.3069 50.5559 50.5524C50.5583 50.5571 50.5613 50.5628 50.565 50.5699C50.5668 50.5731 50.569 50.5773 50.5717 50.5822C50.5837 50.6047 50.6042 50.6427 50.6207 50.6775C50.6428 50.7239 50.6718 50.7917 50.6899 50.8735C50.6968 50.9045 50.7112 50.9402 50.7531 51.0197C50.7573 51.0277 50.762 51.0365 50.7672 51.0461C50.8051 51.117 50.8659 51.2308 50.9081 51.3576C50.9952 51.6197 50.8534 51.9027 50.5914 51.9899C50.3294 52.077 50.0463 51.9352 49.9592 51.6732C49.9454 51.6317 49.9267 51.5963 49.8846 51.5166C49.8795 51.507 49.8741 51.4967 49.8683 51.4857C49.8228 51.3993 49.756 51.2693 49.7175 51.1066C49.7124 51.096 49.7077 51.0872 49.6988 51.0707C49.6943 51.0623 49.6888 51.0519 49.6815 51.0383C49.6806 51.0366 49.6797 51.0348 49.6787 51.033C49.6474 50.9741 49.5703 50.829 49.5603 50.6488C49.5525 50.5088 49.5117 50.3561 49.4607 50.1653C49.4432 50.1 49.4246 50.0302 49.4057 49.955C49.4056 49.9548 49.4054 49.9545 49.4053 49.9543C49.3997 49.9428 49.3949 49.9338 49.3867 49.9184C49.3819 49.9094 49.3759 49.8982 49.3679 49.8831L49.3661 49.8798C49.3352 49.8213 49.2642 49.6869 49.246 49.5223C49.2463 49.525 49.2465 49.527 49.2464 49.527C49.2462 49.527 49.2441 49.5154 49.2364 49.4733C49.2289 49.4325 49.2187 49.3745 49.2112 49.3145C49.2046 49.2612 49.1959 49.1762 49.2026 49.0901C49.2057 49.0494 49.2145 48.9725 49.2503 48.8889C49.2651 48.8544 49.2899 48.8072 49.3284 48.7595C49.2821 48.6879 49.2479 48.6003 49.2393 48.498C49.2279 48.3616 49.2666 48.2481 49.3061 48.1694C49.3094 48.1515 49.3113 48.137 49.3145 48.1122C49.3163 48.0974 49.3187 48.079 49.3221 48.054C49.3293 48.0019 49.3417 47.9183 49.3698 47.8313C49.3989 47.7413 49.4519 47.6246 49.5552 47.521C49.6877 47.3882 49.8509 47.3419 49.9641 47.3247C49.9638 47.3107 49.964 47.2988 49.9643 47.2895C49.9663 47.2355 49.976 47.1917 49.982 47.1675C49.9888 47.1407 49.9971 47.1153 50.0036 47.0968C50.0319 46.9373 50.0948 46.7964 50.1482 46.6929C50.2013 46.59 50.2638 46.4899 50.3082 46.4187C50.3154 46.4072 50.3221 46.3964 50.3283 46.3865C50.3777 46.3067 50.4216 46.2257 50.4734 46.1304C50.484 46.1108 50.495 46.0906 50.5064 46.0696C50.5697 45.9535 50.6445 45.8196 50.7363 45.6877C50.7376 45.6859 50.7399 45.6823 50.7433 45.6772C50.7659 45.6429 50.833 45.5412 50.9009 45.4675ZM51.285 47.5606C51.2897 47.559 51.2886 47.5597 51.2826 47.5615C51.2834 47.5612 51.2842 47.5609 51.285 47.5606ZM49.8189 49.5544C49.8174 49.5544 49.8166 49.5544 49.8166 49.5544C49.8165 49.5544 49.8173 49.5544 49.8189 49.5544Z" fill="#E15B19" fill-opacity="0.55"/>
<path fill-rule="evenodd" clip-rule="evenodd" d="M53.9742 42.3942C54.5265 42.3942 54.9742 42.8419 54.9742 43.3942C54.9742 43.649 54.9114 43.9203 54.887 44.0257C54.8834 44.0415 54.8806 44.0536 54.879 44.0613C54.8745 44.0831 54.8693 44.1204 54.8629 44.1983C54.8618 44.2113 54.8606 44.2276 54.8591 44.2464C54.8541 44.3121 54.8469 44.4077 54.8371 44.4908C54.8311 44.5424 54.8242 44.5904 54.8186 44.6287C54.8167 44.6416 54.815 44.6529 54.8134 44.6632C54.8098 44.6873 54.807 44.7062 54.8042 44.7269C54.7965 44.7826 54.7959 44.8017 54.7959 44.8067C54.7959 45.359 54.3482 45.8067 53.7959 45.8067C53.2436 45.8067 52.7959 45.359 52.7959 44.8067C52.7959 44.6071 52.8408 44.3217 52.8493 44.2675C52.8501 44.2624 52.8506 44.2593 52.8507 44.2586C52.8554 44.2182 52.858 44.1843 52.8618 44.1336C52.8639 44.1064 52.8663 44.0745 52.8696 44.0342C52.8775 43.9385 52.8903 43.8027 52.9201 43.658C52.9283 43.6181 52.9372 43.5776 52.9443 43.5459C52.9456 43.5398 52.9469 43.534 52.9481 43.5286C52.9563 43.4913 52.962 43.4649 52.9664 43.4416C52.9727 43.4086 52.974 43.3943 52.9742 43.3917C52.9755 42.8406 53.4227 42.3942 53.9742 42.3942Z" fill="#E15B19" fill-opacity="0.55"/>
<path fill-rule="evenodd" clip-rule="evenodd" d="M52.5691 45.5799C52.9601 45.1898 53.5933 45.1906 53.9833 45.5816C54.0275 45.6258 54.064 45.6571 54.0929 45.6781C54.1159 45.6947 54.128 45.7005 54.1292 45.7011C54.432 45.8166 54.6191 46.0248 54.6797 46.0923C54.6814 46.0942 54.683 46.096 54.6845 46.0976C54.6947 46.109 54.7097 46.1259 54.7185 46.1358C55.1224 46.4561 55.2191 47.0382 54.9277 47.4743C54.6208 47.9335 53.9998 48.057 53.5406 47.7501C53.4273 47.6744 53.3444 47.5937 53.2943 47.5415C53.2801 47.5268 53.2671 47.5127 53.2557 47.5002C52.9549 47.3542 52.7244 47.1514 52.5674 46.9941C52.1774 46.6031 52.1781 45.9699 52.5691 45.5799Z" fill="#E15B19" fill-opacity="0.55"/>
<path fill-rule="evenodd" clip-rule="evenodd" d="M55.2294 48.8334C55.2399 48.898 55.2569 48.9624 55.2808 49.026C55.4751 49.543 56.0517 49.8045 56.5687 49.6102C56.7359 49.5473 56.8496 49.4539 56.9141 49.3915C56.9348 49.3716 56.9533 49.3519 56.9699 49.3331C56.9893 49.32 57.0089 49.3059 57.0285 49.2906C57.1273 49.2135 57.1906 49.1347 57.2221 49.0925C57.2571 49.0455 57.2821 49.0039 57.2975 48.9768C57.3273 48.9243 57.3479 48.8779 57.3562 48.8591C57.3563 48.8588 57.3565 48.8584 57.3566 48.8581C57.3809 48.8143 57.4013 48.7745 57.4142 48.7494C57.4163 48.7454 57.4182 48.7417 57.4198 48.7385C57.4382 48.7028 57.4446 48.6915 57.4462 48.6887L57.4488 48.6847L57.4544 48.6761C57.4625 48.6637 57.4803 48.6361 57.4998 48.6019C57.5407 48.53 57.6003 48.4096 57.6323 48.2496C57.6703 48.0591 57.6565 47.8863 57.6422 47.7829C57.6419 47.7736 57.6413 47.7619 57.6406 47.7492C57.6396 47.7315 57.6373 47.6977 57.632 47.6575L57.6319 47.6563C57.6284 47.6302 57.6153 47.5307 57.5705 47.4148C57.5487 47.3586 57.4929 47.2263 57.371 47.0941C57.2327 46.944 56.9728 46.7622 56.6092 46.771C56.285 46.7788 56.0685 46.9362 55.978 47.0141C55.8805 47.098 55.8211 47.1818 55.7938 47.2228C55.7364 47.3091 55.6973 47.3882 55.6732 47.4401C55.6611 47.4661 55.6505 47.4901 55.6437 47.5057L55.6287 47.5396C55.628 47.541 55.6251 47.5466 55.6186 47.5575C55.6077 47.5759 55.5947 47.5964 55.57 47.6349C55.5678 47.6384 55.5653 47.6422 55.5628 47.6461C55.5392 47.6829 55.5033 47.7386 55.4647 47.8065C55.2861 47.9871 55.1758 48.2355 55.1758 48.5096C55.1758 48.6229 55.1946 48.7319 55.2294 48.8334ZM55.7766 47.5876L55.7764 47.5879ZM57.6433 47.815L57.6432 47.8118C57.6439 47.8225 57.6437 47.8249 57.6433 47.815Z" fill="#E15B19" fill-opacity="0.55"/>
<path fill-rule="evenodd" clip-rule="evenodd" d="M55.1306 47.9613C55.0048 47.4921 54.5518 47.1722 54.0542 47.2277C53.7721 47.2591 53.4696 47.4149 53.2879 47.722C53.1414 47.9697 53.1411 48.2056 53.1459 48.3024C53.1555 48.4956 53.2178 48.6488 53.2349 48.6908C53.2351 48.6915 53.2354 48.6921 53.2356 48.6927C53.2779 48.7969 53.3555 48.9371 53.327 48.8824C53.4066 49.0354 53.5813 49.3522 53.9306 49.5736C53.9868 49.6092 54.0561 49.6499 54.0996 49.6753C54.1124 49.6828 54.1229 49.689 54.1302 49.6933C54.1791 49.7225 54.1966 49.7348 54.2035 49.74C54.3262 49.8342 54.4578 49.9189 54.6061 49.9932C55.0998 50.2407 55.7007 50.041 55.9482 49.5473C56.1956 49.0536 55.996 48.4527 55.5022 48.2052C55.4772 48.1927 55.4527 48.1776 55.4215 48.1537C55.3197 48.0756 55.2216 48.0155 55.1533 47.9748C55.1452 47.97 55.1377 47.9655 55.1306 47.9613Z" fill="#E15B19" fill-opacity="0.55"/>
<path fill-rule="evenodd" clip-rule="evenodd" d="M56.904 49.7593C56.7344 49.4484 56.4046 49.2375 56.0255 49.2375C55.4732 49.2375 55.0255 49.6853 55.0255 50.2375V50.5559C54.9901 50.6803 54.9693 50.8411 55.0045 51.0258C55.0769 51.4045 55.331 51.6271 55.522 51.7297C55.6896 51.8198 55.8419 51.8412 55.9096 51.8483C55.9901 51.8567 56.0579 51.8546 56.1021 51.8518C56.1903 51.8461 56.2672 51.8314 56.3226 51.818C56.3521 51.811 56.3879 51.8013 56.427 51.7882C56.4274 51.7881 56.428 51.7879 56.4288 51.7876C56.446 51.782 56.5526 51.7472 56.6654 51.674C57.018 51.4455 57.1835 51.0947 57.2499 50.9178C57.411 50.4881 57.2573 50.0174 56.904 49.7593Z" fill="#E15B19" fill-opacity="0.55"/>
<path fill-rule="evenodd" clip-rule="evenodd" d="M56.9289 48.4695C57.4811 48.4695 57.9289 48.9173 57.9289 49.4695C57.9289 49.4894 57.9292 49.5142 57.9295 49.543C57.9312 49.6868 57.934 49.9293 57.9074 50.1421C57.8389 50.6902 57.3391 51.0789 56.7911 51.0104C56.2431 50.9419 55.8544 50.4421 55.9229 49.8941C55.9311 49.8282 55.9306 49.7646 55.9297 49.6436C55.9293 49.5958 55.9289 49.539 55.9289 49.4695C55.9289 48.9173 56.3766 48.4695 56.9289 48.4695Z" fill="#E15B19" fill-opacity="0.55"/>
<path fill-rule="evenodd" clip-rule="evenodd" d="M51.6949 46.182C52.1547 46.4879 52.2796 47.1086 51.9738 47.5685C51.9477 47.6076 51.9158 47.6683 51.8913 47.7297C51.8627 47.8013 51.8329 47.8717 51.8024 47.9405C51.792 48.0131 51.7737 48.0831 51.7485 48.1498L51.7456 48.1594L51.7384 48.1828L51.7323 48.2019L51.7323 48.202C51.7306 48.2072 51.7247 48.225 51.7164 48.2469C51.62 48.5005 51.4854 48.7535 51.3902 48.9326C51.3714 48.9678 51.3542 49.0002 51.3391 49.0292C51.3302 49.0462 51.3233 49.0613 51.3067 49.0975C51.3008 49.1103 51.2937 49.1259 51.2848 49.1452C51.2581 49.2032 51.213 49.3001 51.1522 49.4009C51.1367 49.4266 51.107 49.4738 51.0634 49.527L51.0623 49.5283C51.0354 49.5612 50.9215 49.7001 50.7213 49.7969C50.6059 49.8527 50.4106 49.919 50.1662 49.8898C49.9037 49.8585 49.6959 49.7304 49.5568 49.5831C49.3385 49.3521 49.3008 49.0919 49.2937 49.0428C49.2935 49.0416 49.2933 49.0405 49.2932 49.0395C49.2722 48.8978 49.2872 48.7819 49.2905 48.7565C49.2907 48.7556 49.2907 48.7549 49.2908 48.7543C49.2966 48.7091 49.305 48.6658 49.315 48.6256C49.351 48.4812 49.4012 48.3561 49.4318 48.2817C49.5335 48.0343 49.6505 47.7985 49.7501 47.5979C49.7552 47.5875 49.7603 47.5772 49.7654 47.567C49.8738 47.3485 49.962 47.168 50.0337 46.9885C50.1022 46.8168 50.1957 46.6304 50.3084 46.4609C50.6143 46.0011 51.235 45.8762 51.6949 46.182Z" fill="#E15B19" fill-opacity="0.55"/>
<path fill-rule="evenodd" clip-rule="evenodd" d="M54.0696 41.5713C54.6219 41.5713 55.0696 42.019 55.0696 42.5713V42.9421C55.07 42.9483 55.0705 42.9566 55.0711 42.9678C55.0731 43.0008 55.0759 43.0523 55.0769 43.1077C55.0778 43.1537 55.0787 43.2433 55.0675 43.339C55.0627 43.3801 55.0496 43.4823 55.0066 43.5999C54.9849 43.659 54.9397 43.7674 54.8504 43.8817C54.7585 43.9993 54.5814 44.1701 54.2984 44.2409C53.7626 44.3748 53.2197 44.049 53.0858 43.5132C53.049 43.3662 53.0469 43.2186 53.0742 43.0791L53.0724 43.0497L53.0711 43.0258C53.0708 43.02 53.0696 42.9962 53.0696 42.969V42.5713C53.0696 42.019 53.5173 41.5713 54.0696 41.5713Z" fill="#E15B19" fill-opacity="0.55"/>
</svg>
