<svg width="232" height="62" viewBox="0 0 232 62" fill="none" xmlns="http://www.w3.org/2000/svg">
<path d="M5.65175 19.5604V60.7497H0V19.5604H5.65175ZM31.3921 19.5604L13.6755 38.7689L3.71902 48.755L2.78195 42.9274L10.2786 34.9498L24.5983 19.5604H31.3921ZM25.9453 60.7497L10.1614 40.6642L13.5291 36.336L32.6806 60.7497H25.9453Z" fill="white"/>
<path d="M56.4413 23.2097L42.3266 60.7497H36.5577L52.8102 19.5604H56.5292L56.4413 23.2097ZM68.2719 60.7497L54.1279 23.2097L54.0401 19.5604H57.7591L74.0701 60.7497H68.2719ZM67.5398 45.5017V49.9714H43.5858V45.5017H67.5398Z" fill="white"/>
<path d="M84.5654 19.5604H90.0414L104.01 53.1398L117.949 19.5604H123.454L106.118 60.7497H101.843L84.5654 19.5604ZM82.7791 19.5604H87.6109L88.4015 44.6813V60.7497H82.7791V19.5604ZM120.379 19.5604H125.211V60.7497H119.589V44.6813L120.379 19.5604Z" fill="white"/>
<path d="M144.199 19.5604V60.7497H138.547V19.5604H144.199Z" fill="white"/>
<path d="M190.274 19.5604V60.7497H184.592L163.128 28.9808V60.7497H157.476V19.5604H163.128L184.68 51.4142V19.5604H190.274Z" fill="white"/>
<path d="M226.011 50.3392C226.011 49.3774 225.855 48.5287 225.543 47.7932C225.25 47.0388 224.723 46.3598 223.961 45.7563C223.22 45.1528 222.185 44.5776 220.857 44.0307C219.549 43.4837 217.89 42.9274 215.879 42.3616C213.771 41.7581 211.867 41.0886 210.169 40.3531C208.47 39.5987 207.016 38.7406 205.806 37.7787C204.595 36.8169 203.668 35.7136 203.024 34.4689C202.379 33.2242 202.057 31.8003 202.057 30.1972C202.057 28.5941 202.399 27.1137 203.082 25.7558C203.765 24.3979 204.742 23.2192 206.011 22.2196C207.299 21.2012 208.832 20.4091 210.608 19.8433C212.385 19.2775 214.366 18.9946 216.553 18.9946C219.754 18.9946 222.468 19.5887 224.694 20.7769C226.939 21.9461 228.647 23.4832 229.818 25.388C230.99 27.274 231.575 29.2919 231.575 31.4419H225.953C225.953 29.8954 225.611 28.5281 224.928 27.34C224.245 26.133 223.21 25.19 221.824 24.511C220.438 23.8132 218.681 23.4643 216.553 23.4643C214.542 23.4643 212.882 23.7567 211.574 24.3413C210.266 24.926 209.29 25.7181 208.646 26.7176C208.021 27.7172 207.709 28.8582 207.709 30.1406C207.709 31.0082 207.894 31.8003 208.265 32.5169C208.656 33.2147 209.251 33.8654 210.052 34.4689C210.872 35.0724 211.906 35.6287 213.156 36.138C214.425 36.6472 215.938 37.1375 217.695 37.609C220.116 38.2691 222.204 39.0046 223.961 39.8156C225.718 40.6265 227.163 41.5412 228.295 42.5596C229.447 43.5592 230.296 44.7002 230.843 45.9826C231.409 47.2462 231.692 48.6796 231.692 50.2826C231.692 51.9611 231.341 53.4793 230.638 54.8372C229.935 56.1951 228.93 57.3549 227.622 58.3168C226.314 59.2786 224.742 60.0236 222.907 60.5516C221.092 61.0608 219.061 61.3154 216.816 61.3154C214.844 61.3154 212.902 61.0514 210.989 60.5233C209.095 59.9953 207.367 59.2032 205.806 58.147C204.263 57.0909 203.024 55.7896 202.087 54.2431C201.169 52.6778 200.71 50.8673 200.71 48.8116H206.333C206.333 50.226 206.616 51.4425 207.182 52.4609C207.748 53.4604 208.519 54.2903 209.495 54.9504C210.491 55.6104 211.613 56.1008 212.863 56.4214C214.132 56.7232 215.45 56.874 216.816 56.874C218.788 56.874 220.457 56.61 221.824 56.0819C223.19 55.5539 224.225 54.7995 224.928 53.8188C225.65 52.8381 226.011 51.6782 226.011 50.3392Z" fill="white"/>
<path d="M143.287 17.565L138.729 16.4852L139.689 14.1454C139.769 13.9055 139.839 13.6727 139.9 13.4471C139.959 13.2228 139.989 12.9756 139.989 12.7056C139.989 12.1957 139.909 11.7229 139.749 11.2874C139.589 10.853 139.329 10.4259 138.969 10.0059C138.33 9.31603 137.84 8.57331 137.501 7.77781C137.161 6.98351 136.99 6.15141 136.99 5.28151C136.99 4.83156 137.03 4.38162 137.11 3.93167C137.19 3.48173 137.33 3.04678 137.53 2.62683L138.49 0.287109L143.047 1.36698L142.088 3.7067C141.968 3.97667 141.888 4.25383 141.848 4.5382C141.808 4.82377 141.788 5.07154 141.788 5.28151C141.788 5.85144 141.878 6.33918 142.059 6.74474C142.238 7.14909 142.488 7.51624 142.808 7.8462C143.487 8.56612 143.987 9.33882 144.307 10.1643C144.627 10.9886 144.787 11.8357 144.787 12.7056C144.787 13.1256 144.747 13.5455 144.667 13.9655C144.587 14.3854 144.447 14.8054 144.247 15.2253L143.287 17.565Z" fill="white"/>
<path d="M55.1253 24.25L64.2145 48.1488H46.0361L55.1253 24.25Z" fill="white"/>
<path d="M56.6975 46.3387L56.1015 45.5023C56.4264 45.0915 56.5751 44.5756 56.5164 44.0617C56.4578 43.5478 56.1964 43.0755 55.7866 42.743C55.0978 42.1869 54.6258 41.4205 54.4485 40.5704C52.6943 42.9929 53.6051 44.329 54.4485 45.5131L53.83 46.3387C52.6556 46.1249 51.6009 45.5078 50.8609 44.6012C50.121 43.6946 49.7456 42.56 49.8043 41.4069C49.8043 41.4069 49.5682 39.0604 52.3682 36.7683C52.3682 36.7683 55.5392 33.9331 54.4372 31.8365L55.2356 31.1304C56.4537 31.9555 57.3855 33.1165 57.9091 34.4617C58.4328 35.8068 58.5239 37.2734 58.1705 38.6694C58.4372 38.418 58.651 38.1192 58.8003 37.7895L59.7786 37.7134C59.8573 37.8438 61.8476 40.8963 60.7794 43.4709C60.3989 44.2386 59.8265 44.9028 59.1139 45.4035C58.4012 45.9042 57.5708 46.2256 56.6975 46.3387ZM54.4485 38.7889L55.4268 39.2125C55.3746 39.7081 55.4408 40.2086 55.6201 40.6756C55.7994 41.1427 56.0872 41.5638 56.4613 41.9066C56.9433 42.2458 57.3084 42.7174 57.5089 43.2599C57.7095 43.8025 57.7363 44.3908 57.5858 44.9482C58.0506 44.7909 58.4775 44.5443 58.8409 44.2231C59.2042 43.902 59.4964 43.513 59.6998 43.0798C60.0816 41.7573 59.9163 40.3433 59.2388 39.1365C59.0258 39.4702 58.7165 39.7364 58.3489 39.9024C57.9812 40.0684 57.5714 40.1269 57.1697 40.0707L56.7762 39.332C57.2687 38.303 57.4365 37.1566 57.2585 36.036C57.0805 34.9155 56.5646 33.8704 55.7754 33.0314C55.6179 35.3344 53.1778 37.4636 53.0991 37.5831C50.7714 39.495 50.9288 41.2656 50.9288 41.3417C50.8849 42.0126 51.0275 42.6827 51.3419 43.2824C51.6563 43.8822 52.1309 44.3898 52.7167 44.7527C52.0533 43.2319 52.0533 41.4069 54.4822 38.7889H54.4485Z" fill="#9A6EAB"/>
<path d="M58.3336 37.8131C58.3336 38.8869 57.4631 39.7575 56.3892 39.7575C55.3154 39.7575 54.4448 38.8869 54.4448 37.8131C54.4448 36.7392 55.3154 35.8687 56.3892 35.8687C57.4631 35.8687 58.3336 36.7392 58.3336 37.8131Z" fill="#9A6EAB"/>
<path d="M56.3893 37.8131C56.3893 38.8869 55.5188 39.7575 54.4449 39.7575C53.371 39.7575 52.5005 38.8869 52.5005 37.8131C52.5005 36.7392 53.371 35.8687 54.4449 35.8687C55.5188 35.8687 56.3893 36.7392 56.3893 37.8131Z" fill="#9A6EAB"/>
<path fill-rule="evenodd" clip-rule="evenodd" d="M55.2595 32.4917L56.889 35.7506V38.3131H53.8042L55.2595 32.4917ZM55.574 35.3568L55.085 37.3131H55.889V35.9867L55.574 35.3568Z" fill="#9A6EAB"/>
<path fill-rule="evenodd" clip-rule="evenodd" d="M55.9688 39.2985L55.9695 39.2993C55.9923 39.3221 56.0761 39.3823 56.2341 39.4651C56.2396 39.468 56.2451 39.4709 56.2507 39.4738C56.3409 39.3431 56.4917 39.2575 56.6625 39.2575C56.9298 39.2575 57.1482 39.4674 57.1618 39.7313C57.1624 39.7342 57.1632 39.738 57.1644 39.7427C57.1697 39.764 57.1782 39.7914 57.1887 39.8183C57.1905 39.823 57.1924 39.8275 57.1941 39.8317C57.2012 39.8366 57.2082 39.8417 57.2152 39.8468C57.2321 39.8595 57.2625 39.8831 57.2939 39.9165C57.2943 39.9169 57.2948 39.9174 57.2953 39.918C57.3124 39.936 57.4078 40.0362 57.4302 40.1993C57.4449 40.3071 57.4263 40.437 57.346 40.5535C57.273 40.6595 57.179 40.7107 57.1219 40.7341C57.0212 40.7756 56.9321 40.7734 56.9099 40.7728L56.909 40.7728C56.8466 40.7713 56.7916 40.7592 56.7671 40.7535C56.6879 40.7353 56.5818 40.7008 56.4689 40.6592C56.7145 41.1224 56.8808 41.3757 57.1895 41.5102C57.3231 41.5683 57.438 41.639 57.5362 41.7071C57.5327 41.6505 57.5296 41.5903 57.5296 41.5382C57.5296 41.4658 57.5357 41.3888 57.5408 41.3282C57.5421 41.3135 57.5433 41.2994 57.5444 41.2857C57.5487 41.2362 57.5525 41.1923 57.5551 41.1474C57.5583 41.0911 57.5587 41.049 57.5566 41.0181C57.5558 41.0066 57.5548 40.9992 57.5542 40.9952C57.5022 40.8602 57.4844 40.7186 57.506 40.5678C57.5371 40.3496 57.67 40.2048 57.7507 40.131C57.839 40.0503 57.9389 39.9883 58.0169 39.9441C58.0922 39.9015 58.1698 39.8631 58.2278 39.8345C58.2317 39.8325 58.2356 39.8306 58.2393 39.8288C58.2711 39.8131 58.2953 39.801 58.3155 39.7904C58.3335 39.781 58.3413 39.7763 58.3427 39.7755C58.3429 39.7754 58.343 39.7753 58.3428 39.7754C58.3624 39.7627 58.3793 39.7518 58.3944 39.7421C58.4265 39.7214 58.4506 39.706 58.4755 39.6887C58.4883 39.6798 58.498 39.6727 58.5054 39.667C58.5151 39.5843 58.5446 39.4992 58.5992 39.4222C58.6585 39.3386 58.7312 39.2871 58.791 39.2564C58.8981 39.2014 58.9987 39.1952 59.0354 39.1936C59.082 39.1915 59.1231 39.1946 59.14 39.1958C59.147 39.1964 59.1519 39.1967 59.1549 39.1969C59.363 39.2024 59.5103 39.3112 59.5935 39.4025C59.6734 39.4903 59.7194 39.5866 59.7453 39.6496C59.7911 39.7613 59.8184 39.8859 59.8274 39.927C59.8284 39.9318 59.8292 39.9355 59.8298 39.9378C59.9629 40.5097 60.0597 41.168 59.9136 41.8256C59.8885 41.9382 59.8396 42.0226 59.8197 42.0568L59.8194 42.0573C59.8122 42.0697 59.8087 42.0756 59.8065 42.0793C59.8064 42.0795 59.8063 42.0796 59.8062 42.0798C59.7965 42.1079 59.7884 42.1368 59.7762 42.1802C59.7725 42.1932 59.7685 42.2075 59.7639 42.2234C59.7441 42.2931 59.7154 42.3898 59.6676 42.4923C59.4032 43.0588 59.0608 43.5939 58.6252 44.0601C58.6235 44.0635 58.6216 44.0676 58.6194 44.0725C58.6184 44.0745 58.6173 44.077 58.6159 44.08C58.608 44.0972 58.5935 44.1289 58.5784 44.1581C58.5591 44.1953 58.53 44.2466 58.4876 44.2996C58.4878 44.2993 58.4879 44.2992 58.4879 44.2992C58.4879 44.2992 58.4847 44.3033 58.4784 44.3127C58.4715 44.3228 58.4633 44.3354 58.4546 44.3495C58.4361 44.3796 58.4218 44.4053 58.4161 44.4168C58.2926 44.6638 57.9922 44.7639 57.7453 44.6404C57.4983 44.5169 57.3982 44.2166 57.5216 43.9696C57.559 43.8948 57.63 43.775 57.6938 43.6915C57.6959 43.6871 57.6984 43.6815 57.7029 43.6719C57.7052 43.6669 57.708 43.6607 57.7116 43.653C57.7122 43.6516 57.7129 43.6502 57.7135 43.6488C57.7347 43.6028 57.7852 43.4932 57.8788 43.3941C58.2395 43.0123 58.5312 42.5627 58.7614 42.0694C58.7738 42.0428 58.785 42.0101 58.8021 41.9499C58.8043 41.942 58.8068 41.9331 58.8095 41.9234C58.8243 41.8703 58.846 41.7927 58.8739 41.7173C58.8911 41.6708 58.9105 41.633 58.9247 41.6071C58.9318 41.5942 58.9385 41.5827 58.9433 41.5743L58.9454 41.5709C59.0072 41.2633 58.9951 40.9334 58.9388 40.5812C58.9324 40.5854 58.9262 40.5893 58.9202 40.5931C58.9082 40.6007 58.8973 40.6077 58.8878 40.6139C58.8242 40.6552 58.7439 40.6949 58.6907 40.7211C58.6879 40.7225 58.6852 40.7239 58.6826 40.7252L58.6782 40.7273C58.625 40.7537 58.578 40.7769 58.5349 40.8003C58.5655 40.9578 58.5589 41.1106 58.5534 41.2054C58.5499 41.2656 58.5446 41.3272 58.5402 41.3781C58.5392 41.3901 58.5382 41.4014 58.5373 41.412C58.532 41.475 58.5296 41.5131 58.5296 41.5382C58.5296 41.5738 58.5328 41.6234 58.5381 41.7046C58.5386 41.7129 58.5392 41.7216 58.5398 41.7305C58.5454 41.8175 58.552 41.9269 58.5519 42.0385C58.5517 42.1484 58.5454 42.279 58.5185 42.408C58.4927 42.5318 58.4388 42.7002 58.3101 42.8432C58.152 43.0189 57.9477 43.0361 57.8333 43.0254C57.7257 43.0155 57.6383 42.9787 57.5915 42.9569C57.4999 42.914 57.4013 42.8456 57.4089 42.8505C57.3016 42.7817 57.1955 42.7006 57.1122 42.6369C57.0873 42.6179 57.0645 42.6004 57.0443 42.5853C56.9438 42.5103 56.8681 42.4609 56.7903 42.427C56.1241 42.1369 55.8197 41.5699 55.5826 41.1225C55.5594 41.0786 55.5327 41.0295 55.504 40.9767C55.4283 40.8377 55.3389 40.6734 55.2634 40.5137C55.1571 40.2888 55.0507 40.0191 55.0152 39.7351C55.0101 39.6943 54.9957 39.5786 55.034 39.4551C55.056 39.3842 55.1115 39.2587 55.2486 39.1699C55.3941 39.0757 55.5436 39.0789 55.6368 39.0986C55.7754 39.1278 55.8707 39.2089 55.8897 39.2251C55.8905 39.2258 55.8912 39.2264 55.8917 39.2268C55.9245 39.2542 55.9541 39.2838 55.9688 39.2985ZM58.4253 40.8692C58.4256 40.8689 58.426 40.8685 58.4264 40.8682C58.423 40.8717 58.4222 40.872 58.4253 40.8692ZM58.8198 40.0284C58.8189 40.0266 58.8184 40.0255 58.8184 40.0255C58.8185 40.0255 58.8189 40.0264 58.8198 40.0284ZM58.9586 41.5479C58.9587 41.5479 58.9583 41.5486 58.9574 41.5502C58.9581 41.5487 58.9586 41.5479 58.9586 41.5479ZM57.5344 42.2233C57.5344 42.2233 57.5346 42.2225 57.5353 42.221C57.5347 42.2226 57.5344 42.2234 57.5344 42.2233ZM56.0075 39.6111C56.0063 39.6013 56.0073 39.6036 56.008 39.6148C56.0078 39.6136 56.0076 39.6123 56.0075 39.6111ZM56.991 39.7789C56.9907 39.7788 56.9903 39.7788 56.9899 39.7787Z" fill="#9A6EAB"/>
<path fill-rule="evenodd" clip-rule="evenodd" d="M52.8016 37.5982C52.8928 37.4994 53.0751 37.3433 53.3508 37.3433C53.627 37.3433 53.8508 37.5671 53.8508 37.8433C53.8508 38.0657 53.7056 38.2542 53.5048 38.3191C53.4988 38.3279 53.4923 38.3375 53.4845 38.3491L53.4832 38.3512C53.474 38.3648 53.4623 38.3823 53.4503 38.3994C53.3877 38.4892 53.3312 38.5882 53.2664 38.7067C53.2567 38.7244 53.2467 38.7428 53.2364 38.7618C53.2306 38.7725 53.2247 38.7833 53.2187 38.7943C53.2426 38.8011 53.2676 38.8101 53.2932 38.8218C53.4123 38.8764 53.513 38.9777 53.5623 39.1134C53.6048 39.2299 53.5946 39.3315 53.5857 39.383C53.5761 39.4382 53.5597 39.482 53.549 39.5078C53.5279 39.5586 53.5019 39.6023 53.4871 39.6264C53.4322 39.7164 53.3866 39.786 53.3459 39.8481C53.2863 39.9392 53.2373 40.0139 53.1852 40.1125C53.1633 40.1539 53.1064 40.2574 53.0363 40.357C53.0023 40.4054 52.9536 40.4695 52.8941 40.5272C52.8641 40.5563 52.8208 40.5942 52.7651 40.6279C52.713 40.6594 52.6208 40.7051 52.499 40.7122C52.5395 40.788 52.5597 40.8611 52.5705 40.9148C52.5874 40.9985 52.5909 41.0819 52.5862 41.1572C52.5815 41.2322 52.5678 41.3151 52.54 41.3969C52.515 41.4704 52.4636 41.5877 52.3553 41.6851C52.2765 41.756 52.1921 41.8002 52.1115 41.8276C52.1165 41.8373 52.1215 41.8471 52.126 41.8565C52.1469 41.8992 52.176 41.9639 52.1953 42.0412C52.2055 42.082 52.2186 42.1305 52.2333 42.1846C52.2899 42.3936 52.3691 42.6859 52.3892 42.9427C52.3922 42.9488 52.3961 42.9563 52.4014 42.9661C52.4033 42.9697 52.4057 42.9743 52.4086 42.9796C52.4214 43.0034 52.4425 43.0426 52.4596 43.0785C52.4825 43.1265 52.5123 43.1959 52.5308 43.2794C52.5389 43.3157 52.5555 43.3558 52.5999 43.4398C52.6044 43.4483 52.6094 43.4577 52.6149 43.4679C52.655 43.5427 52.718 43.6605 52.7618 43.7918C52.8491 44.0538 52.7075 44.3369 52.4456 44.4243C52.1836 44.5116 51.9004 44.37 51.8131 44.108C51.7978 44.0622 51.7771 44.0229 51.733 43.9397C51.7275 43.9294 51.7217 43.9184 51.7155 43.9066C51.6674 43.8155 51.5978 43.6801 51.558 43.511C51.5577 43.5104 51.5575 43.5099 51.5572 43.5092C51.5513 43.497 51.546 43.4872 51.5362 43.4689C51.5315 43.4601 51.5257 43.4493 51.5183 43.4354C51.5174 43.4337 51.5165 43.432 51.5155 43.4302C51.4826 43.3684 51.4035 43.2199 51.3933 43.0358C51.3849 42.8856 51.3409 42.7213 51.2867 42.5192C51.2682 42.4501 51.2485 42.3767 51.2287 42.2979C51.2282 42.2969 51.2277 42.2959 51.2272 42.2947C51.221 42.2821 51.2157 42.2721 51.2067 42.2555C51.2017 42.246 51.1954 42.2344 51.1872 42.2189L51.1856 42.2158C51.1531 42.1545 51.0801 42.0165 51.0614 41.8481C51.0623 41.8565 51.0623 41.8564 51.051 41.7947C51.0431 41.7518 51.0325 41.6914 51.0246 41.6289C51.0177 41.5731 51.0088 41.4857 51.0156 41.3976C51.0188 41.356 51.0278 41.2782 51.064 41.1939C51.0805 41.1554 51.1092 41.1019 51.1548 41.0492C51.1028 40.9743 51.0637 40.8807 51.0544 40.7701C51.0427 40.6306 51.083 40.5146 51.1238 40.4343C51.124 40.4334 51.1242 40.4325 51.1244 40.4315C51.1281 40.4116 51.1302 40.3954 51.1337 40.3683C51.1357 40.3527 51.1382 40.3335 51.1417 40.308C51.1492 40.2534 51.162 40.1672 51.191 40.0778C51.221 39.9854 51.2751 39.8667 51.3803 39.7616C51.5243 39.6175 51.7046 39.5739 51.8208 39.5593C51.8191 39.5348 51.8193 39.5146 51.8199 39.5004C51.8219 39.4459 51.8317 39.4017 51.8378 39.3771C51.8449 39.3488 51.8538 39.3221 51.8606 39.303C51.8896 39.1379 51.955 38.9914 52.0111 38.8828C52.0667 38.7755 52.1319 38.6712 52.1788 38.5962C52.1865 38.5839 52.1937 38.5725 52.2002 38.5619C52.2528 38.4772 52.2996 38.3912 52.3542 38.2908C52.3654 38.2702 52.377 38.2489 52.389 38.227C52.4558 38.1048 52.5342 37.9648 52.6302 37.8272C52.6318 37.825 52.6346 37.8206 52.6386 37.8146C52.6635 37.777 52.732 37.6735 52.8016 37.5982ZM51.1215 40.4446C51.1215 40.4446 51.1216 40.4442 51.1218 40.4434Z" fill="#9A6EAB"/>
<path fill-rule="evenodd" clip-rule="evenodd" d="M56.0247 34.3975C56.577 34.3975 57.0247 34.8452 57.0247 35.3975C57.0247 35.6583 56.9608 35.9353 56.9346 36.0489C56.9305 36.0666 56.9274 36.0803 56.9255 36.0894C56.9201 36.1156 56.9144 36.1574 56.9076 36.24C56.9065 36.2541 56.9051 36.2718 56.9036 36.2919C56.8983 36.3612 56.8908 36.4599 56.8807 36.5462C56.8631 36.6971 56.8519 36.7607 56.8453 36.7986C56.8392 36.8333 56.8369 36.8463 56.8369 36.8851C56.8369 37.4374 56.3892 37.8851 55.8369 37.8851C55.2846 37.8851 54.8369 37.4374 54.8369 36.8851C54.8369 36.6845 54.8804 36.4035 54.8917 36.3311C54.8931 36.3217 54.894 36.3158 54.8942 36.314C54.8993 36.2704 54.9022 36.2333 54.9063 36.1791C54.9084 36.1505 54.911 36.1173 54.9144 36.0758C54.9227 35.9755 54.9359 35.8352 54.9666 35.6861C54.9751 35.6445 54.9845 35.6022 54.9919 35.5688C54.9933 35.5624 54.9947 35.5563 54.9959 35.5505C55.0046 35.5111 55.0107 35.4827 55.0155 35.4574C55.0238 35.414 55.0246 35.3978 55.0247 35.3967" fill="#9A6EAB"/>
<path fill-rule="evenodd" clip-rule="evenodd" d="M54.5805 37.7377C54.971 37.3472 55.6042 37.3472 55.9947 37.7377C56.0427 37.7857 56.0835 37.8207 56.117 37.845C56.1496 37.8686 56.1663 37.8754 56.167 37.8757C56.167 37.8757 56.167 37.8757 56.167 37.8757C56.4746 37.9924 56.6651 38.2038 56.7283 38.2739C56.7299 38.2758 56.7315 38.2775 56.733 38.2792C56.7439 38.2913 56.7598 38.3092 56.769 38.3195C56.77 38.3207 56.771 38.3217 56.7718 38.3227C57.1792 38.6419 57.2781 39.2261 56.9862 39.6639C56.6799 40.1234 56.059 40.2476 55.5995 39.9413C55.4845 39.8646 55.4001 39.7827 55.3486 39.7292C55.331 39.7109 55.315 39.6936 55.3016 39.6788C54.9876 39.5287 54.7459 39.3174 54.5805 39.1519C54.19 38.7614 54.19 38.1282 54.5805 37.7377Z" fill="#9A6EAB"/>
<path fill-rule="evenodd" clip-rule="evenodd" d="M57.4049 41.1132C57.4153 41.1788 57.4324 41.2443 57.4566 41.3089C57.6505 41.826 58.2269 42.088 58.7441 41.8941C58.9111 41.8315 59.0248 41.7383 59.0895 41.676C59.1121 41.6542 59.1322 41.6327 59.15 41.6123C59.1714 41.5981 59.193 41.5827 59.2147 41.5658C59.3137 41.4888 59.3772 41.41 59.4089 41.3675C59.4441 41.3204 59.4693 41.2786 59.4848 41.2513C59.515 41.1982 59.5359 41.1513 59.5444 41.132C59.5448 41.1311 59.5453 41.13 59.5458 41.1288C59.5714 41.0828 59.5931 41.0407 59.607 41.0137C59.6092 41.0094 59.6112 41.0055 59.613 41.0021C59.624 40.9808 59.6308 40.9678 59.6366 40.9573C59.6402 40.9508 59.6423 40.9471 59.6432 40.9457L59.6463 40.9408L59.6522 40.9319C59.6605 40.9191 59.6787 40.891 59.6984 40.8564C59.7399 40.7836 59.8002 40.6621 59.8325 40.5008C59.8714 40.3062 59.857 40.1293 59.8422 40.0237C59.8418 40.0138 59.8412 40.0008 59.8404 39.9867C59.8393 39.9686 59.8371 39.9344 59.8317 39.8938L59.8315 39.8926C59.8281 39.8663 59.8148 39.7662 59.7697 39.6499C59.7479 39.5935 59.6918 39.4611 59.5697 39.329C59.431 39.1789 59.1712 38.9979 58.8085 39.0067C58.4851 39.0144 58.2688 39.1711 58.178 39.2491C58.0804 39.3328 58.0208 39.4167 57.9934 39.4579C57.9349 39.5456 57.8949 39.6263 57.8699 39.6798C57.8574 39.7066 57.8464 39.7314 57.8392 39.7478L57.8229 39.7848C57.8225 39.7855 57.8191 39.7924 57.8099 39.808C57.7978 39.8283 57.7835 39.8507 57.7576 39.8911C57.7552 39.8947 57.7527 39.8986 57.7501 39.9028C57.7244 39.9426 57.6856 40.0028 57.6443 40.0756C57.4623 40.2567 57.3496 40.5074 57.3496 40.7845C57.3496 40.8996 57.3691 41.0102 57.4049 41.1132ZM57.9755 39.8415L57.9754 39.8417ZM59.8432 40.0549L59.8431 40.0521C59.8438 40.063 59.8436 40.0653 59.8432 40.0549Z" fill="#9A6EAB"/>
<path fill-rule="evenodd" clip-rule="evenodd" d="M57.1974 40.2408C57.0793 39.7608 56.6207 39.4311 56.1161 39.4872C55.8346 39.5184 55.5316 39.6737 55.3492 39.9812C55.202 40.2294 55.2016 40.4661 55.2064 40.5638C55.2161 40.7585 55.2792 40.9133 55.2967 40.9563C55.297 40.9569 55.2972 40.9575 55.2975 40.9581C55.3409 41.0648 55.4202 41.2076 55.3919 41.1534C55.4751 41.313 55.6541 41.6357 56.01 41.8607C56.0683 41.8976 56.1397 41.9393 56.1857 41.9662C56.1996 41.9743 56.2112 41.9811 56.2194 41.986C56.2716 42.0169 56.2923 42.0312 56.3021 42.0388C56.4291 42.1361 56.5651 42.2233 56.7182 42.2998C57.2121 42.5468 57.8128 42.3466 58.0598 41.8526C58.3068 41.3586 58.1066 40.758 57.6126 40.511C57.5827 40.496 57.5538 40.4782 57.5183 40.451C57.4135 40.3708 57.3122 40.3089 57.2406 40.2663C57.2243 40.2566 57.2101 40.2483 57.1974 40.2408Z" fill="#9A6EAB"/>
<path fill-rule="evenodd" clip-rule="evenodd" d="M59.0748 42.1368C58.9069 41.8202 58.574 41.6045 58.1907 41.6045C57.6384 41.6045 57.1907 42.0522 57.1907 42.6045V42.9473C57.1539 43.0728 57.1317 43.2364 57.1676 43.4246C57.24 43.8037 57.4943 44.0264 57.6856 44.1292C57.8534 44.2194 58.006 44.2408 58.0741 44.2479C58.155 44.2564 58.2232 44.2544 58.2679 44.2515C58.357 44.2457 58.4349 44.2308 58.4912 44.2173C58.521 44.2101 58.5573 44.2004 58.5966 44.1872C58.597 44.187 58.5976 44.1869 58.5984 44.1866C58.616 44.1808 58.7227 44.1459 58.8357 44.0727C59.1929 43.8412 59.3621 43.4843 59.4303 43.3022C59.5929 42.8686 59.435 42.3933 59.0748 42.1368Z" fill="#9A6EAB"/>
<path fill-rule="evenodd" clip-rule="evenodd" d="M59.1439 40.7954C59.6962 40.7954 60.1439 41.2431 60.1439 41.7954C60.1439 41.8171 60.1443 41.844 60.1446 41.8749C60.1464 42.027 60.1493 42.2772 60.1218 42.4972C60.0533 43.0452 59.5535 43.4339 59.0055 43.3654C58.4574 43.2969 58.0687 42.7971 58.1372 42.2491C58.1464 42.176 58.1458 42.1048 58.1448 41.9748C58.1444 41.9249 58.1439 41.8662 58.1439 41.7954C58.1439 41.2431 58.5917 40.7954 59.1439 40.7954Z" fill="#9A6EAB"/>
<path fill-rule="evenodd" clip-rule="evenodd" d="M53.5893 38.378C54.0489 38.6844 54.173 39.3052 53.8667 39.7648C53.8369 39.8094 53.8016 39.8766 53.7745 39.9441C53.7437 40.0212 53.7115 40.0969 53.6786 40.171C53.6682 40.2467 53.6493 40.3196 53.6229 40.3889L53.6193 40.4009L53.6119 40.425L53.6057 40.4444L53.6056 40.4445C53.6039 40.4497 53.5979 40.4677 53.5896 40.4896C53.4891 40.7533 53.3491 41.0161 53.2484 41.2049C53.2285 41.2423 53.2101 41.2769 53.1938 41.3079C53.1838 41.3271 53.1759 41.3444 53.158 41.3833C53.1518 41.3968 53.1445 41.4128 53.1354 41.4324C53.1073 41.4933 53.0607 41.593 52.9981 41.6966C52.9825 41.7224 52.9525 41.7698 52.9088 41.8231L52.9077 41.8244C52.8806 41.8573 52.7667 41.9961 52.5663 42.0927C52.451 42.1483 52.2561 42.2143 52.0123 42.1853C51.7504 42.1541 51.5428 42.0265 51.4034 41.8794C51.1845 41.6483 51.1466 41.3876 51.1394 41.3383C51.1392 41.3371 51.1391 41.336 51.1389 41.335C51.1178 41.1928 51.133 41.0764 51.1363 41.0507C51.1364 41.0499 51.1365 41.0492 51.1366 41.0485C51.1424 41.003 51.1509 40.9594 51.161 40.9189C51.1981 40.7706 51.2499 40.6418 51.282 40.5639C51.3886 40.3051 51.5114 40.0582 51.6166 39.8466C51.622 39.8358 51.6274 39.8251 51.6326 39.8145C51.7469 39.5845 51.8411 39.3927 51.9176 39.2014C51.9888 39.0234 52.0859 38.8304 52.2026 38.6554C52.5089 38.1958 53.1298 38.0717 53.5893 38.378Z" fill="#9A6EAB"/>
<path fill-rule="evenodd" clip-rule="evenodd" d="M56.1255 33.5308C56.6778 33.5308 57.1255 33.9785 57.1255 34.5308V34.9229C57.1259 34.9294 57.1264 34.9387 57.1272 34.9514C57.1292 34.986 57.1321 35.0394 57.1332 35.0967C57.1342 35.1446 57.135 35.236 57.1237 35.3332C57.1188 35.375 57.1056 35.4777 57.0623 35.5958C57.0406 35.6551 56.9953 35.7637 56.9059 35.8781C56.814 35.9958 56.6367 36.1667 56.3536 36.2375C55.8178 36.3714 55.2749 36.0457 55.1409 35.5099C55.1036 35.3606 55.102 35.2107 55.1307 35.0692L55.1284 35.0314L55.127 35.0068C55.1267 35.0009 55.1255 34.9769 55.1255 34.9496V34.5308C55.1255 33.9785 55.5732 33.5308 56.1255 33.5308ZM55.1337 35.1477C55.1337 35.1476 55.1337 35.1465 55.1337 35.1444Z" fill="#9A6EAB"/>
</svg>
