<svg width="327" height="84" viewBox="0 0 327 84" fill="none" xmlns="http://www.w3.org/2000/svg">
<path d="M7.95456 24.8381V82.81H0V24.8381H7.95456ZM44.1829 24.8381L19.2476 51.8731L5.23435 65.9281L3.91546 57.726L14.4666 46.4979L34.6209 24.8381H44.1829ZM36.5168 82.81L14.3017 54.5407L19.0415 48.4489L45.9963 82.81H36.5168Z" fill="#E15B19"/>
<path d="M79.4385 29.9743L59.5727 82.81H51.4532L74.3278 24.8381H79.5621L79.4385 29.9743ZM96.0895 82.81L76.1825 29.9743L76.0588 24.8381H81.2932L104.25 82.81H96.0895ZM95.0591 61.3492V67.6401H61.3449V61.3492H95.0591Z" fill="#E15B19"/>
<path d="M119.022 24.8381H126.729L146.389 72.0995L166.007 24.8381H173.756L149.356 82.81H143.339L119.022 24.8381ZM116.508 24.8381H123.308L124.421 60.1946V82.81H116.508V24.8381ZM169.428 24.8381H176.229V82.81H168.315V60.1946L169.428 24.8381Z" fill="#E15B19"/>
<path d="M202.953 24.8381V82.81H194.998V24.8381H202.953Z" fill="#E15B19"/>
<path d="M267.801 24.8381V82.81H259.805L229.594 38.0968V82.81H221.64V24.8381H229.594L259.929 69.6708V24.8381H267.801Z" fill="#E15B19"/>
<path d="M318.1 68.1578C318.1 66.804 317.88 65.6095 317.441 64.5743C317.029 63.5126 316.287 62.557 315.215 61.7076C314.171 60.8582 312.715 60.0486 310.846 59.2788C309.005 58.509 306.67 57.726 303.84 56.9297C300.872 56.0803 298.193 55.138 295.803 54.1028C293.412 53.041 291.365 51.8333 289.661 50.4795C287.958 49.1258 286.653 47.573 285.746 45.8211C284.839 44.0692 284.386 42.0651 284.386 39.8089C284.386 37.5526 284.867 35.4689 285.828 33.5578C286.79 31.6466 288.164 29.9876 289.95 28.5808C291.763 27.1474 293.92 26.0326 296.421 25.2363C298.921 24.4399 301.71 24.0418 304.788 24.0418C309.294 24.0418 313.113 24.8779 316.245 26.5502C319.405 28.1959 321.809 30.3592 323.458 33.0402C325.107 35.6946 325.931 38.5348 325.931 41.5608H318.018C318.018 39.3842 317.537 37.4597 316.575 35.7875C315.613 34.0886 314.157 32.7615 312.206 31.8059C310.255 30.8237 307.783 30.3327 304.788 30.3327C301.957 30.3327 299.622 30.7441 297.781 31.567C295.94 32.3898 294.566 33.5047 293.659 34.9115C292.78 36.3183 292.341 37.9242 292.341 39.7292C292.341 40.9502 292.602 42.0651 293.124 43.0738C293.673 44.0559 294.511 44.9716 295.638 45.8211C296.792 46.6705 298.248 47.4535 300.007 48.1702C301.793 48.8869 303.922 49.577 306.395 50.2406C309.802 51.1697 312.742 52.2049 315.215 53.3463C317.688 54.4876 319.721 55.775 321.315 57.2084C322.936 58.6152 324.131 60.2211 324.901 62.0261C325.697 63.8046 326.096 65.8219 326.096 68.0781C326.096 70.4405 325.601 72.5773 324.612 74.4885C323.623 76.3996 322.208 78.0321 320.367 79.3858C318.526 80.7396 316.314 81.7881 313.731 82.5313C311.176 83.248 308.318 83.6063 305.158 83.6063C302.383 83.6063 299.649 83.2347 296.957 82.4915C294.291 81.7482 291.86 80.6334 289.661 79.1469C287.491 77.6605 285.746 75.8289 284.427 73.6523C283.136 71.4492 282.49 68.901 282.49 66.0077H290.403C290.403 67.9985 290.802 69.7106 291.599 71.1439C292.395 72.5508 293.481 73.7187 294.855 74.6477C296.256 75.5768 297.836 76.2669 299.594 76.7182C301.38 77.1429 303.235 77.3552 305.158 77.3552C307.934 77.3552 310.283 76.9836 312.206 76.2404C314.13 75.4971 315.586 74.4354 316.575 73.0551C317.592 71.6748 318.1 70.0424 318.1 68.1578Z" fill="#E15B19"/>
<path d="M201.671 23.0579L195.255 21.6168L196.606 18.4943C196.719 18.1741 196.818 17.8635 196.903 17.5624C196.986 17.263 197.028 16.9331 197.028 16.5729C197.028 15.8923 196.916 15.2614 196.69 14.6802C196.465 14.1005 196.1 13.5305 195.593 12.9701C194.693 12.0493 194.004 11.0582 193.527 9.99655C193.047 8.93653 192.808 7.82607 192.808 6.66517C192.808 6.06471 192.864 5.46424 192.976 4.86377C193.089 4.26331 193.286 3.68286 193.567 3.12242L194.918 0L201.333 1.44112L199.982 4.56354C199.814 4.92382 199.701 5.29371 199.645 5.6732C199.588 6.0543 199.56 6.38495 199.56 6.66517C199.56 7.42576 199.688 8.07667 199.942 8.61789C200.194 9.15751 200.545 9.64748 200.995 10.0878C201.952 11.0486 202.655 12.0798 203.106 13.1814C203.556 14.2815 203.781 15.412 203.781 16.5729C203.781 17.1333 203.725 17.6937 203.612 18.2542C203.499 18.8146 203.302 19.375 203.021 19.9355L201.671 23.0579Z" fill="#E15B19"/>
<path d="M77.586 31.4382L90.3786 65.0747H64.7935L77.586 31.4382Z" fill="#E15B19"/>
<path d="M79.799 62.5264L78.9602 61.3491C79.4176 60.771 79.6268 60.0448 79.5442 59.3216C79.4617 58.5983 79.0938 57.9336 78.5171 57.4656C77.5476 56.6829 76.8833 55.6043 76.6337 54.4078C74.1647 57.8173 75.4467 59.6979 76.6337 61.3644L75.7632 62.5264C74.1103 62.2255 72.6259 61.3569 71.5844 60.0809C70.5429 58.805 70.0147 57.208 70.0973 55.585C70.0973 55.585 69.7649 52.2826 73.7058 49.0565C73.7058 49.0565 78.1689 45.066 76.6179 42.1152L77.7416 41.1214C79.4559 42.2826 80.7674 43.9168 81.5044 45.81C82.2415 47.7033 82.3697 49.7673 81.8723 51.7321C82.2476 51.3784 82.5486 50.9578 82.7586 50.4937L84.1356 50.3867C84.2463 50.5702 87.0477 54.8664 85.5441 58.49C85.0086 59.5706 84.203 60.5055 83.2 61.2101C82.197 61.9148 81.0282 62.3672 79.799 62.5264ZM76.6337 51.9003L78.0106 52.4966C77.9372 53.1941 78.0303 53.8986 78.2827 54.5559C78.5351 55.2132 78.9402 55.8059 79.4667 56.2883C80.1451 56.7658 80.6589 57.4296 80.9412 58.1931C81.2235 58.9567 81.2612 59.7848 81.0493 60.5694C81.7035 60.348 82.3044 60.0008 82.8158 59.5488C83.3272 59.0968 83.7385 58.5494 84.0248 57.9396C84.5621 56.0783 84.3294 54.0882 83.3759 52.3896C83.0761 52.8593 82.6407 53.234 82.1233 53.4676C81.6059 53.7012 81.029 53.7836 80.4638 53.7045L79.9098 52.6648C80.6031 51.2165 80.8392 49.603 80.5887 48.0259C80.3382 46.4487 79.6121 44.9778 78.5013 43.797C78.2797 47.0383 74.8453 50.035 74.7345 50.2032C71.4584 52.8941 71.6799 55.3863 71.6799 55.4933C71.6181 56.4376 71.8189 57.3807 72.2613 58.2248C72.7038 59.0689 73.3719 59.7834 74.1964 60.2941C73.2626 58.1536 73.2626 55.585 76.6812 51.9003H76.6337Z" fill="white"/>
<ellipse cx="79.3656" cy="50.5271" rx="2.73666" ry="2.73666" fill="white"/>
<ellipse cx="76.6292" cy="50.5271" rx="2.73666" ry="2.73666" fill="white"/>
<path d="M76.6289 50.527L77.9972 45.0537L79.3656 47.7904V50.527H76.6289Z" stroke="white"/>
<path d="M79.7504 53.2637C79.7504 53.4045 79.8846 53.8216 80.0307 53.9051C80.5871 54.223 78.7306 53.5695 78.2775 53.1164C78.1893 53.0282 78.106 52.9511 78.1302 53.1449C78.2028 53.7255 78.583 54.3469 78.8524 54.8553C79.1932 55.4984 79.5244 56.0766 80.2112 56.3757C80.5815 56.537 80.8452 56.8097 81.1805 57.0242C81.2426 57.064 81.4643 57.227 81.5463 57.1359C81.8008 56.8531 81.6746 56.1074 81.6746 55.7699C81.6746 55.4957 81.7701 55.0229 81.6651 54.7603C81.6317 54.6767 81.621 54.5964 81.6342 54.5038C81.6736 54.2283 82.2911 54.0141 82.4989 53.879C82.7878 53.6912 83.0227 53.5648 83.0429 53.2209C83.0471 53.1502 83.1846 53.1782 83.2353 53.1782C83.4235 53.1782 83.4927 53.548 83.5228 53.6771C83.7027 54.4501 83.8102 55.2522 83.6392 56.0217C83.6184 56.1152 83.5543 56.1813 83.5228 56.2664C83.4544 56.4511 83.4271 56.6334 83.3422 56.8152C82.9914 57.5669 82.5408 58.2651 81.9739 58.8653C81.877 58.9679 81.8506 59.1157 81.7696 59.2169C81.715 59.2852 81.6301 59.4247 81.5891 59.5067" stroke="white" stroke-linecap="round"/>
<path d="M75.0893 50.5698C74.8825 50.5698 74.7592 50.7965 74.6522 50.9499C74.4289 51.2699 74.2726 51.6225 74.0678 51.9524C73.9184 52.1932 73.7099 52.5084 73.6782 52.7933C73.6746 52.8261 73.5832 52.9909 73.6878 52.9549C73.9957 52.8487 74.3009 52.7121 74.6118 52.6033C74.7574 52.5523 74.7471 52.604 74.6807 52.7126C74.5326 52.9549 74.3671 53.1832 74.2341 53.4347C74.1845 53.5287 73.9778 53.8987 73.8493 53.9051C73.6729 53.9139 73.5549 53.7154 73.3813 53.6937C73.2292 53.6747 72.9342 53.6467 72.8135 53.7673C72.6338 53.9471 72.7051 54.314 72.5879 54.5251C72.404 54.8561 73.1285 54.7573 73.2506 54.91C73.3468 55.0301 73.326 55.3562 73.2174 55.454C73.0425 55.6114 72.7532 55.4736 72.5475 55.5324C72.4412 55.5627 72.5572 56.0451 72.5665 56.1286C72.5873 56.3161 72.7403 56.4892 72.7803 56.6489C72.8723 57.017 73.0159 57.4622 73.0368 57.8391C73.0474 58.0282 73.2086 58.1949 73.2483 58.3736C73.3147 58.6723 73.4986 58.8822 73.5927 59.1646" stroke="white" stroke-linecap="round"/>
<path d="M73.9385 51.4959C73.8346 51.818 73.6729 52.126 73.5074 52.4205C73.414 52.5866 73.3104 52.7882 73.1742 52.9244C72.9339 53.1647 72.8309 53.4905 72.6734 53.7814C72.5174 54.0693 72.476 54.4135 72.4214 54.732C72.3535 55.128 72.2873 55.5414 72.2715 55.944C72.2595 56.2496 72.3596 56.4797 72.4808 56.7624C72.6165 57.0792 72.6623 57.4501 72.7005 57.7932C72.7097 57.8761 72.7185 58.1868 72.8421 58.1868C72.9043 58.1868 73.0167 57.5373 73.0389 57.4548C73.0836 57.2886 73.0974 57.1158 73.143 56.9498C73.1914 56.7738 73.2372 56.6069 73.2638 56.425C73.3298 55.9736 73.3575 55.5327 73.3575 55.0756C73.3575 54.8249 73.3324 54.5587 73.3804 54.3114C73.4019 54.2004 73.4222 54.0401 73.4928 53.9459C73.6555 53.729 73.838 53.5342 74.0405 53.3534C74.2078 53.2042 74.3651 53.0345 74.5466 52.9026C74.6281 52.8433 74.7124 52.7892 74.7902 52.7256C74.881 52.6513 74.6831 52.9474 74.6694 52.9723C74.521 53.2423 74.4137 53.5305 74.2654 53.8001C74.1991 53.9207 74.1135 54.0447 74.0697 54.176" stroke="white" stroke-width="2" stroke-linecap="round"/>
<path d="M73.3193 59.6674C73.3281 59.7466 73.4038 59.7612 73.4321 59.8178" stroke="white" stroke-width="2" stroke-linecap="round"/>
<path d="M78.1924 48.6846C78.204 48.6323 78.3246 48.5831 78.3611 48.545C78.5296 48.3693 78.5402 48.0806 78.5672 47.8537C78.6241 47.3768 78.6614 46.8984 78.7317 46.423C78.7725 46.1477 78.8296 45.8872 78.8296 45.6088C78.8296 45.3891 78.8296 45.1694 78.8296 44.9497C78.8296 44.9073 78.8347 44.8641 78.8202 44.8237C78.8014 44.7708 78.7921 44.7121 78.7921 44.6561C78.7921 44.5625 78.7805 44.5835 78.8421 44.6988C79.1709 45.3136 79.5124 45.9257 79.8188 46.5521C79.9247 46.7687 80.0303 46.9978 80.0708 47.2373C80.0891 47.3456 80.1215 47.4667 80.103 47.5777C80.0978 47.6094 80.0721 47.5819 80.0614 47.5694C79.92 47.4045 79.8284 47.1538 79.7459 46.9613C79.5367 46.4732 79.3733 45.9714 79.2222 45.463C79.1444 45.2014 79.0653 44.9389 78.9462 44.6925C78.8912 44.5787 78.8005 44.3968 78.6797 44.3364" stroke="white" stroke-width="2" stroke-linecap="round"/>
<path d="M83.74 52.9203C83.74 52.8566 83.7259 52.7633 83.665 52.7328" stroke="white" stroke-width="2" stroke-linecap="round"/>
<path d="M80.8357 54.7195C80.8554 54.877 80.8732 54.4035 80.8732 54.2447C80.8732 54.0688 80.9438 54.1198 80.7638 54.1198C80.6226 54.1198 80.4914 54.1085 80.3526 54.0864C80.3327 54.0833 80.2591 54.0525 80.2401 54.0677C80.2196 54.0841 80.3493 54.105 80.3859 54.1156C80.5784 54.1713 80.7712 54.2501 80.9606 54.3186C81.1684 54.3938 81.2835 54.5658 81.4479 54.7018C81.5723 54.8047 81.7047 54.9064 81.8478 54.9819C81.9619 55.0421 82.0351 55.1335 82.1747 55.1464C82.5854 55.1844 83.0482 54.9792 83.2222 54.5894C83.3537 54.2948 83.2051 54.1123 82.9285 54.025C82.1262 53.7716 81.303 53.7231 80.4671 53.7262C80.137 53.7274 79.8064 53.7773 79.4863 53.8574C79.3544 53.8904 79.1098 53.9081 79.0281 54.0365C78.9325 54.1867 80.7173 55.1813 80.9127 55.288C81.1819 55.435 81.4316 55.5979 81.6406 55.8242C81.7199 55.9103 81.7812 56.0065 81.8561 56.095C81.8919 56.1373 81.9446 56.1636 81.9831 56.2064C82.1484 56.3901 82.27 56.6212 82.3413 56.8571C82.4705 57.2848 82.4368 57.8196 82.3392 58.2534C82.3257 58.3136 82.3584 58.2936 82.3767 58.2493C82.4473 58.0783 82.4416 57.8609 82.4204 57.6808C82.3706 57.2563 81.9822 56.8719 81.5781 56.7551C81.3878 56.7001 81.2263 56.6978 81.1564 56.9155C81.0482 57.2521 81.0996 57.6157 81.3605 57.8536C81.5859 58.0592 81.9376 58.2902 81.9831 58.6179C82.0106 58.8161 81.9728 58.9675 81.8842 59.1447C81.7506 59.4119 81.6125 59.6743 81.4375 59.9173C81.4108 59.9544 81.3853 60.0057 81.4396 59.9402C81.5694 59.7838 81.6885 59.6106 81.7957 59.4383C82.1868 58.81 82.4441 58.1289 82.7432 57.4558C82.8844 57.1381 83.0091 56.8187 83.1316 56.4938C83.1855 56.3507 83.2262 56.0973 83.3742 56.0127C83.4312 55.9802 83.4215 55.8659 83.4408 56.0127C83.4964 56.4353 83.542 56.8691 83.5304 57.2955C83.5255 57.4747 83.525 57.7356 83.3929 57.8786C83.343 57.9327 83.2367 57.9544 83.2013 58.0181C83.1702 58.0742 83.131 58.1317 83.1035 58.1868" stroke="white" stroke-width="2" stroke-linecap="round"/>
</svg>
