<svg width="24" height="24" viewBox="0 0 24 24" fill="none" xmlns="http://www.w3.org/2000/svg">
<path d="M15.5559 14.548L15.1009 15.028C15.1009 15.028 14.0179 16.167 11.0629 13.056C8.10786 9.94502 9.19086 8.80602 9.19086 8.80602L9.47786 8.50302C10.1839 7.75902 10.2509 6.56502 9.63386 5.69302L8.37386 3.91002C7.60986 2.83002 6.13486 2.68802 5.25986 3.60902L3.69086 5.26002C3.25786 5.71702 2.96786 6.30802 3.00286 6.96502C3.09286 8.64502 3.81086 12.258 7.81486 16.475C12.0619 20.945 16.0469 21.123 17.6759 20.962C18.1919 20.912 18.6399 20.633 19.0009 20.253L20.4209 18.757C21.3809 17.747 21.1109 16.017 19.8829 15.311L17.9729 14.211C17.1669 13.748 16.1859 13.884 15.5559 14.547M13.2599 1.88002C13.2757 1.78276 13.3105 1.68957 13.3623 1.60577C13.4141 1.52197 13.4819 1.4492 13.5619 1.39162C13.6419 1.33404 13.7324 1.29278 13.8283 1.2702C13.9242 1.24762 14.0236 1.24416 14.1209 1.26002C14.1459 1.26502 14.2279 1.28002 14.2709 1.29002C14.3569 1.30802 14.4742 1.33802 14.6229 1.38002C14.9199 1.46702 15.3349 1.61002 15.8329 1.83802C16.8289 2.29502 18.1539 3.09402 19.5299 4.46902C20.9059 5.84502 21.7049 7.17102 22.1619 8.16702C22.3899 8.66502 22.5319 9.07902 22.6189 9.37702C22.6624 9.52683 22.7001 9.67828 22.7319 9.83102L22.7369 9.86202C22.7698 10.0601 22.7235 10.2631 22.6081 10.4274C22.4927 10.5916 22.3173 10.7039 22.1199 10.74C21.9241 10.7718 21.7236 10.7247 21.5624 10.6091C21.4013 10.4935 21.2925 10.3187 21.2599 10.123C21.239 10.0126 21.212 9.90342 21.1789 9.79602C21.0767 9.45259 20.9497 9.11705 20.7989 8.79202C20.4089 7.94202 19.7069 6.76802 18.4689 5.53002C17.2309 4.29202 16.0579 3.59102 15.2069 3.20102C14.8822 3.05026 14.5469 2.92326 14.2039 2.82102C14.0986 2.79146 13.9926 2.76478 13.8859 2.74102C13.6895 2.70808 13.514 2.59943 13.3969 2.43843C13.2799 2.27742 13.2307 2.07692 13.2599 1.88002Z" fill="white"/>
<path fill-rule="evenodd" clip-rule="evenodd" d="M13.4861 5.33002C13.5131 5.23526 13.5584 5.14674 13.6196 5.06951C13.6808 4.99229 13.7566 4.92788 13.8427 4.87996C13.9288 4.83204 14.0235 4.80155 14.1213 4.79024C14.2192 4.77893 14.3183 4.78701 14.4131 4.81402L14.4161 4.81502L14.4191 4.81602L14.4271 4.81802L14.4471 4.82402L14.5031 4.84402C14.5478 4.85935 14.6068 4.88269 14.6801 4.91402C14.8261 4.97602 15.0251 5.07202 15.2701 5.21702C15.7591 5.50702 16.4271 5.98702 17.2121 6.77302C17.9971 7.55802 18.4781 8.22602 18.7681 8.71502C18.9131 8.96002 19.0091 9.15902 19.0711 9.30502C19.1043 9.3814 19.1343 9.45914 19.1611 9.53802L19.1661 9.55802L19.1691 9.56602V9.56902L19.1701 9.57002C19.1701 9.57002 19.1701 9.57202 18.4501 9.77802L19.1701 9.57202C19.2209 9.76124 19.1956 9.96282 19.0997 10.1337C19.0038 10.3045 18.8448 10.431 18.6568 10.4861C18.4688 10.5413 18.2667 10.5206 18.0937 10.4287C17.9207 10.3367 17.7905 10.1807 17.7311 9.99402L17.7281 9.98402L17.6931 9.89602C17.6293 9.75291 17.5572 9.61367 17.4771 9.47902C17.2541 9.10302 16.8511 8.53302 16.1511 7.83302C15.4511 7.13302 14.8821 6.73102 14.5051 6.50802C14.3432 6.41296 14.1748 6.32942 14.0011 6.25802L13.9911 6.25402C13.8022 6.19723 13.6433 6.0683 13.5487 5.89517C13.4542 5.72203 13.4317 5.51963 13.4861 5.33002Z" fill="white"/>
</svg>
