<svg width="54" height="54" viewBox="0 0 54 54" fill="none" xmlns="http://www.w3.org/2000/svg">
<g id="solar:delivery-bold">
<g id="Group">
<path id="Vector" d="M21.5189 19.6426L22.6777 23.8344C23.7689 27.7831 24.3134 29.7586 25.9177 30.6564C27.5219 31.5564 29.5582 31.0254 33.6307 29.9679L37.9507 28.8429C42.0232 27.7854 44.0594 27.2566 44.9864 25.7019C45.9134 24.1449 45.3689 22.1694 44.2754 18.2206L43.1189 14.0311C42.0277 10.0801 41.4809 8.10462 39.8789 7.20687C38.2724 6.30687 36.2362 6.83787 32.1637 7.89762L27.8437 9.01812C23.7712 10.0756 21.7349 10.6066 20.8102 12.1636C19.8832 13.7184 20.4277 15.6939 21.5189 19.6426Z" fill="#161616"/>
<path id="Vector_2" d="M5.12318 11.8057C5.18246 11.5921 5.28328 11.3921 5.41988 11.2174C5.55647 11.0427 5.72616 10.8967 5.91924 10.7876C6.11233 10.6785 6.32502 10.6086 6.54515 10.5817C6.76529 10.5549 6.98856 10.5717 7.20218 10.6312L11.0339 11.6932C12.0494 11.969 12.9762 12.5032 13.7238 13.2438C14.4714 13.9843 15.0145 14.9059 15.2999 15.9187L20.1397 33.4372L20.4952 34.6657C21.9194 35.199 23.1434 36.1957 23.9197 37.5187L24.6172 37.3027L44.5747 32.1165C44.7892 32.0607 45.0126 32.0476 45.2322 32.0781C45.4517 32.1086 45.6631 32.182 45.8543 32.2942C46.0455 32.4064 46.2127 32.5552 46.3464 32.732C46.48 32.9088 46.5776 33.1102 46.6334 33.3247C46.6893 33.5393 46.7023 33.7627 46.6718 33.9822C46.6413 34.2018 46.5679 34.4132 46.4557 34.6044C46.3435 34.7955 46.1947 34.9627 46.0179 35.0964C45.8411 35.2301 45.6397 35.3277 45.4252 35.3835L25.5397 40.5495L24.8017 40.779C24.7859 43.6365 22.8127 46.2487 19.8292 47.025C16.2494 47.9565 12.5707 45.8955 11.6122 42.426C10.6537 38.9542 12.7777 35.3857 16.3552 34.4565C16.5315 34.4111 16.7093 34.372 16.8884 34.3395L12.0464 16.8165C11.9161 16.3663 11.6715 15.9575 11.3363 15.6299C11.0012 15.3022 10.587 15.0669 10.1339 14.9467L6.29993 13.8825C6.08628 13.8234 5.88636 13.7229 5.71158 13.5865C5.53681 13.4502 5.3906 13.2808 5.28133 13.0879C5.17205 12.8951 5.10184 12.6826 5.0747 12.4626C5.04757 12.2426 5.06404 12.0194 5.12318 11.8057Z" fill="#161616"/>
</g>
</g>
</svg>
