<svg width="19" height="18" viewBox="0 0 19 18" fill="none" xmlns="http://www.w3.org/2000/svg">
<path d="M18.8375 9.00003C18.8375 9.15559 18.8134 9.30142 18.7652 9.43753C18.7169 9.57364 18.6341 9.70003 18.5167 9.8167L10.8167 17.5167C10.5833 17.75 10.3064 17.8667 9.98599 17.8667C9.66555 17.8667 9.38827 17.75 9.15416 17.5167C8.92082 17.2834 8.80416 17.0111 8.80416 16.7C8.80416 16.3889 8.92082 16.1167 9.15416 15.8834L14.8708 10.1667H1.80416C1.4736 10.1667 1.20138 10.0547 0.98749 9.8307C0.773601 9.6067 0.666656 9.32981 0.666656 9.00003C0.666656 8.66948 0.778657 8.3922 1.00266 8.1682C1.22666 7.9442 1.50355 7.83259 1.83332 7.83336H14.8708L9.15416 2.1167C8.92082 1.88336 8.80416 1.61114 8.80416 1.30003C8.80416 0.98892 8.92082 0.716698 9.15416 0.483366C9.38749 0.250032 9.66477 0.133364 9.98599 0.133364C10.3072 0.133364 10.5841 0.250032 10.8167 0.483366L18.5167 8.18337C18.6333 8.30003 18.7162 8.42642 18.7652 8.56253C18.8142 8.69864 18.8383 8.84448 18.8375 9.00003Z" fill="#E15B19"/>
</svg>
