<svg width="19" height="18" viewBox="0 0 19 18" fill="none" xmlns="http://www.w3.org/2000/svg">
<path d="M0.162477 8.99997C0.162477 8.84441 0.186588 8.69858 0.234812 8.56247C0.283033 8.42636 0.365868 8.29997 0.483313 8.1833L8.18331 0.4833C8.41665 0.249967 8.69353 0.133301 9.01398 0.133301C9.33442 0.133301 9.6117 0.249967 9.84581 0.4833C10.0791 0.716634 10.1958 0.988856 10.1958 1.29997C10.1958 1.61108 10.0791 1.8833 9.84581 2.11663L4.12915 7.8333H17.1958C17.5264 7.8333 17.7986 7.9453 18.0125 8.1693C18.2264 8.3933 18.3333 8.67019 18.3333 8.99997C18.3333 9.33052 18.2213 9.6078 17.9973 9.8318C17.7733 10.0558 17.4964 10.1674 17.1666 10.1666H4.12915L9.84581 15.8833C10.0791 16.1166 10.1958 16.3889 10.1958 16.7C10.1958 17.0111 10.0791 17.2833 9.84581 17.5166C9.61248 17.75 9.3352 17.8666 9.01398 17.8666C8.69276 17.8666 8.41587 17.75 8.18331 17.5166L0.483313 9.81663C0.366646 9.69997 0.283812 9.57358 0.234812 9.43747C0.185812 9.30136 0.161699 9.15552 0.162477 8.99997Z" fill="#E15B19"/>
</svg>
