<svg width="60" height="60" viewBox="0 0 60 60" fill="none" xmlns="http://www.w3.org/2000/svg">
<g id="mdi:truck-delivery">
<path id="Vector" d="M7.5 10C6.17392 10 4.90215 10.5268 3.96447 11.4645C3.02678 12.4021 2.5 13.6739 2.5 15V42.5H7.5C7.5 44.4891 8.29018 46.3968 9.6967 47.8033C11.1032 49.2098 13.0109 50 15 50C16.9891 50 18.8968 49.2098 20.3033 47.8033C21.7098 46.3968 22.5 44.4891 22.5 42.5H37.5C37.5 44.4891 38.2902 46.3968 39.6967 47.8033C41.1032 49.2098 43.0109 50 45 50C46.9891 50 48.8968 49.2098 50.3033 47.8033C51.7098 46.3968 52.5 44.4891 52.5 42.5H57.5V30L50 20H42.5V10M25 15L35 25L25 35V27.5H10V22.5H25M42.5 23.75H48.75L53.675 30H42.5M15 38.75C15.9946 38.75 16.9484 39.1451 17.6517 39.8483C18.3549 40.5516 18.75 41.5054 18.75 42.5C18.75 43.4946 18.3549 44.4484 17.6517 45.1516C16.9484 45.8549 15.9946 46.25 15 46.25C14.0054 46.25 13.0516 45.8549 12.3483 45.1516C11.6451 44.4484 11.25 43.4946 11.25 42.5C11.25 41.5054 11.6451 40.5516 12.3483 39.8483C13.0516 39.1451 14.0054 38.75 15 38.75ZM45 38.75C45.9946 38.75 46.9484 39.1451 47.6516 39.8483C48.3549 40.5516 48.75 41.5054 48.75 42.5C48.75 43.4946 48.3549 44.4484 47.6516 45.1516C46.9484 45.8549 45.9946 46.25 45 46.25C44.0054 46.25 43.0516 45.8549 42.3484 45.1516C41.6451 44.4484 41.25 43.4946 41.25 42.5C41.25 41.5054 41.6451 40.5516 42.3484 39.8483C43.0516 39.1451 44.0054 38.75 45 38.75Z" fill="#161616"/>
</g>
</svg>
