<svg width="15" height="9" viewBox="0 0 15 9" fill="none" xmlns="http://www.w3.org/2000/svg">
<path d="M5.09717 0.179688H6.57422V5.37354C6.57422 5.97152 6.44531 6.47461 6.1875 6.88281C5.92969 7.28743 5.57878 7.59359 5.13477 7.80127C4.69076 8.00537 4.18587 8.10742 3.62012 8.10742C3.0472 8.10742 2.53695 8.00537 2.08936 7.80127C1.64176 7.59359 1.29085 7.28743 1.03662 6.88281C0.782389 6.47461 0.655273 5.97152 0.655273 5.37354V0.179688H2.13232V5.37354C2.13232 5.73877 2.1932 6.03776 2.31494 6.27051C2.43669 6.49967 2.60856 6.66976 2.83057 6.78076C3.05257 6.89176 3.31576 6.94727 3.62012 6.94727C3.92806 6.94727 4.19124 6.89176 4.40967 6.78076C4.63167 6.66976 4.80176 6.49967 4.91992 6.27051C5.03809 6.03776 5.09717 5.73877 5.09717 5.37354V0.179688ZM11.2978 1.3667L9.06877 8H7.50578L10.4277 0.179688H11.4267L11.2978 1.3667ZM13.1615 8L10.9218 1.3667L10.7875 0.179688H11.7919L14.7299 8H13.1615ZM13.0595 5.09424V6.25977H8.86467V5.09424H13.0595Z" fill="white"/>
</svg>
