<svg width="42" height="107" viewBox="0 0 42 107" fill="none" xmlns="http://www.w3.org/2000/svg">
<path id="Vector" d="M33.3604 106.326L9.7627 99.7229L14.7306 85.4154C15.1446 83.948 15.509 82.5246 15.8236 81.1452C16.1299 79.7731 16.2831 78.2617 16.2831 76.6108C16.2831 73.4926 15.8691 70.6017 15.0411 67.9383C14.2131 65.2823 12.8677 62.6703 11.0047 60.1023C7.69273 55.8834 5.15907 51.3417 3.40373 46.4772C1.64011 41.62 0.758301 36.5317 0.758301 31.2123C0.758301 28.4608 0.965301 25.7094 1.3793 22.958C1.79329 20.2065 2.51778 17.5468 3.55277 14.9788L8.52071 0.671387L32.1184 7.27482L27.1505 21.5823C26.5295 23.2331 26.1155 24.928 25.9085 26.6669C25.7015 28.4131 25.598 29.9283 25.598 31.2123C25.598 34.6974 26.0658 37.68 27.0015 40.1599C27.9288 42.6325 29.2205 44.8777 30.8765 46.8954C34.3954 51.2977 36.9829 56.0228 38.6389 61.0708C40.2948 66.1114 41.1228 71.2914 41.1228 76.6108C41.1228 79.1788 40.9158 81.7468 40.5019 84.3148C40.0879 86.8828 39.3634 89.4509 38.3284 92.0189L33.3604 106.326Z" fill="#E15B19" fill-opacity="0.05"/>
</svg>
