<svg width="78" height="180" viewBox="0 0 78 180" fill="none" xmlns="http://www.w3.org/2000/svg">
<path d="M62.5037 179.645L17.9224 168.471L27.308 144.26C28.0901 141.777 28.7784 139.369 29.3728 137.034C29.9516 134.713 30.2409 132.155 30.2409 129.362C30.2409 124.085 29.4588 119.193 27.8946 114.686C26.3303 110.192 23.7884 105.772 20.2688 101.426C14.0118 94.2875 9.22516 86.6022 5.90894 78.3706C2.57707 70.1515 0.911133 61.5412 0.911133 52.5399C0.911133 47.8841 1.3022 43.2282 2.08433 38.5723C2.86646 33.9165 4.23518 29.4158 6.1905 25.0703L15.576 0.859863L60.1573 12.0339L50.7718 36.2444C49.5986 39.0379 48.8165 41.9059 48.4254 44.8484C48.0344 47.8034 47.8388 50.3672 47.8388 52.5399C47.8388 58.4373 48.7226 63.4843 50.4902 67.6808C52.2422 71.8648 54.6824 75.664 57.811 79.0783C64.459 86.5277 69.3473 94.5233 72.4759 103.065C75.6044 111.595 77.1686 120.36 77.1686 129.362C77.1686 133.707 76.7776 138.053 75.9954 142.398C75.2133 146.743 73.8446 151.089 71.8893 155.434L62.5037 179.645Z" fill="#E15B19" fill-opacity="0.05"/>
</svg>
