<svg width="41" height="106" viewBox="0 0 41 106" fill="none" xmlns="http://www.w3.org/2000/svg">
<path id="Vector" d="M32.6021 105.655L9.0044 99.0515L13.9723 84.744C14.3863 83.2766 14.7507 81.8532 15.0653 80.4738C15.3716 79.1018 15.5248 77.5903 15.5248 75.9395C15.5248 72.8212 15.1108 69.9303 14.2828 67.267C13.4548 64.6109 12.1094 61.9989 10.2464 59.4309C6.93442 55.212 4.40077 50.6703 2.64543 45.8058C0.881814 40.9486 0 35.8603 0 30.5409C0 27.7894 0.207 25.038 0.620995 22.2866C1.03499 19.5352 1.75948 16.8754 2.79447 14.3074L7.76241 0L31.3601 6.60344L26.3922 20.9109C25.7712 22.5617 25.3572 24.2566 25.1502 25.9955C24.9432 27.7418 24.8397 29.2569 24.8397 30.5409C24.8397 34.026 25.3075 37.0086 26.2432 39.4885C27.1705 41.9611 28.4622 44.2063 30.1182 46.224C33.6371 50.6263 36.2246 55.3514 37.8806 60.3994C39.5365 65.44 40.3645 70.62 40.3645 75.9395C40.3645 78.5075 40.1575 81.0754 39.7436 83.6434C39.3296 86.2114 38.6051 88.7795 37.5701 91.3475L32.6021 105.655Z" fill="white" fill-opacity="0.06"/>
</svg>
