<svg width="77" height="179" viewBox="0 0 77 179" fill="none" xmlns="http://www.w3.org/2000/svg">
<path d="M61.5926 178.785L17.0113 167.611L26.3968 143.4C27.179 140.917 27.8672 138.509 28.4617 136.175C29.0404 133.853 29.3298 131.295 29.3298 128.502C29.3298 123.225 28.5477 118.333 26.9834 113.826C25.4192 109.332 22.8773 104.912 19.3577 100.567C13.1007 93.4276 8.31403 85.7423 4.99781 77.5107C1.66594 69.2916 0 60.6814 0 51.6801C0 47.0242 0.391069 42.3683 1.1732 37.7125C1.95533 33.0566 3.32404 28.5559 5.27936 24.2105L14.6649 0L59.2462 11.1741L49.8607 35.3845C48.6875 38.1781 47.9054 41.0461 47.5143 43.9886C47.1232 46.9435 46.9277 49.5073 46.9277 51.6801C46.9277 57.5775 47.8115 62.6244 49.5791 66.8209C51.3311 71.005 53.7713 74.8041 56.8998 78.2184C63.5479 85.6678 68.4362 93.6635 71.5647 102.205C74.6932 110.735 76.2575 119.5 76.2575 128.502C76.2575 132.847 75.8664 137.193 75.0843 141.538C74.3022 145.884 72.9335 150.229 70.9781 154.575L61.5926 178.785Z" fill="white" fill-opacity="0.03"/>
</svg>
